Nunito-Black.ufo
<glyph name="exclam" format="2">
  <advance width="271.6265060240964"/>
  <unicode hex="0021"/>
  <outline>
    <contour>
      <point x="136.49397590361446" y="231.09638554216866" type="curve" smooth="yes"/>
      <point x="171.34939759036143" y="231.09638554216866"/>
      <point x="191.73493975903614" y="254.12048192771084"/>
      <point x="196.9277108433735" y="294.9759036144578" type="curve" smooth="yes"/>
      <point x="231.3975903614458" y="597.1566265060242" type="line" smooth="yes"/>
      <point x="240.50602409638554" y="665.9518072289156"/>
      <point x="204.9277108433735" y="714.277108433735"/>
      <point x="136.49397590361446" y="714.277108433735" type="curve" smooth="yes"/>
      <point x="67.6987951807229" y="714.277108433735"/>
      <point x="31.12048192771084" y="665.9518072289156"/>
      <point x="40.2289156626506" y="597.1566265060242" type="curve" smooth="yes"/>
      <point x="74.69879518072288" y="294.9759036144578" type="line" smooth="yes"/>
      <point x="79.89156626506023" y="254.12048192771084"/>
      <point x="101.27710843373494" y="231.09638554216866"/>
    </contour>
    <contour>
      <point x="136.49397590361446" y="-5.63855421686747" type="curve" smooth="yes"/>
      <point x="197.8192771084337" y="-5.63855421686747"/>
      <point x="234.12048192771084" y="34.3012048192771"/>
      <point x="234.12048192771084" y="91.71084337349397" type="curve" smooth="yes"/>
      <point x="234.12048192771084" y="148.75903614457832"/>
      <point x="197.8192771084337" y="187.69879518072287"/>
      <point x="136.49397590361446" y="187.69879518072287" type="curve" smooth="yes"/>
      <point x="75.16867469879519" y="187.69879518072287"/>
      <point x="37.86746987951807" y="148.75903614457832"/>
      <point x="37.86746987951807" y="91.71084337349397" type="curve" smooth="yes"/>
      <point x="37.86746987951807" y="34.3012048192771"/>
      <point x="75.16867469879519" y="-5.63855421686747"/>
    </contour>
  </outline>
</glyph>
<glyph name="numbersign" format="2">
  <advance width="600.0"/>
  <unicode hex="0023"/>
  <outline>
    <contour>
      <point x="132.3855421686747" y="-9.27710843373494" type="curve" smooth="yes"/>
      <point x="167.6867469879518" y="-9.27710843373494"/>
      <point x="188.7951807228916" y="7.554216867469879"/>
      <point x="196.07228915662648" y="44.21686746987952" type="curve" smooth="yes"/>
      <point x="218.6024096385542" y="159.2289156626506" type="line"/>
      <point x="305.0120481927711" y="159.2289156626506" type="line"/>
      <point x="284.7590361445783" y="55.77108433734939" type="line" smooth="yes"/>
      <point x="276.84337349397595" y="15.46987951807229"/>
      <point x="295.3132530120482" y="-9.27710843373494"/>
      <point x="333.5301204819277" y="-9.27710843373494" type="curve" smooth="yes"/>
      <point x="368.83132530120486" y="-9.27710843373494"/>
      <point x="389.93975903614455" y="7.554216867469879"/>
      <point x="397.2168674698795" y="44.21686746987952" type="curve" smooth="yes"/>
      <point x="422.10843373493975" y="168.50602409638554" type="line"/>
      <point x="377.8072289156626" y="159.2289156626506" type="line"/>
      <point x="471.28915662650604" y="159.2289156626506" type="line" smooth="yes"/>
      <point x="509.5903614457831" y="159.2289156626506"/>
      <point x="531.0602409638554" y="178.33734939759034"/>
      <point x="531.0602409638554" y="212.63855421686748" type="curve" smooth="yes"/>
      <point x="531.0602409638554" y="246.93975903614458"/>
      <point x="509.5903614457831" y="265.4096385542169"/>
      <point x="471.28915662650604" y="265.4096385542169" type="curve" smooth="yes"/>
      <point x="397.91566265060237" y="265.4096385542169" type="line"/>
      <point x="437.855421686747" y="254.49397590361446" type="line"/>
      <point x="477.7469879518072" y="458.2289156626506" type="line"/>
      <point x="433.8072289156626" y="447.5903614457832" type="line"/>
      <point x="493.56626506024094" y="447.5903614457832" type="line" smooth="yes"/>
      <point x="531.867469879518" y="447.5903614457832"/>
      <point x="553.3373493975903" y="467.06024096385545"/>
      <point x="553.3373493975903" y="501.3614457831325" type="curve" smooth="yes"/>
      <point x="553.3373493975903" y="535.6626506024096"/>
      <point x="531.867469879518" y="553.7710843373494"/>
      <point x="493.56626506024094" y="553.7710843373494" type="curve" smooth="yes"/>
      <point x="454.91566265060237" y="553.7710843373494" type="line"/>
      <point x="494.49397590361446" y="543.4939759036145" type="line"/>
      <point x="515.3855421686746" y="649.2289156626506" type="line" smooth="yes"/>
      <point x="523.3012048192771" y="689.5301204819277"/>
      <point x="505.1927710843374" y="714.277108433735"/>
      <point x="466.9759036144578" y="714.277108433735" type="curve" smooth="yes"/>
      <point x="431.6746987951807" y="714.277108433735"/>
      <point x="409.566265060241" y="696.8072289156627"/>
      <point x="402.289156626506" y="660.7831325301205" type="curve" smooth="yes"/>
      <point x="380.7590361445783" y="553.7710843373494" type="line"/>
      <point x="294.34939759036143" y="553.7710843373494" type="line"/>
      <point x="313.2409638554217" y="649.2289156626506" type="line" smooth="yes"/>
      <point x="321.15662650602405" y="689.5301204819277"/>
      <point x="303.04819277108436" y="714.277108433735"/>
      <point x="265.4698795180723" y="714.277108433735" type="curve" smooth="yes"/>
      <point x="230.16867469879517" y="714.277108433735"/>
      <point x="208.06024096385542" y="696.8072289156627"/>
      <point x="200.78313253012047" y="660.7831325301205" type="curve" smooth="yes"/>
      <point x="177.25301204819277" y="543.4939759036145" type="line"/>
      <point x="221.55421686746988" y="553.7710843373494" type="line"/>
      <point x="128.71084337349396" y="553.7710843373494" type="line" smooth="yes"/>
      <point x="90.40963855421685" y="553.7710843373494"/>
      <point x="68.93975903614458" y="535.6626506024096"/>
      <point x="68.93975903614458" y="501.3614457831325" type="curve" smooth="yes"/>
      <point x="68.93975903614458" y="467.06024096385545"/>
      <point x="90.40963855421685" y="447.5903614457832"/>
      <point x="128.71084337349396" y="447.5903614457832" type="curve" smooth="yes"/>
      <point x="201.44578313253012" y="447.5903614457832" type="line"/>
      <point x="161.50602409638554" y="458.2289156626506" type="line"/>
      <point x="121.61445783132531" y="254.49397590361446" type="line"/>
      <point x="181.93975903614458" y="265.4096385542169" type="line"/>
      <point x="106.43373493975903" y="265.4096385542169" type="line" smooth="yes"/>
      <point x="68.13253012048193" y="265.4096385542169"/>
      <point x="46.66265060240964" y="246.93975903614458"/>
      <point x="46.66265060240964" y="212.63855421686748" type="curve" smooth="yes"/>
      <point x="46.66265060240964" y="178.33734939759034"/>
      <point x="68.13253012048193" y="159.2289156626506"/>
      <point x="106.43373493975903" y="159.2289156626506" type="curve" smooth="yes"/>
      <point x="161.83132530120483" y="159.2289156626506" type="line"/>
      <point x="105.14457831325302" y="168.50602409638554" type="line"/>
      <point x="83.6144578313253" y="55.77108433734939" type="line" smooth="yes"/>
      <point x="76.33734939759036" y="16.46987951807229"/>
      <point x="90.53012048192771" y="-9.27710843373494"/>
    </contour>
    <contour>
      <point x="239.34939759036143" y="265.4096385542169" type="line"/>
      <point x="274.6024096385542" y="447.5903614457832" type="line"/>
      <point x="360.65060240963857" y="447.5903614457832" type="line"/>
      <point x="325.3975903614458" y="265.4096385542169" type="line"/>
    </contour>
  </outline>
</glyph>
<glyph name="dollar" format="2">
  <advance width="600.0"/>
  <unicode hex="0024"/>
  <outline>
    <contour>
      <point x="309.3614457831325" y="-124.27710843373494" type="curve" smooth="yes"/>
      <point x="349.2168674698795" y="-124.27710843373494"/>
      <point x="378.51807228915663" y="-93.97590361445783"/>
      <point x="378.51807228915663" y="-54.48192771084338" type="curve" smooth="yes"/>
      <point x="378.51807228915663" y="20.831325301204817" type="line"/>
      <point x="355.68674698795184" y="-3.36144578313253" type="line"/>
      <point x="491.2409638554217" y="13.46987951807229"/>
      <point x="584.8795180722891" y="96.21686746987952"/>
      <point x="584.8795180722891" y="216.40963855421688" type="curve" smooth="yes"/>
      <point x="584.8795180722891" y="318.2409638554217"/>
      <point x="524.9638554216867" y="382.71084337349396"/>
      <point x="398.87951807228916" y="410.71084337349396" type="curve" smooth="yes"/>
      <point x="285.4096385542168" y="435.9879518072289" type="line" smooth="yes"/>
      <point x="226.5421686746988" y="449.433734939759"/>
      <point x="208.20481927710844" y="466.49397590361446"/>
      <point x="208.20481927710844" y="492.9759036144578" type="curve" smooth="yes"/>
      <point x="208.20481927710844" y="532.9036144578314"/>
      <point x="247.433734939759" y="561.4939759036145"/>
      <point x="318.3855421686747" y="561.4939759036145" type="curve" smooth="yes"/>
      <point x="376.0843373493976" y="561.4939759036145"/>
      <point x="410.5903614457831" y="551.2409638554217"/>
      <point x="441.92771084337346" y="537.5421686746988" type="curve" smooth="yes"/>
      <point x="545.7710843373494" y="495.98795180722885"/>
      <point x="584.1325301204819" y="624.3253012048192"/>
      <point x="507.95180722891564" y="667.1566265060242" type="curve" smooth="yes"/>
      <point x="463.69879518072287" y="694.0240963855422"/>
      <point x="399.1927710843374" y="708.6385542168674"/>
      <point x="349.2168674698795" y="711.277108433735" type="curve"/>
      <point x="378.51807228915663" y="692.0843373493976" type="line"/>
      <point x="378.51807228915663" y="759.4819277108434" type="line" smooth="yes"/>
      <point x="378.51807228915663" y="798.9759036144578"/>
      <point x="348.855421686747" y="829.277108433735"/>
      <point x="309.3614457831325" y="829.277108433735" type="curve" smooth="yes"/>
      <point x="269.50602409638554" y="829.277108433735"/>
      <point x="240.20481927710844" y="798.9759036144578"/>
      <point x="240.20481927710844" y="759.4819277108434" type="curve" smooth="yes"/>
      <point x="240.20481927710844" y="692.0843373493976" type="line"/>
      <point x="269.78313253012044" y="709.0" type="line"/>
      <point x="125.95180722891565" y="693.2530120481928"/>
      <point x="32.036144578313255" y="606.3373493975904"/>
      <point x="32.036144578313255" y="485.78313253012044" type="curve" smooth="yes"/>
      <point x="32.036144578313255" y="380.5903614457831"/>
      <point x="92.03614457831326" y="314.7590361445783"/>
      <point x="215.59036144578315" y="287.48192771084337" type="curve" smooth="yes"/>
      <point x="328.6144578313253" y="262.566265060241" type="line" smooth="yes"/>
      <point x="388.73493975903614" y="249.3975903614458"/>
      <point x="408.07228915662654" y="231.33734939759034"/>
      <point x="408.07228915662654" y="203.3012048192771" type="curve" smooth="yes"/>
      <point x="408.07228915662654" y="170.3734939759036"/>
      <point x="379.20481927710847" y="143.50602409638554"/>
      <point x="295.8072289156627" y="143.50602409638554" type="curve" smooth="yes"/>
      <point x="215.27710843373495" y="143.50602409638554"/>
      <point x="161.3012048192771" y="164.3132530120482"/>
      <point x="134.51807228915663" y="177.65060240963857" type="curve" smooth="yes"/>
      <point x="36.78313253012048" y="221.12048192771084"/>
      <point x="-13.349397590361441" y="78.25301204819277"/>
      <point x="74.46987951807229" y="38.14457831325302" type="curve" smooth="yes"/>
      <point x="115.16867469879517" y="18.44578313253012"/>
      <point x="180.14457831325302" y="-3.36144578313253"/>
      <point x="270.2289156626506" y="-6.63855421686747" type="curve"/>
      <point x="240.20481927710844" y="20.46987951807229" type="line"/>
      <point x="240.20481927710844" y="-54.48192771084338" type="line" smooth="yes"/>
      <point x="240.20481927710844" y="-93.97590361445783"/>
      <point x="269.50602409638554" y="-124.27710843373494"/>
    </contour>
  </outline>
</glyph>
<glyph name="quotesingle" format="2">
  <advance width="268.5421686746988"/>
  <unicode hex="0027"/>
  <outline>
    <contour>
      <point x="134.7710843373494" y="389.12048192771084" type="curve" smooth="yes"/>
      <point x="169.9879518072289" y="389.12048192771084"/>
      <point x="196.92771084337346" y="416.0602409638554"/>
      <point x="202.48192771084337" y="456.91566265060237" type="curve" smooth="yes"/>
      <point x="222.75903614457832" y="611.9036144578314" type="line" smooth="yes"/>
      <point x="230.59036144578312" y="669.8674698795181"/>
      <point x="190.73493975903614" y="714.277108433735"/>
      <point x="134.7710843373494" y="714.277108433735" type="curve" smooth="yes"/>
      <point x="77.80722891566265" y="714.277108433735"/>
      <point x="38.59036144578313" y="669.5060240963855"/>
      <point x="46.421686746987945" y="611.9036144578314" type="curve" smooth="yes"/>
      <point x="66.06024096385542" y="456.91566265060237" type="line" smooth="yes"/>
      <point x="71.61445783132531" y="415.4216867469879"/>
      <point x="99.91566265060241" y="389.12048192771084"/>
    </contour>
  </outline>
</glyph>
<glyph name="parenleft" format="2">
  <advance width="406.53012048192767"/>
  <unicode hex="0028"/>
  <outline>
    <contour>
      <point x="222.10843373493975" y="-155.33734939759037" type="curve" smooth="yes"/>
      <point x="265.51807228915663" y="-216.3855421686747"/>
      <point x="381.72289156626505" y="-187.9156626506024"/>
      <point x="346.78313253012044" y="-80.98795180722891" type="curve" smooth="yes"/>
      <point x="306.2530120481928" y="41.98795180722891"/>
      <point x="288.27710843373495" y="140.66265060240966"/>
      <point x="288.27710843373495" y="263.0" type="curve" smooth="yes"/>
      <point x="288.27710843373495" y="385.3373493975904"/>
      <point x="305.16867469879514" y="484.37349397590356"/>
      <point x="346.78313253012044" y="606.9879518072289" type="curve" smooth="yes"/>
      <point x="381.72289156626505" y="712.6385542168674"/>
      <point x="266.1566265060241" y="743.6626506024096"/>
      <point x="222.10843373493975" y="681.3373493975904" type="curve" smooth="yes"/>
      <point x="131.80722891566268" y="550.9759036144578"/>
      <point x="97.44578313253012" y="409.08433734939763"/>
      <point x="97.44578313253012" y="263.0" type="curve" smooth="yes"/>
      <point x="97.44578313253012" y="116.91566265060241"/>
      <point x="131.44578313253012" y="-25.337349397590362"/>
    </contour>
  </outline>
</glyph>
<glyph name="parenright" format="2">
  <advance width="406.53012048192767"/>
  <unicode hex="0029"/>
  <outline>
    <contour>
      <point x="184.42168674698797" y="-155.33734939759037" type="curve" smooth="yes"/>
      <point x="275.0" y="-25.97590361445783"/>
      <point x="309.08433734939763" y="116.91566265060241"/>
      <point x="309.08433734939763" y="263.0" type="curve" smooth="yes"/>
      <point x="309.08433734939763" y="409.08433734939763"/>
      <point x="274.3614457831325" y="551.3373493975904"/>
      <point x="184.42168674698797" y="681.3373493975904" type="curve" smooth="yes"/>
      <point x="140.73493975903614" y="743.6626506024096"/>
      <point x="24.807228915662648" y="712.6385542168674"/>
      <point x="59.74698795180723" y="606.9879518072289" type="curve" smooth="yes"/>
      <point x="100.91566265060241" y="484.01204819277103"/>
      <point x="118.25301204819277" y="385.3373493975904"/>
      <point x="118.25301204819277" y="263.0" type="curve" smooth="yes"/>
      <point x="118.25301204819277" y="140.66265060240966"/>
      <point x="101.72289156626506" y="41.626506024096386"/>
      <point x="59.74698795180723" y="-80.98795180722891" type="curve" smooth="yes"/>
      <point x="24.084337349397593" y="-187.55421686746988"/>
      <point x="141.3734939759036" y="-216.3855421686747"/>
    </contour>
  </outline>
</glyph>
<glyph name="asterisk" format="2">
  <advance width="455.5542168674699"/>
  <unicode hex="002A"/>
  <outline>
    <contour>
      <point x="123.44578313253012" y="346.50602409638554" type="curve" smooth="yes"/>
      <point x="155.74698795180723" y="327.3975903614458"/>
      <point x="185.49397590361446" y="341.3132530120482"/>
      <point x="201.6867469879518" y="378.89156626506025" type="curve" smooth="yes"/>
      <point x="237.83132530120483" y="459.92771084337346" type="line"/>
      <point x="217.72289156626508" y="459.92771084337346" type="line"/>
      <point x="252.86746987951804" y="378.2530120481928" type="line" smooth="yes"/>
      <point x="268.421686746988" y="340.67469879518075"/>
      <point x="298.16867469879514" y="327.3975903614458"/>
      <point x="331.4698795180723" y="346.86746987951807" type="curve" smooth="yes"/>
      <point x="365.0481927710843" y="366.6144578313253"/>
      <point x="368.68674698795184" y="397.6385542168675"/>
      <point x="345.9397590361446" y="429.6626506024096" type="curve" smooth="yes"/>
      <point x="289.6024096385542" y="512.3373493975904" type="line"/>
      <point x="264.93975903614455" y="474.84337349397583" type="line"/>
      <point x="365.3373493975904" y="467.56626506024094" type="line" smooth="yes"/>
      <point x="404.6385542168675" y="464.28915662650604"/>
      <point x="430.3855421686747" y="483.7590361445784"/>
      <point x="430.3855421686747" y="521.3373493975904" type="curve" smooth="yes"/>
      <point x="430.3855421686747" y="558.5542168674699"/>
      <point x="404.6385542168675" y="577.3855421686746"/>
      <point x="365.3373493975904" y="574.1084337349397" type="curve" smooth="yes"/>
      <point x="264.93975903614455" y="566.4698795180723" type="line"/>
      <point x="289.6024096385542" y="528.6987951807229" type="line"/>
      <point x="345.9397590361446" y="611.0120481927711" type="line" smooth="yes"/>
      <point x="368.68674698795184" y="643.3975903614457"/>
      <point x="365.0481927710843" y="675.0602409638554"/>
      <point x="331.4698795180723" y="695.1686746987951" type="curve" smooth="yes"/>
      <point x="298.53012048192767" y="714.277108433735"/>
      <point x="267.144578313253" y="700.3614457831325"/>
      <point x="252.22891566265056" y="663.421686746988" type="curve" smooth="yes"/>
      <point x="217.72289156626508" y="583.3855421686746" type="line"/>
      <point x="237.83132530120483" y="583.3855421686746" type="line"/>
      <point x="203.32530120481925" y="663.421686746988" type="line" smooth="yes"/>
      <point x="188.40963855421685" y="700.3614457831326"/>
      <point x="157.02409638554215" y="714.9156626506025"/>
      <point x="125.0843373493976" y="695.8072289156627" type="curve" smooth="yes"/>
      <point x="92.14457831325302" y="676.6987951807229"/>
      <point x="86.86746987951807" y="645.6746987951808"/>
      <point x="109.6144578313253" y="612.0120481927711" type="curve" smooth="yes"/>
      <point x="166.59036144578312" y="527.0602409638554" type="line"/>
      <point x="191.25301204819277" y="566.4698795180723" type="line"/>
      <point x="90.2168674698795" y="574.7469879518072" type="line" smooth="yes"/>
      <point x="50.915662650602414" y="578.0240963855422"/>
      <point x="25.168674698795183" y="557.9156626506024"/>
      <point x="25.168674698795183" y="521.3373493975904" type="curve" smooth="yes"/>
      <point x="25.168674698795183" y="483.7590361445783"/>
      <point x="50.915662650602414" y="464.28915662650604"/>
      <point x="90.2168674698795" y="467.56626506024094" type="curve" smooth="yes"/>
      <point x="190.6144578313253" y="474.84337349397583" type="line"/>
      <point x="164.95180722891567" y="512.3373493975904" type="line"/>
      <point x="108.61445783132531" y="429.6626506024096" type="line" smooth="yes"/>
      <point x="85.86746987951807" y="397.6385542168675"/>
      <point x="91.14457831325302" y="365.9759036144578"/>
    </contour>
  </outline>
</glyph>
<glyph name="plus" format="2">
  <advance width="600.0"/>
  <unicode hex="002B"/>
  <outline>
    <contour>
      <point x="300.0" y="30.72289156626506" type="curve" smooth="yes"/>
      <point x="340.2168674698795" y="30.72289156626506"/>
      <point x="361.96385542168673" y="53.46987951807229"/>
      <point x="361.96385542168673" y="93.6867469879518" type="curve" smooth="yes"/>
      <point x="361.96385542168673" y="227.6746987951807" type="line"/>
      <point x="492.9518072289157" y="227.6746987951807" type="line" smooth="yes"/>
      <point x="531.5301204819277" y="227.6746987951807"/>
      <point x="553.277108433735" y="248.78313253012047"/>
      <point x="553.277108433735" y="287.0" type="curve" smooth="yes"/>
      <point x="553.277108433735" y="325.2168674698795"/>
      <point x="531.5301204819277" y="346.3253012048193"/>
      <point x="492.9518072289157" y="346.3253012048193" type="curve" smooth="yes"/>
      <point x="361.96385542168673" y="346.3253012048193" type="line"/>
      <point x="361.96385542168673" y="474.6746987951807" type="line" smooth="yes"/>
      <point x="361.96385542168673" y="514.5301204819277"/>
      <point x="340.2168674698795" y="537.277108433735"/>
      <point x="300.0" y="537.277108433735" type="curve" smooth="yes"/>
      <point x="259.7831325301205" y="537.277108433735"/>
      <point x="238.03614457831324" y="514.5301204819277"/>
      <point x="238.03614457831324" y="474.6746987951807" type="curve" smooth="yes"/>
      <point x="238.03614457831324" y="346.3253012048193" type="line"/>
      <point x="107.04819277108435" y="346.3253012048193" type="line" smooth="yes"/>
      <point x="68.83132530120481" y="346.3253012048193"/>
      <point x="46.72289156626506" y="325.2168674698795"/>
      <point x="46.72289156626506" y="287.0" type="curve" smooth="yes"/>
      <point x="46.72289156626506" y="248.78313253012047"/>
      <point x="68.83132530120481" y="227.6746987951807"/>
      <point x="107.04819277108435" y="227.6746987951807" type="curve" smooth="yes"/>
      <point x="238.03614457831324" y="227.6746987951807" type="line"/>
      <point x="238.03614457831324" y="93.6867469879518" type="line" smooth="yes"/>
      <point x="238.03614457831324" y="53.46987951807229"/>
      <point x="259.7831325301205" y="30.72289156626506"/>
    </contour>
  </outline>
</glyph>
<glyph name="comma" format="2">
  <advance width="271.6265060240964"/>
  <unicode hex="002C"/>
  <outline>
    <contour>
      <point x="161.43373493975903" y="-120.40963855421687" type="curve" smooth="yes"/>
      <point x="223.75903614457832" y="-43.89156626506024"/>
      <point x="234.75903614457832" y="12.301204819277107"/>
      <point x="234.75903614457832" y="69.24096385542168" type="curve" smooth="yes"/>
      <point x="234.75903614457832" y="143.8433734939759"/>
      <point x="197.45783132530119" y="187.69879518072287"/>
      <point x="136.13253012048193" y="187.69879518072287" type="curve" smooth="yes"/>
      <point x="74.80722891566265" y="187.69879518072287"/>
      <point x="37.86746987951807" y="148.75903614457832"/>
      <point x="37.86746987951807" y="91.71084337349397" type="curve" smooth="yes"/>
      <point x="37.86746987951807" y="32.024096385542165"/>
      <point x="78.44578313253012" y="-5.63855421686747"/>
      <point x="140.13253012048193" y="-5.63855421686747" type="curve"/>
      <point x="134.49397590361446" y="43.04819277108433" type="line"/>
      <point x="134.49397590361446" y="12.855421686746986"/>
      <point x="125.85542168674698" y="-27.89156626506024"/>
      <point x="92.83132530120481" y="-67.27710843373494" type="curve" smooth="yes"/>
      <point x="44.97590361445783" y="-125.40963855421687"/>
      <point x="116.2168674698795" y="-176.18072289156626"/>
    </contour>
  </outline>
</glyph>
<glyph name="hyphen" format="2">
  <advance width="445.49397590361446"/>
  <unicode hex="002D"/>
  <outline>
    <contour>
      <point x="123.7710843373494" y="199.48192771084337" type="curve" smooth="yes"/>
      <point x="322.08433734939763" y="199.48192771084337" type="line" smooth="yes"/>
      <point x="361.5783132530121" y="199.48192771084337"/>
      <point x="391.87951807228916" y="229.14457831325302"/>
      <point x="391.87951807228916" y="268.6385542168675" type="curve" smooth="yes"/>
      <point x="391.87951807228916" y="308.49397590361446"/>
      <point x="361.5783132530121" y="337.7951807228916"/>
      <point x="322.08433734939763" y="337.7951807228916" type="curve" smooth="yes"/>
      <point x="123.7710843373494" y="337.7951807228916" type="line" smooth="yes"/>
      <point x="83.9156626506024" y="337.7951807228916"/>
      <point x="53.61445783132531" y="308.49397590361446"/>
      <point x="53.61445783132531" y="268.6385542168675" type="curve" smooth="yes"/>
      <point x="53.61445783132531" y="229.14457831325302"/>
      <point x="83.9156626506024" y="199.48192771084337"/>
    </contour>
  </outline>
</glyph>
<glyph name="period" format="2">
  <advance width="271.6265060240964"/>
  <unicode hex="002E"/>
  <outline>
    <contour>
      <point x="136.49397590361446" y="-5.63855421686747" type="curve" smooth="yes"/>
      <point x="197.8192771084337" y="-5.63855421686747"/>
      <point x="234.12048192771084" y="34.3012048192771"/>
      <point x="234.12048192771084" y="91.71084337349397" type="curve" smooth="yes"/>
      <point x="234.12048192771084" y="148.75903614457832"/>
      <point x="197.8192771084337" y="187.69879518072287"/>
      <point x="136.49397590361446" y="187.69879518072287" type="curve" smooth="yes"/>
      <point x="75.16867469879519" y="187.69879518072287"/>
      <point x="37.86746987951807" y="148.75903614457832"/>
      <point x="37.86746987951807" y="91.71084337349397" type="curve" smooth="yes"/>
      <point x="37.86746987951807" y="34.3012048192771"/>
      <point x="75.16867469879519" y="-5.63855421686747"/>
    </contour>
  </outline>
</glyph>
<glyph name="slash" format="2">
  <advance width="349.39759036144574"/>
  <unicode hex="002F"/>
  <outline>
    <contour>
      <point x="128.86746987951807" y="-21.97590361445783" type="curve" smooth="yes"/>
      <point x="350.28915662650604" y="670.4819277108434" type="line" smooth="yes"/>
      <point x="378.95180722891564" y="761.0240963855422"/>
      <point x="248.55421686746988" y="796.9638554216867"/>
      <point x="220.53012048192772" y="709.9759036144578" type="curve" smooth="yes"/>
      <point x="-0.8915662650602414" y="17.879518072289155" type="line" smooth="yes"/>
      <point x="-29.554216867469876" y="-73.02409638554217"/>
      <point x="101.20481927710843" y="-108.6024096385542"/>
    </contour>
  </outline>
</glyph>
<glyph name="zero" format="2">
  <advance width="600.0"/>
  <unicode hex="0030"/>
  <outline>
    <contour>
      <point x="300.0" y="-11.27710843373494" type="curve" smooth="yes"/>
      <point x="474.0240963855422" y="-11.27710843373494"/>
      <point x="569.132530120482" y="121.27710843373494"/>
      <point x="569.132530120482" y="355.6385542168675" type="curve" smooth="yes"/>
      <point x="569.132530120482" y="590.0"/>
      <point x="474.3855421686747" y="716.277108433735"/>
      <point x="300.0" y="716.277108433735" type="curve" smooth="yes"/>
      <point x="125.97590361445785" y="716.277108433735"/>
      <point x="30.86746987951807" y="590.0"/>
      <point x="30.86746987951807" y="355.27710843373495" type="curve" smooth="yes"/>
      <point x="30.86746987951807" y="121.27710843373494"/>
      <point x="125.97590361445785" y="-11.27710843373494"/>
    </contour>
    <contour>
      <point x="300.0" y="135.2289156626506" type="curve" smooth="yes"/>
      <point x="236.18072289156626" y="135.2289156626506"/>
      <point x="205.3132530120482" y="201.54216867469881"/>
      <point x="205.3132530120482" y="355.6385542168675" type="curve" smooth="yes"/>
      <point x="205.3132530120482" y="509.37349397590356"/>
      <point x="236.18072289156626" y="569.7710843373494"/>
      <point x="300.0" y="569.7710843373494" type="curve" smooth="yes"/>
      <point x="364.18072289156623" y="569.7710843373494"/>
      <point x="394.6867469879518" y="509.73493975903614"/>
      <point x="394.6867469879518" y="355.6385542168675" type="curve" smooth="yes"/>
      <point x="394.6867469879518" y="201.54216867469881"/>
      <point x="363.8192771084337" y="135.2289156626506"/>
    </contour>
  </outline>
</glyph>
<glyph name="one" format="2">
  <advance width="600.0"/>
  <unicode hex="0031"/>
  <outline>
    <contour>
      <point x="157.27710843373492" y="0.0" type="curve" smooth="yes"/>
      <point x="510.13253012048193" y="0.0" type="line" smooth="yes"/>
      <point x="559.1807228915663" y="0.0"/>
      <point x="586.2048192771084" y="26.662650602409638"/>
      <point x="586.2048192771084" y="75.07228915662651" type="curve" smooth="yes"/>
      <point x="586.2048192771084" y="123.12048192771084"/>
      <point x="559.1807228915663" y="149.42168674698794"/>
      <point x="510.13253012048193" y="149.42168674698794" type="curve" smooth="yes"/>
      <point x="430.48192771084337" y="149.42168674698794" type="line"/>
      <point x="430.48192771084337" y="638.4578313253012" type="line" smooth="yes"/>
      <point x="430.48192771084337" y="687.144578313253"/>
      <point x="400.5421686746988" y="714.277108433735"/>
      <point x="349.5542168674699" y="714.277108433735" type="curve" smooth="yes"/>
      <point x="315.69879518072287" y="714.277108433735"/>
      <point x="284.86746987951807" y="704.4698795180723"/>
      <point x="255.31325301204822" y="685.9156626506024" type="curve" smooth="yes"/>
      <point x="116.67469879518073" y="600.3614457831325" type="line" smooth="yes"/>
      <point x="27.771084337349407" y="545.7590361445783"/>
      <point x="97.65060240963857" y="414.4457831325301"/>
      <point x="186.19277108433735" y="469.04819277108436" type="curve" smooth="yes"/>
      <point x="331.2771084337349" y="558.0481927710844" type="line"/>
      <point x="246.92771084337346" y="558.0481927710844" type="line"/>
      <point x="246.92771084337346" y="149.42168674698794" type="line"/>
      <point x="157.27710843373492" y="149.42168674698794" type="line" smooth="yes"/>
      <point x="108.2289156626506" y="149.42168674698794"/>
      <point x="81.20481927710843" y="123.12048192771084"/>
      <point x="81.20481927710843" y="75.07228915662651" type="curve" smooth="yes"/>
      <point x="81.20481927710843" y="27.02409638554217"/>
      <point x="108.2289156626506" y="0.0"/>
    </contour>
  </outline>
</glyph>
<glyph name="two" format="2">
  <advance width="600.0"/>
  <unicode hex="0032"/>
  <outline>
    <contour>
      <point x="143.85542168674698" y="0.0" type="curve" smooth="yes"/>
      <point x="492.0602409638554" y="0.0" type="line" smooth="yes"/>
      <point x="541.4698795180723" y="0.0"/>
      <point x="568.132530120482" y="26.662650602409638"/>
      <point x="568.132530120482" y="75.07228915662651" type="curve" smooth="yes"/>
      <point x="568.132530120482" y="123.12048192771084"/>
      <point x="541.4698795180723" y="149.42168674698794"/>
      <point x="492.0602409638554" y="149.42168674698794" type="curve" smooth="yes"/>
      <point x="245.3132530120482" y="149.42168674698794" type="line"/>
      <point x="245.3132530120482" y="102.65060240963855" type="line"/>
      <point x="407.13253012048193" y="262.89156626506025" type="line" smooth="yes"/>
      <point x="497.96385542168673" y="351.9759036144578"/>
      <point x="533.1325301204819" y="424.6987951807229"/>
      <point x="533.1325301204819" y="510.33734939759034" type="curve" smooth="yes"/>
      <point x="533.1325301204819" y="642.722891566265"/>
      <point x="445.0240963855422" y="716.277108433735"/>
      <point x="281.89156626506025" y="716.277108433735" type="curve" smooth="yes"/>
      <point x="215.63855421686748" y="716.277108433735"/>
      <point x="147.66265060240963" y="701.6626506024096"/>
      <point x="87.46987951807229" y="668.7710843373494" type="curve" smooth="yes"/>
      <point x="-1.542168674698793" y="621.7469879518072"/>
      <point x="58.39759036144579" y="493.71084337349396"/>
      <point x="146.7710843373494" y="536.2650602409639" type="curve" smooth="yes"/>
      <point x="187.66265060240966" y="557.6867469879519"/>
      <point x="223.72289156626505" y="565.4939759036145"/>
      <point x="255.6746987951807" y="565.4939759036145" type="curve" smooth="yes"/>
      <point x="318.433734939759" y="565.4939759036145"/>
      <point x="353.13253012048193" y="539.433734939759"/>
      <point x="353.13253012048193" y="489.03614457831327" type="curve" smooth="yes"/>
      <point x="353.13253012048193" y="448.8072289156627"/>
      <point x="333.2409638554217" y="412.2168674698795"/>
      <point x="280.54216867469876" y="357.15662650602405" type="curve" smooth="yes"/>
      <point x="106.36144578313252" y="174.4457831325301" type="line" smooth="yes"/>
      <point x="78.25301204819277" y="145.33734939759034"/>
      <point x="60.506024096385545" y="118.3132530120482"/>
      <point x="60.506024096385545" y="81.26506024096386" type="curve" smooth="yes"/>
      <point x="60.506024096385545" y="27.662650602409638"/>
      <point x="85.53012048192772" y="0.0"/>
    </contour>
  </outline>
</glyph>
<glyph name="three" format="2">
  <advance width="600.0"/>
  <unicode hex="0033"/>
  <outline>
    <contour>
      <point x="278.9759036144578" y="-11.27710843373494" type="curve" smooth="yes"/>
      <point x="450.3855421686747" y="-11.27710843373494"/>
      <point x="555.0481927710844" y="67.36144578313252"/>
      <point x="555.0481927710844" y="196.19277108433735" type="curve" smooth="yes"/>
      <point x="555.0481927710844" y="290.55421686746985"/>
      <point x="499.04819277108436" y="357.5542168674699"/>
      <point x="405.6024096385542" y="372.91566265060237" type="curve"/>
      <point x="405.6024096385542" y="359.0" type="line"/>
      <point x="484.68674698795184" y="378.3614457831325"/>
      <point x="533.4096385542168" y="440.8072289156626"/>
      <point x="533.4096385542168" y="521.6144578313254" type="curve" smooth="yes"/>
      <point x="533.4096385542168" y="643.722891566265"/>
      <point x="440.3855421686747" y="716.277108433735"/>
      <point x="282.89156626506025" y="716.277108433735" type="curve" smooth="yes"/>
      <point x="215.91566265060243" y="716.277108433735"/>
      <point x="147.46987951807228" y="700.7469879518072"/>
      <point x="92.3855421686747" y="672.6867469879518" type="curve" smooth="yes"/>
      <point x="0.01204819277108271" y="628.4939759036145"/>
      <point x="59.03614457831325" y="500.6265060240964"/>
      <point x="145.57831325301203" y="537.6265060240963" type="curve" smooth="yes"/>
      <point x="190.5542168674699" y="558.4096385542169"/>
      <point x="228.27710843373492" y="565.4939759036145"/>
      <point x="264.86746987951807" y="565.4939759036145" type="curve" smooth="yes"/>
      <point x="325.9036144578313" y="565.4939759036145"/>
      <point x="358.3253012048193" y="542.0722891566265"/>
      <point x="358.3253012048193" y="497.67469879518075" type="curve" smooth="yes"/>
      <point x="358.3253012048193" y="452.10843373493975"/>
      <point x="322.81927710843377" y="427.51807228915663"/>
      <point x="266.3373493975904" y="427.51807228915663" type="curve" smooth="yes"/>
      <point x="230.30120481927713" y="427.51807228915663" type="line" smooth="yes"/>
      <point x="179.25301204819277" y="427.51807228915663"/>
      <point x="151.59036144578315" y="401.13253012048193"/>
      <point x="151.59036144578315" y="354.7228915662651" type="curve" smooth="yes"/>
      <point x="151.59036144578315" y="308.31325301204816"/>
      <point x="179.25301204819277" y="281.92771084337346"/>
      <point x="230.30120481927713" y="281.92771084337346" type="curve" smooth="yes"/>
      <point x="284.08433734939763" y="281.92771084337346" type="line" smooth="yes"/>
      <point x="346.73493975903614" y="281.92771084337346"/>
      <point x="379.96385542168673" y="260.7831325301205"/>
      <point x="379.96385542168673" y="213.57831325301206" type="curve" smooth="yes"/>
      <point x="379.96385542168673" y="164.3734939759036"/>
      <point x="343.8192771084337" y="139.50602409638554"/>
      <point x="272.4216867469879" y="139.50602409638554" type="curve" smooth="yes"/>
      <point x="230.9156626506024" y="139.50602409638554"/>
      <point x="190.85542168674698" y="146.67469879518072"/>
      <point x="141.6024096385542" y="168.3734939759036" type="curve" smooth="yes"/>
      <point x="43.506024096385545" y="209.56626506024097"/>
      <point x="-15.349397590361441" y="74.67469879518072"/>
      <point x="88.96385542168674" y="27.48192771084338" type="curve" smooth="yes"/>
      <point x="138.30120481927713" y="2.8915662650602414"/>
      <point x="210.16867469879517" y="-11.27710843373494"/>
    </contour>
  </outline>
</glyph>
<glyph name="four" format="2">
  <advance width="600.0"/>
  <unicode hex="0034"/>
  <outline>
    <contour>
      <point x="405.9759036144578" y="-9.27710843373494" type="curve" smooth="yes"/>
      <point x="462.5783132530121" y="-9.27710843373494"/>
      <point x="494.2409638554217" y="23.301204819277107"/>
      <point x="494.2409638554217" y="81.54216867469879" type="curve" smooth="yes"/>
      <point x="494.2409638554217" y="118.03614457831326" type="line"/>
      <point x="518.3373493975904" y="118.03614457831326" type="line" smooth="yes"/>
      <point x="568.4698795180723" y="118.03614457831326"/>
      <point x="594.855421686747" y="142.42168674698794"/>
      <point x="594.855421686747" y="187.63855421686748" type="curve" smooth="yes"/>
      <point x="594.855421686747" y="232.85542168674698"/>
      <point x="567.8313253012049" y="257.2409638554217"/>
      <point x="518.3373493975904" y="257.2409638554217" type="curve" smooth="yes"/>
      <point x="494.2409638554217" y="257.2409638554217" type="line"/>
      <point x="494.2409638554217" y="623.4578313253012" type="line" smooth="yes"/>
      <point x="494.2409638554217" y="683.4216867469879"/>
      <point x="462.855421686747" y="714.277108433735"/>
      <point x="411.89156626506025" y="714.277108433735" type="curve" smooth="yes"/>
      <point x="365.92771084337346" y="714.277108433735"/>
      <point x="335.3493975903615" y="696.0843373493976"/>
      <point x="308.0481927710843" y="655.9518072289156" type="curve" smooth="yes"/>
      <point x="64.06024096385542" y="300.4578313253012" type="line" smooth="yes"/>
      <point x="33.78313253012048" y="256.5421686746988"/>
      <point x="22.506024096385545" y="230.0722891566265"/>
      <point x="22.506024096385545" y="198.49397590361446" type="curve" smooth="yes"/>
      <point x="22.506024096385545" y="144.6144578313253"/>
      <point x="57.807228915662655" y="118.03614457831326"/>
      <point x="116.04819277108435" y="118.03614457831326" type="curve" smooth="yes"/>
      <point x="317.0722891566265" y="118.03614457831326" type="line"/>
      <point x="317.0722891566265" y="81.54216867469879" type="line" smooth="yes"/>
      <point x="317.0722891566265" y="22.662650602409638"/>
      <point x="349.3734939759036" y="-9.27710843373494"/>
    </contour>
    <contour>
      <point x="317.0722891566265" y="257.2409638554217" type="line"/>
      <point x="156.6867469879518" y="257.2409638554217" type="line"/>
      <point x="156.6867469879518" y="213.66265060240966" type="line"/>
      <point x="344.7951807228916" y="493.25301204819283" type="line"/>
      <point x="317.0722891566265" y="493.25301204819283" type="line"/>
    </contour>
  </outline>
</glyph>
<glyph name="five" format="2">
  <advance width="600.0"/>
  <unicode hex="0035"/>
  <outline>
    <contour>
      <point x="295.144578313253" y="-11.27710843373494" type="curve" smooth="yes"/>
      <point x="466.55421686746985" y="-11.27710843373494"/>
      <point x="572.8554216867469" y="84.0"/>
      <point x="572.8554216867469" y="229.38554216867468" type="curve" smooth="yes"/>
      <point x="572.8554216867469" y="364.6626506024096"/>
      <point x="481.0240963855422" y="455.6626506024096"/>
      <point x="346.7469879518072" y="455.6626506024096" type="curve" smooth="yes"/>
      <point x="285.7710843373494" y="455.6626506024096"/>
      <point x="231.1566265060241" y="435.4096385542169"/>
      <point x="199.07228915662648" y="399.26506024096386" type="curve"/>
      <point x="241.01204819277106" y="399.26506024096386" type="line"/>
      <point x="241.01204819277106" y="555.5783132530121" type="line"/>
      <point x="459.50602409638554" y="555.5783132530121" type="line" smooth="yes"/>
      <point x="509.5542168674699" y="555.5783132530121"/>
      <point x="537.2168674698795" y="582.2409638554218"/>
      <point x="537.2168674698795" y="630.289156626506" type="curve" smooth="yes"/>
      <point x="537.2168674698795" y="678.3373493975903"/>
      <point x="509.5542168674699" y="705.0"/>
      <point x="459.50602409638554" y="705.0" type="curve" smooth="yes"/>
      <point x="145.83132530120483" y="705.0" type="line" smooth="yes"/>
      <point x="95.78313253012048" y="705.0"/>
      <point x="68.12048192771084" y="677.3373493975903"/>
      <point x="68.12048192771084" y="627.289156626506" type="curve" smooth="yes"/>
      <point x="68.12048192771084" y="325.1927710843374" type="line" smooth="yes"/>
      <point x="68.12048192771084" y="283.3373493975904"/>
      <point x="90.2289156626506" y="260.2289156626506"/>
      <point x="138.27710843373495" y="260.2289156626506" type="curve" smooth="yes"/>
      <point x="164.3855421686747" y="260.2289156626506"/>
      <point x="191.40963855421688" y="272.22891566265065"/>
      <point x="207.24096385542168" y="281.3132530120482" type="curve" smooth="yes"/>
      <point x="240.13253012048193" y="302.90361445783134"/>
      <point x="272.4698795180723" y="309.79518072289153"/>
      <point x="298.86746987951807" y="309.79518072289153" type="curve" smooth="yes"/>
      <point x="359.34939759036143" y="309.79518072289153"/>
      <point x="397.7710843373494" y="276.6746987951807"/>
      <point x="397.7710843373494" y="223.74698795180723" type="curve" smooth="yes"/>
      <point x="397.7710843373494" y="171.18072289156626"/>
      <point x="358.6265060240964" y="139.50602409638554"/>
      <point x="291.2289156626506" y="139.50602409638554" type="curve" smooth="yes"/>
      <point x="249.19277108433735" y="139.50602409638554"/>
      <point x="200.19277108433735" y="150.03614457831327"/>
      <point x="156.30120481927713" y="172.289156626506" type="curve" smooth="yes"/>
      <point x="64.12048192771084" y="217.3132530120482"/>
      <point x="4.265060240963848" y="80.97590361445783"/>
      <point x="96.36144578313254" y="34.2289156626506" type="curve" smooth="yes"/>
      <point x="155.44578313253012" y="2.8915662650602414"/>
      <point x="230.53012048192772" y="-11.27710843373494"/>
    </contour>
  </outline>
</glyph>
<glyph name="six" format="2">
  <advance width="600.0"/>
  <unicode hex="0036"/>
  <outline>
    <contour>
      <point x="327.91566265060237" y="-11.27710843373494" type="curve" smooth="yes"/>
      <point x="471.30120481927713" y="-11.27710843373494"/>
      <point x="571.7710843373494" y="90.91566265060241"/>
      <point x="571.7710843373494" y="233.66265060240966" type="curve" smooth="yes"/>
      <point x="571.7710843373494" y="365.9397590361446"/>
      <point x="483.13253012048193" y="463.49397590361446"/>
      <point x="367.2409638554217" y="463.49397590361446" type="curve" smooth="yes"/>
      <point x="279.4578313253012" y="463.49397590361446"/>
      <point x="212.12048192771084" y="412.34939759036143"/>
      <point x="194.56626506024094" y="326.6746987951807" type="curve"/>
      <point x="209.75903614457832" y="326.6746987951807" type="line"/>
      <point x="209.75903614457832" y="379.3253012048193" type="line" smooth="yes"/>
      <point x="209.75903614457832" y="502.6506024096386"/>
      <point x="260.6265060240964" y="565.4939759036145"/>
      <point x="360.0240963855422" y="565.4939759036145" type="curve" smooth="yes"/>
      <point x="391.72289156626505" y="565.4939759036145"/>
      <point x="426.2530120481928" y="559.0481927710844"/>
      <point x="465.50602409638554" y="540.9879518072289" type="curve" smooth="yes"/>
      <point x="558.8795180722891" y="501.71084337349396"/>
      <point x="603.710843373494" y="636.855421686747"/>
      <point x="524.8915662650603" y="675.6867469879518" type="curve" smooth="yes"/>
      <point x="475.0843373493976" y="702.1084337349398"/>
      <point x="416.83132530120486" y="716.277108433735"/>
      <point x="362.0240963855422" y="716.277108433735" type="curve" smooth="yes"/>
      <point x="159.25301204819277" y="716.277108433735"/>
      <point x="37.951807228915655" y="579.0"/>
      <point x="37.951807228915655" y="345.7469879518072" type="curve" smooth="yes"/>
      <point x="37.951807228915655" y="118.63855421686746"/>
      <point x="142.69879518072287" y="-11.27710843373494"/>
    </contour>
    <contour>
      <point x="318.3614457831325" y="129.03614457831327" type="curve" smooth="yes"/>
      <point x="266.7951807228916" y="129.03614457831327"/>
      <point x="232.48192771084337" y="167.6265060240964"/>
      <point x="232.48192771084337" y="226.10843373493975" type="curve" smooth="yes"/>
      <point x="232.48192771084337" y="284.5903614457832"/>
      <point x="266.7951807228916" y="323.54216867469876"/>
      <point x="318.3614457831325" y="323.54216867469876" type="curve" smooth="yes"/>
      <point x="369.92771084337346" y="323.54216867469876"/>
      <point x="404.2409638554217" y="284.5903614457832"/>
      <point x="404.2409638554217" y="226.10843373493975" type="curve" smooth="yes"/>
      <point x="404.2409638554217" y="167.6265060240964"/>
      <point x="369.92771084337346" y="129.03614457831327"/>
    </contour>
  </outline>
</glyph>
<glyph name="seven" format="2">
  <advance width="600.0"/>
  <unicode hex="0037"/>
  <outline>
    <contour>
      <point x="177.10843373493975" y="-9.27710843373494" type="curve" smooth="yes"/>
      <point x="228.43373493975903" y="-9.27710843373494"/>
      <point x="259.3734939759036" y="8.192771084337348"/>
      <point x="281.3975903614458" y="48.68674698795181" type="curve" smooth="yes"/>
      <point x="536.6626506024097" y="522.722891566265" type="line" smooth="yes"/>
      <point x="555.4096385542168" y="557.9397590361446"/>
      <point x="569.5180722891566" y="585.2409638554217"/>
      <point x="569.5180722891566" y="628.0120481927711" type="curve" smooth="yes"/>
      <point x="569.5180722891566" y="676.6987951807229"/>
      <point x="533.6626506024096" y="705.0"/>
      <point x="483.6144578313253" y="705.0" type="curve" smooth="yes"/>
      <point x="108.10843373493975" y="705.0" type="line" smooth="yes"/>
      <point x="58.06024096385542" y="705.0"/>
      <point x="30.397590361445786" y="678.9759036144578"/>
      <point x="30.397590361445786" y="629.9277108433736" type="curve" smooth="yes"/>
      <point x="30.397590361445786" y="581.2409638554217"/>
      <point x="58.06024096385542" y="555.2168674698795"/>
      <point x="108.10843373493975" y="555.2168674698795" type="curve" smooth="yes"/>
      <point x="388.68674698795184" y="555.2168674698795" type="line"/>
      <point x="388.68674698795184" y="608.156626506024" type="line"/>
      <point x="112.22891566265059" y="105.28915662650601" type="line" smooth="yes"/>
      <point x="77.37349397590361" y="42.04819277108434"/>
      <point x="107.75903614457832" y="-9.27710843373494"/>
    </contour>
  </outline>
</glyph>
<glyph name="eight" format="2">
  <advance width="600.0"/>
  <unicode hex="0038"/>
  <outline>
    <contour>
      <point x="300.0" y="-11.27710843373494" type="curve" smooth="yes"/>
      <point x="471.0240963855422" y="-11.27710843373494"/>
      <point x="574.7710843373494" y="65.27710843373494"/>
      <point x="574.7710843373494" y="193.19277108433735" type="curve" smooth="yes"/>
      <point x="574.7710843373494" y="291.83132530120486"/>
      <point x="510.13253012048193" y="362.4698795180723"/>
      <point x="419.68674698795184" y="376.10843373493975" type="curve"/>
      <point x="419.68674698795184" y="348.44578313253015" type="line"/>
      <point x="499.855421686747" y="361.5301204819277"/>
      <point x="556.4939759036145" y="431.5301204819277"/>
      <point x="556.4939759036145" y="523.0843373493976" type="curve" smooth="yes"/>
      <point x="556.4939759036145" y="643.3614457831326"/>
      <point x="457.6626506024096" y="716.277108433735"/>
      <point x="300.0" y="716.277108433735" type="curve" smooth="yes"/>
      <point x="142.69879518072287" y="716.277108433735"/>
      <point x="43.86746987951807" y="643.3614457831326"/>
      <point x="43.86746987951807" y="523.0843373493976" type="curve" smooth="yes"/>
      <point x="43.86746987951807" y="433.16867469879514"/>
      <point x="100.50602409638554" y="364.16867469879514"/>
      <point x="183.59036144578312" y="346.8072289156627" type="curve"/>
      <point x="183.59036144578312" y="376.10843373493975" type="line"/>
      <point x="91.86746987951807" y="364.7469879518072"/>
      <point x="25.2289156626506" y="294.10843373493975"/>
      <point x="25.2289156626506" y="193.19277108433735" type="curve" smooth="yes"/>
      <point x="25.2289156626506" y="65.27710843373494"/>
      <point x="128.97590361445785" y="-11.27710843373494"/>
    </contour>
    <contour>
      <point x="300.0" y="127.03614457831324" type="curve" smooth="yes"/>
      <point x="229.9879518072289" y="127.03614457831324"/>
      <point x="191.48192771084337" y="155.09638554216866"/>
      <point x="191.48192771084337" y="207.3012048192771" type="curve" smooth="yes"/>
      <point x="191.48192771084337" y="259.50602409638554"/>
      <point x="229.9879518072289" y="287.20481927710847"/>
      <point x="300.0" y="287.20481927710847" type="curve" smooth="yes"/>
      <point x="370.3734939759036" y="287.20481927710847"/>
      <point x="408.51807228915663" y="259.50602409638554"/>
      <point x="408.51807228915663" y="207.3012048192771" type="curve" smooth="yes"/>
      <point x="408.51807228915663" y="155.09638554216866"/>
      <point x="370.3734939759036" y="127.03614457831324"/>
    </contour>
    <contour>
      <point x="300.0" y="425.51807228915663" type="curve" smooth="yes"/>
      <point x="243.34939759036146" y="425.51807228915663"/>
      <point x="210.75903614457832" y="455.30120481927713"/>
      <point x="210.75903614457832" y="502.4216867469879" type="curve" smooth="yes"/>
      <point x="210.75903614457832" y="548.5421686746988"/>
      <point x="243.34939759036146" y="577.9638554216867"/>
      <point x="300.0" y="577.9638554216867" type="curve" smooth="yes"/>
      <point x="356.65060240963857" y="577.9638554216867"/>
      <point x="389.6024096385542" y="548.5421686746988"/>
      <point x="389.6024096385542" y="502.4216867469879" type="curve" smooth="yes"/>
      <point x="389.6024096385542" y="455.30120481927713"/>
      <point x="356.65060240963857" y="425.51807228915663"/>
    </contour>
  </outline>
</glyph>
<glyph name="nine" format="2">
  <advance width="600.0"/>
  <unicode hex="0039"/>
  <outline>
    <contour>
      <point x="237.97590361445782" y="-11.27710843373494" type="curve" smooth="yes"/>
      <point x="440.7469879518072" y="-11.27710843373494"/>
      <point x="562.0481927710844" y="126.0"/>
      <point x="562.0481927710844" y="359.2530120481928" type="curve" smooth="yes"/>
      <point x="562.0481927710844" y="586.3614457831325"/>
      <point x="457.3012048192771" y="716.277108433735"/>
      <point x="272.08433734939763" y="716.277108433735" type="curve" smooth="yes"/>
      <point x="128.6987951807229" y="716.277108433735"/>
      <point x="28.2289156626506" y="614.0843373493976"/>
      <point x="28.2289156626506" y="471.3373493975904" type="curve" smooth="yes"/>
      <point x="28.2289156626506" y="339.0602409638554"/>
      <point x="116.86746987951808" y="241.50602409638554"/>
      <point x="232.75903614457832" y="241.50602409638554" type="curve" smooth="yes"/>
      <point x="320.5421686746988" y="241.50602409638554"/>
      <point x="387.87951807228916" y="292.65060240963857"/>
      <point x="405.433734939759" y="378.3253012048193" type="curve"/>
      <point x="390.2409638554217" y="378.3253012048193" type="line"/>
      <point x="390.2409638554217" y="325.6746987951807" type="line" smooth="yes"/>
      <point x="390.2409638554217" y="202.34939759036146"/>
      <point x="339.3734939759036" y="139.50602409638554"/>
      <point x="239.97590361445785" y="139.50602409638554" type="curve" smooth="yes"/>
      <point x="208.27710843373492" y="139.50602409638554"/>
      <point x="173.74698795180723" y="145.95180722891564"/>
      <point x="134.49397590361446" y="164.0120481927711" type="curve" smooth="yes"/>
      <point x="41.120481927710856" y="203.289156626506"/>
      <point x="-3.7108433734939723" y="68.14457831325302"/>
      <point x="75.10843373493977" y="29.313253012048193" type="curve" smooth="yes"/>
      <point x="124.9156626506024" y="2.8915662650602414"/>
      <point x="183.1686746987952" y="-11.27710843373494"/>
    </contour>
    <contour>
      <point x="282.0" y="381.81927710843377" type="curve" smooth="yes"/>
      <point x="230.43373493975903" y="381.81927710843377"/>
      <point x="196.12048192771084" y="420.77108433734935"/>
      <point x="196.12048192771084" y="479.2530120481928" type="curve" smooth="yes"/>
      <point x="196.12048192771084" y="537.7349397590361"/>
      <point x="230.43373493975903" y="576.3253012048193"/>
      <point x="282.0" y="576.3253012048193" type="curve" smooth="yes"/>
      <point x="333.566265060241" y="576.3253012048193"/>
      <point x="367.87951807228916" y="537.7349397590361"/>
      <point x="367.87951807228916" y="479.2530120481928" type="curve" smooth="yes"/>
      <point x="367.87951807228916" y="420.77108433734935"/>
      <point x="333.566265060241" y="381.81927710843377"/>
    </contour>
  </outline>
</glyph>
<glyph name="colon" format="2">
  <advance width="271.6265060240964"/>
  <unicode hex="003A"/>
  <outline>
    <contour>
      <point x="136.49397590361446" y="-5.63855421686747" type="curve" smooth="yes"/>
      <point x="197.8192771084337" y="-5.63855421686747"/>
      <point x="234.12048192771084" y="34.3012048192771"/>
      <point x="234.12048192771084" y="91.71084337349397" type="curve" smooth="yes"/>
      <point x="234.12048192771084" y="148.75903614457832"/>
      <point x="197.8192771084337" y="187.69879518072287"/>
      <point x="136.49397590361446" y="187.69879518072287" type="curve" smooth="yes"/>
      <point x="75.16867469879519" y="187.69879518072287"/>
      <point x="37.86746987951807" y="148.75903614457832"/>
      <point x="37.86746987951807" y="91.71084337349397" type="curve" smooth="yes"/>
      <point x="37.86746987951807" y="34.3012048192771"/>
      <point x="75.16867469879519" y="-5.63855421686747"/>
    </contour>
    <contour>
      <point x="136.49397590361446" y="304.49397590361446" type="curve" smooth="yes"/>
      <point x="197.8192771084337" y="304.49397590361446"/>
      <point x="234.12048192771084" y="344.433734939759"/>
      <point x="234.12048192771084" y="401.48192771084337" type="curve" smooth="yes"/>
      <point x="234.12048192771084" y="458.89156626506025"/>
      <point x="197.8192771084337" y="497.83132530120486"/>
      <point x="136.49397590361446" y="497.83132530120486" type="curve" smooth="yes"/>
      <point x="75.16867469879519" y="497.83132530120486"/>
      <point x="37.86746987951807" y="458.89156626506025"/>
      <point x="37.86746987951807" y="401.48192771084337" type="curve" smooth="yes"/>
      <point x="37.86746987951807" y="344.433734939759"/>
      <point x="75.16867469879519" y="304.49397590361446"/>
    </contour>
  </outline>
</glyph>
<glyph name="less" format="2">
  <advance width="600.0"/>
  <unicode hex="003C"/>
  <outline>
    <contour>
      <point x="479.48192771084337" y="54.91566265060241" type="line" smooth="yes"/>
      <point x="556.9156626506025" y="25.16867469879518"/>
      <point x="596.4939759036145" y="139.45783132530119"/>
      <point x="521.0602409638553" y="168.2048192771084" type="curve" smooth="yes"/>
      <point x="99.74698795180723" y="330.13253012048193" type="line"/>
      <point x="99.74698795180723" y="243.22891566265062" type="line"/>
      <point x="521.0602409638553" y="405.15662650602405" type="line" smooth="yes"/>
      <point x="596.4939759036145" y="433.9036144578313"/>
      <point x="556.9156626506025" y="549.1927710843373"/>
      <point x="479.48192771084337" y="519.4457831325302" type="curve" smooth="yes"/>
      <point x="110.13253012048193" y="374.34939759036143" type="line" smooth="yes"/>
      <point x="68.27710843373494" y="358.15662650602405"/>
      <point x="48.16867469879518" y="330.13253012048193"/>
      <point x="48.16867469879518" y="288.0" type="curve" smooth="yes"/>
      <point x="48.16867469879518" y="245.50602409638554"/>
      <point x="68.27710843373494" y="216.48192771084337"/>
      <point x="110.13253012048193" y="200.28915662650604" type="curve" smooth="yes"/>
    </contour>
  </outline>
</glyph>
<glyph name="equal" format="2">
  <advance width="600.0"/>
  <unicode hex="003D"/>
  <outline>
    <contour>
      <point x="107.04819277108435" y="327.6746987951807" type="curve" smooth="yes"/>
      <point x="492.9518072289157" y="327.6746987951807" type="line" smooth="yes"/>
      <point x="531.5301204819277" y="327.6746987951807"/>
      <point x="553.277108433735" y="348.78313253012044"/>
      <point x="553.277108433735" y="387.0" type="curve" smooth="yes"/>
      <point x="553.277108433735" y="425.2168674698795"/>
      <point x="531.5301204819277" y="446.3253012048193"/>
      <point x="492.9518072289157" y="446.3253012048193" type="curve" smooth="yes"/>
      <point x="107.04819277108435" y="446.3253012048193" type="line" smooth="yes"/>
      <point x="68.83132530120481" y="446.3253012048193"/>
      <point x="46.72289156626506" y="425.2168674698795"/>
      <point x="46.72289156626506" y="387.0" type="curve" smooth="yes"/>
      <point x="46.72289156626506" y="348.7831325301205"/>
      <point x="68.83132530120481" y="327.6746987951807"/>
    </contour>
    <contour>
      <point x="107.04819277108435" y="128.03614457831327" type="curve" smooth="yes"/>
      <point x="492.9518072289157" y="128.03614457831327" type="line" smooth="yes"/>
      <point x="531.5301204819277" y="128.03614457831327"/>
      <point x="553.277108433735" y="148.78313253012047"/>
      <point x="553.277108433735" y="187.36144578313252" type="curve" smooth="yes"/>
      <point x="553.277108433735" y="225.57831325301206"/>
      <point x="531.5301204819277" y="246.32530120481925"/>
      <point x="492.9518072289157" y="246.32530120481925" type="curve" smooth="yes"/>
      <point x="107.04819277108435" y="246.32530120481925" type="line" smooth="yes"/>
      <point x="68.83132530120481" y="246.32530120481925"/>
      <point x="46.72289156626506" y="225.57831325301206"/>
      <point x="46.72289156626506" y="187.36144578313252" type="curve" smooth="yes"/>
      <point x="46.72289156626506" y="149.144578313253"/>
      <point x="68.83132530120481" y="128.03614457831327"/>
    </contour>
  </outline>
</glyph>
<glyph name="greater" format="2">
  <advance width="600.0"/>
  <unicode hex="003E"/>
  <outline>
    <contour>
      <point x="120.87951807228916" y="54.91566265060241" type="curve" smooth="yes"/>
      <point x="490.2289156626506" y="200.28915662650604" type="line" smooth="yes"/>
      <point x="532.0843373493975" y="216.48192771084337"/>
      <point x="552.1927710843373" y="245.50602409638554"/>
      <point x="552.1927710843373" y="288.0" type="curve" smooth="yes"/>
      <point x="552.1927710843373" y="330.13253012048193"/>
      <point x="532.0843373493975" y="358.15662650602405"/>
      <point x="490.2289156626506" y="374.34939759036143" type="curve" smooth="yes"/>
      <point x="120.87951807228916" y="519.4457831325302" type="line" smooth="yes"/>
      <point x="43.44578313253012" y="549.1927710843373"/>
      <point x="3.8674698795180724" y="433.9036144578313"/>
      <point x="79.3012048192771" y="405.15662650602405" type="curve" smooth="yes"/>
      <point x="500.6144578313253" y="243.22891566265062" type="line"/>
      <point x="500.6144578313253" y="330.13253012048193" type="line"/>
      <point x="79.3012048192771" y="168.2048192771084" type="line" smooth="yes"/>
      <point x="3.8674698795180724" y="139.45783132530119"/>
      <point x="43.44578313253012" y="25.16867469879518"/>
    </contour>
  </outline>
</glyph>
<glyph name="question" format="2">
  <advance width="478.15662650602405"/>
  <unicode hex="003F"/>
  <outline>
    <contour>
      <point x="239.6024096385542" y="232.73493975903614" type="curve" smooth="yes"/>
      <point x="273.18072289156623" y="232.73493975903614"/>
      <point x="289.09638554216866" y="248.289156626506"/>
      <point x="294.92771084337346" y="270.48192771084337" type="curve" smooth="yes"/>
      <point x="303.48192771084337" y="305.9879518072289"/>
      <point x="316.73493975903614" y="333.04819277108436"/>
      <point x="379.09638554216866" y="379.1927710843374" type="curve" smooth="yes"/>
      <point x="449.3734939759036" y="431.3373493975904"/>
      <point x="473.3734939759036" y="479.3373493975904"/>
      <point x="473.3734939759036" y="540.0602409638554" type="curve" smooth="yes"/>
      <point x="473.3734939759036" y="644.8072289156627"/>
      <point x="379.43373493975906" y="716.277108433735"/>
      <point x="240.66265060240966" y="716.277108433735" type="curve" smooth="yes"/>
      <point x="187.87951807228916" y="716.277108433735"/>
      <point x="122.37349397590361" y="703.9397590361446"/>
      <point x="67.73493975903614" y="676.8795180722891" type="curve" smooth="yes"/>
      <point x="-37.024096385542165" y="628.3253012048193"/>
      <point x="13.361445783132531" y="486.04819277108436"/>
      <point x="112.54216867469879" y="536.9879518072289" type="curve" smooth="yes"/>
      <point x="148.24096385542168" y="555.6024096385541"/>
      <point x="184.77108433734938" y="565.4939759036145"/>
      <point x="226.91566265060243" y="565.4939759036145" type="curve" smooth="yes"/>
      <point x="270.2289156626506" y="565.4939759036145"/>
      <point x="293.3734939759036" y="548.0722891566265"/>
      <point x="293.3734939759036" y="518.1204819277109" type="curve" smooth="yes"/>
      <point x="293.3734939759036" y="493.2530120481928"/>
      <point x="281.566265060241" y="473.1927710843374"/>
      <point x="249.78313253012047" y="439.6024096385542" type="curve" smooth="yes"/>
      <point x="202.72289156626508" y="390.6506024096385"/>
      <point x="184.27710843373492" y="347.39759036144574"/>
      <point x="184.27710843373492" y="295.3373493975904" type="curve" smooth="yes"/>
      <point x="184.27710843373492" y="257.12048192771084"/>
      <point x="205.02409638554215" y="232.73493975903614"/>
    </contour>
    <contour>
      <point x="236.96385542168676" y="-5.63855421686747" type="curve" smooth="yes"/>
      <point x="298.28915662650604" y="-5.63855421686747"/>
      <point x="334.5903614457832" y="34.3012048192771"/>
      <point x="334.5903614457832" y="91.71084337349397" type="curve" smooth="yes"/>
      <point x="334.5903614457832" y="148.75903614457832"/>
      <point x="298.28915662650604" y="187.69879518072287"/>
      <point x="236.96385542168676" y="187.69879518072287" type="curve" smooth="yes"/>
      <point x="175.63855421686748" y="187.69879518072287"/>
      <point x="138.33734939759034" y="148.75903614457832"/>
      <point x="138.33734939759034" y="91.71084337349397" type="curve" smooth="yes"/>
      <point x="138.33734939759034" y="34.3012048192771"/>
      <point x="175.63855421686748" y="-5.63855421686747"/>
    </contour>
  </outline>
</glyph>
<glyph name="at" format="2">
  <advance width="954.4698795180723"/>
  <unicode hex="0040"/>
  <outline>
    <contour>
      <point x="487.27710843373495" y="-166.91566265060243" type="curve" smooth="yes"/>
      <point x="581.2289156626506" y="-166.91566265060243"/>
      <point x="663.2048192771084" y="-146.21686746987953"/>
      <point x="722.2891566265059" y="-113.0722891566265" type="curve" smooth="yes"/>
      <point x="785.8915662650603" y="-79.07228915662651"/>
      <point x="753.5542168674699" y="16.57831325301205"/>
      <point x="684.7590361445783" y="-18.698795180722893" type="curve" smooth="yes"/>
      <point x="628.6746987951807" y="-49.12048192771084"/>
      <point x="563.1445783132531" y="-65.65060240963857"/>
      <point x="487.27710843373495" y="-65.65060240963857" type="curve" smooth="yes"/>
      <point x="288.4096385542168" y="-65.65060240963857"/>
      <point x="161.43373493975903" y="58.13253012048193"/>
      <point x="161.43373493975903" y="261.6144578313253" type="curve" smooth="yes"/>
      <point x="161.43373493975903" y="479.5903614457832"/>
      <point x="296.13253012048193" y="615.0120481927711"/>
      <point x="507.7469879518072" y="615.0120481927711" type="curve" smooth="yes"/>
      <point x="698.277108433735" y="615.0120481927711"/>
      <point x="805.867469879518" y="519.3373493975903"/>
      <point x="805.867469879518" y="338.8072289156627" type="curve" smooth="yes"/>
      <point x="805.867469879518" y="230.40963855421688"/>
      <point x="769.1686746987951" y="156.6265060240964"/>
      <point x="718.8554216867469" y="156.6265060240964" type="curve" smooth="yes"/>
      <point x="690.8795180722892" y="156.6265060240964"/>
      <point x="677.0722891566264" y="171.79518072289156"/>
      <point x="677.0722891566264" y="209.96385542168676" type="curve" smooth="yes"/>
      <point x="677.0722891566264" y="225.87951807228916"/>
      <point x="679.710843373494" y="246.43373493975903"/>
      <point x="684.3493975903614" y="272.9036144578313" type="curve" smooth="yes"/>
      <point x="711.3253012048193" y="425.03614457831327" type="line" smooth="yes"/>
      <point x="719.2409638554218" y="468.2530120481928"/>
      <point x="698.132530120482" y="493.27710843373495"/>
      <point x="655.6385542168675" y="493.27710843373495" type="curve" smooth="yes"/>
      <point x="617.4216867469879" y="493.27710843373495"/>
      <point x="593.9518072289156" y="475.8072289156626"/>
      <point x="586.3975903614459" y="436.86746987951807" type="curve" smooth="yes"/>
      <point x="579.3132530120482" y="398.83132530120486" type="line"/>
      <point x="603.3373493975903" y="398.83132530120486" type="line"/>
      <point x="584.7831325301205" y="469.3855421686747"/>
      <point x="541.3373493975903" y="503.4698795180723"/>
      <point x="471.6144578313253" y="503.4698795180723" type="curve" smooth="yes"/>
      <point x="348.2530120481928" y="503.4698795180723"/>
      <point x="260.16867469879514" y="397.10843373493975"/>
      <point x="260.16867469879514" y="252.3855421686747" type="curve" smooth="yes"/>
      <point x="260.16867469879514" y="133.19277108433735"/>
      <point x="323.72289156626505" y="58.36144578313253"/>
      <point x="434.5542168674699" y="58.36144578313253" type="curve" smooth="yes"/>
      <point x="512.3012048192771" y="58.36144578313253"/>
      <point x="576.6626506024097" y="108.83132530120483"/>
      <point x="609.3855421686746" y="213.24096385542168" type="curve"/>
      <point x="564.3373493975903" y="184.0843373493976" type="line"/>
      <point x="575.9156626506024" y="103.44578313253012"/>
      <point x="627.3855421686748" y="58.36144578313253"/>
      <point x="710.3012048192771" y="58.36144578313253" type="curve" smooth="yes"/>
      <point x="828.8554216867469" y="58.36144578313253"/>
      <point x="908.7710843373494" y="167.08433734939757"/>
      <point x="908.7710843373494" y="338.8072289156627" type="curve" smooth="yes"/>
      <point x="908.7710843373494" y="568.9156626506025"/>
      <point x="751.132530120482" y="716.277108433735"/>
      <point x="508.10843373493975" y="716.277108433735" type="curve" smooth="yes"/>
      <point x="229.25301204819277" y="716.277108433735"/>
      <point x="45.6987951807229" y="537.277108433735"/>
      <point x="45.6987951807229" y="261.6144578313253" type="curve" smooth="yes"/>
      <point x="45.6987951807229" y="7.63855421686747"/>
      <point x="227.0843373493976" y="-166.91566265060243"/>
    </contour>
    <contour>
      <point x="463.4096385542168" y="163.54216867469881" type="curve" smooth="yes"/>
      <point x="418.9036144578313" y="163.54216867469881"/>
      <point x="393.9277108433735" y="194.5180722891566"/>
      <point x="393.9277108433735" y="254.02409638554215" type="curve" smooth="yes"/>
      <point x="393.9277108433735" y="339.6987951807229"/>
      <point x="435.51807228915663" y="396.6506024096385"/>
      <point x="497.83132530120486" y="396.6506024096385" type="curve" smooth="yes"/>
      <point x="544.0602409638554" y="396.6506024096385"/>
      <point x="564.6746987951807" y="368.7590361445783"/>
      <point x="564.6746987951807" y="318.16867469879514" type="curve" smooth="yes"/>
      <point x="564.6746987951807" y="223.85542168674698"/>
      <point x="524.0843373493976" y="163.54216867469881"/>
    </contour>
  </outline>
</glyph>
<glyph name="A" format="2">
  <advance width="762.5180722891566"/>
  <unicode hex="0041"/>
  <anchor x="381.9397590361446" y="0.0" name="bottom"/>
  <anchor x="718.0481927710844" y="0.0" name="ogonek"/>
  <anchor x="381.30120481927713" y="705.0" name="top"/>
  <outline>
    <contour>
      <point x="97.40963855421687" y="-9.27710843373494" type="curve" smooth="yes"/>
      <point x="148.65060240963857" y="-9.27710843373494"/>
      <point x="168.48192771084337" y="13.108433734939759"/>
      <point x="191.86746987951807" y="67.43373493975903" type="curve" smooth="yes"/>
      <point x="245.65060240963854" y="193.53012048192772" type="line"/>
      <point x="175.04819277108433" y="142.56626506024097" type="line"/>
      <point x="587.4698795180723" y="142.56626506024097" type="line"/>
      <point x="516.867469879518" y="193.53012048192772" type="line"/>
      <point x="571.0120481927711" y="67.43373493975903" type="line" smooth="yes"/>
      <point x="594.0361445783133" y="13.831325301204817"/>
      <point x="617.7831325301205" y="-9.27710843373494"/>
      <point x="670.7469879518072" y="-9.27710843373494" type="curve" smooth="yes"/>
      <point x="731.710843373494" y="-9.27710843373494"/>
      <point x="765.843373493976" y="37.21686746987952"/>
      <point x="735.2650602409639" y="103.37349397590361" type="curve" smooth="yes"/>
      <point x="485.5903614457832" y="639.2048192771084" type="line" smooth="yes"/>
      <point x="461.566265060241" y="691.2530120481928"/>
      <point x="426.9879518072289" y="714.277108433735"/>
      <point x="381.9397590361446" y="714.277108433735" type="curve" smooth="yes"/>
      <point x="335.89156626506025" y="714.277108433735"/>
      <point x="301.3132530120482" y="691.2530120481928"/>
      <point x="277.289156626506" y="639.2048192771084" type="curve" smooth="yes"/>
      <point x="27.975903614457827" y="103.37349397590361" type="line" smooth="yes"/>
      <point x="-1.9638554216867448" y="39.493975903614455"/>
      <point x="33.807228915662655" y="-9.27710843373494"/>
    </contour>
    <contour>
      <point x="379.9397590361446" y="513.0" type="line"/>
      <point x="381.9397590361446" y="513.0" type="line"/>
      <point x="498.67469879518075" y="236.19277108433735" type="line"/>
      <point x="526.867469879518" y="284.1566265060241" type="line"/>
      <point x="235.65060240963857" y="284.1566265060241" type="line"/>
      <point x="264.2048192771084" y="236.19277108433735" type="line"/>
    </contour>
  </outline>
</glyph>
<glyph name="B" format="2">
  <advance width="702.0481927710844"/>
  <unicode hex="0042"/>
  <anchor x="350.10843373493975" y="0.0" name="bottom"/>
  <anchor x="350.10843373493975" y="705.0" name="top"/>
  <outline>
    <contour>
      <point x="159.6867469879518" y="0.0" type="curve" smooth="yes"/>
      <point x="413.87951807228916" y="0.0" type="line" smooth="yes"/>
      <point x="567.0722891566264" y="0.0"/>
      <point x="661.5421686746988" y="76.46987951807229"/>
      <point x="661.5421686746988" y="200.19277108433735" type="curve" smooth="yes"/>
      <point x="661.5421686746988" y="293.6385542168675"/>
      <point x="607.3734939759036" y="355.0"/>
      <point x="511.289156626506" y="373.1927710843374" type="curve"/>
      <point x="511.289156626506" y="356.91566265060237" type="line"/>
      <point x="592.4578313253012" y="377.5542168674699"/>
      <point x="642.9036144578314" y="439.1927710843374"/>
      <point x="642.9036144578314" y="522.6385542168674" type="curve" smooth="yes"/>
      <point x="642.9036144578314" y="634.0843373493975"/>
      <point x="555.9879518072289" y="705.0"/>
      <point x="404.15662650602405" y="705.0" type="curve" smooth="yes"/>
      <point x="159.6867469879518" y="705.0" type="line" smooth="yes"/>
      <point x="97.80722891566265" y="705.0"/>
      <point x="64.2289156626506" y="671.421686746988"/>
      <point x="64.2289156626506" y="609.5421686746988" type="curve" smooth="yes"/>
      <point x="64.2289156626506" y="95.45783132530121" type="line" smooth="yes"/>
      <point x="64.2289156626506" y="33.57831325301205"/>
      <point x="97.80722891566265" y="0.0"/>
    </contour>
    <contour>
      <point x="239.59036144578315" y="134.67469879518072" type="line"/>
      <point x="239.59036144578315" y="290.48192771084337" type="line"/>
      <point x="388.9397590361446" y="290.48192771084337" type="line" smooth="yes"/>
      <point x="457.2289156626506" y="290.48192771084337"/>
      <point x="487.0963855421686" y="264.78313253012044"/>
      <point x="487.0963855421686" y="212.57831325301203" type="curve" smooth="yes"/>
      <point x="487.0963855421686" y="160.73493975903614"/>
      <point x="457.2289156626506" y="134.67469879518072"/>
      <point x="388.9397590361446" y="134.67469879518072" type="curve" smooth="yes"/>
    </contour>
    <contour>
      <point x="239.59036144578315" y="425.15662650602405" type="line"/>
      <point x="239.59036144578315" y="570.3253012048193" type="line"/>
      <point x="370.6626506024096" y="570.3253012048193" type="line" smooth="yes"/>
      <point x="438.2289156626506" y="570.3253012048193"/>
      <point x="467.8192771084337" y="547.8192771084337"/>
      <point x="467.8192771084337" y="498.0602409638554" type="curve" smooth="yes"/>
      <point x="467.8192771084337" y="448.3012048192771"/>
      <point x="438.2289156626506" y="425.15662650602405"/>
      <point x="370.6626506024096" y="425.15662650602405" type="curve" smooth="yes"/>
    </contour>
  </outline>
</glyph>
<glyph name="C" format="2">
  <advance width="687.6626506024096"/>
  <unicode hex="0043"/>
  <anchor x="398.0240963855422" y="0.0" name="bottom"/>
  <anchor x="397.7469879518072" y="705.0" name="top"/>
  <outline>
    <contour>
      <point x="420.3253012048193" y="-11.27710843373494" type="curve" smooth="yes"/>
      <point x="487.3855421686747" y="-11.27710843373494"/>
      <point x="562.1927710843373" y="6.53012048192771"/>
      <point x="609.1686746987951" y="34.03614457831326" type="curve" smooth="yes"/>
      <point x="697.6265060240964" y="81.86746987951807"/>
      <point x="641.3253012048193" y="220.8433734939759"/>
      <point x="541.867469879518" y="175.56626506024097" type="curve" smooth="yes"/>
      <point x="503.6144578313253" y="156.86746987951807"/>
      <point x="461.9156626506024" y="149.33734939759034"/>
      <point x="426.87951807228916" y="149.33734939759034" type="curve" smooth="yes"/>
      <point x="302.3975903614458" y="149.33734939759034"/>
      <point x="239.80722891566265" y="221.4578313253012"/>
      <point x="239.80722891566265" y="353.0" type="curve" smooth="yes"/>
      <point x="239.80722891566265" y="483.9036144578313"/>
      <point x="302.3975903614458" y="555.6626506024097"/>
      <point x="426.87951807228916" y="555.6626506024097" type="curve" smooth="yes"/>
      <point x="468.85542168674704" y="555.6626506024097"/>
      <point x="507.6385542168675" y="546.5783132530121"/>
      <point x="547.722891566265" y="526.6024096385543" type="curve" smooth="yes"/>
      <point x="635.4096385542168" y="484.710843373494"/>
      <point x="698.3493975903615" y="624.301204819277"/>
      <point x="602.8072289156626" y="674.4096385542169" type="curve" smooth="yes"/>
      <point x="553.0" y="701.3855421686746"/>
      <point x="481.1927710843374" y="716.277108433735"/>
      <point x="420.3253012048193" y="716.277108433735" type="curve" smooth="yes"/>
      <point x="186.27710843373492" y="716.277108433735"/>
      <point x="45.6987951807229" y="572.722891566265"/>
      <point x="45.6987951807229" y="353.0" type="curve" smooth="yes"/>
      <point x="45.6987951807229" y="132.27710843373492"/>
      <point x="186.27710843373492" y="-11.27710843373494"/>
    </contour>
  </outline>
</glyph>
<glyph name="D" format="2">
  <advance width="786.2650602409639"/>
  <unicode hex="0044"/>
  <anchor x="389.2168674698795" y="0.0" name="bottom"/>
  <anchor x="206.7710843373494" y="358.0" name="center"/>
  <anchor x="389.2168674698795" y="705.0" name="top"/>
  <outline>
    <contour>
      <point x="159.6867469879518" y="0.0" type="curve" smooth="yes"/>
      <point x="355.6024096385542" y="0.0" type="line" smooth="yes"/>
      <point x="600.5421686746988" y="0.0"/>
      <point x="740.9277108433735" y="128.9156626506024"/>
      <point x="740.9277108433735" y="353.0" type="curve" smooth="yes"/>
      <point x="740.9277108433735" y="576.4457831325301"/>
      <point x="600.5421686746988" y="705.0"/>
      <point x="355.6024096385542" y="705.0" type="curve" smooth="yes"/>
      <point x="159.6867469879518" y="705.0" type="line" smooth="yes"/>
      <point x="97.80722891566265" y="705.0"/>
      <point x="64.2289156626506" y="671.421686746988"/>
      <point x="64.2289156626506" y="609.5421686746988" type="curve" smooth="yes"/>
      <point x="64.2289156626506" y="95.45783132530121" type="line" smooth="yes"/>
      <point x="64.2289156626506" y="33.57831325301205"/>
      <point x="97.80722891566265" y="0.0"/>
    </contour>
    <contour>
      <point x="247.7831325301205" y="149.42168674698794" type="line"/>
      <point x="247.7831325301205" y="555.5783132530121" type="line"/>
      <point x="344.4096385542168" y="555.5783132530121" type="line" smooth="yes"/>
      <point x="482.50602409638554" y="555.5783132530121"/>
      <point x="550.0963855421687" y="490.54216867469876"/>
      <point x="550.0963855421687" y="353.0" type="curve" smooth="yes"/>
      <point x="550.0963855421687" y="215.45783132530119"/>
      <point x="483.50602409638554" y="149.42168674698794"/>
      <point x="344.4096385542168" y="149.42168674698794" type="curve" smooth="yes"/>
    </contour>
  </outline>
</glyph>
<glyph name="E" format="2">
  <advance width="614.2409638554217"/>
  <unicode hex="0045"/>
  <anchor x="333.10843373493975" y="0.0" name="bottom"/>
  <anchor x="503.10843373493975" y="0.0" name="ogonek"/>
  <anchor x="333.10843373493975" y="705.0" name="top"/>
  <anchor x="19.80722891566265" y="705.0" name="topleft"/>
  <outline>
    <contour>
      <point x="159.6867469879518" y="0.0" type="curve" smooth="yes"/>
      <point x="499.44578313253015" y="0.0" type="line" smooth="yes"/>
      <point x="545.8554216867469" y="0.0"/>
      <point x="571.2409638554218" y="25.024096385542165"/>
      <point x="571.2409638554218" y="70.79518072289156" type="curve" smooth="yes"/>
      <point x="571.2409638554218" y="116.56626506024097"/>
      <point x="545.8554216867469" y="141.59036144578312"/>
      <point x="499.44578313253015" y="141.59036144578312" type="curve" smooth="yes"/>
      <point x="239.59036144578315" y="141.59036144578312" type="line"/>
      <point x="239.59036144578315" y="287.20481927710847" type="line"/>
      <point x="476.8072289156626" y="287.20481927710847" type="line" smooth="yes"/>
      <point x="523.5783132530121" y="287.20481927710847"/>
      <point x="548.6024096385541" y="312.2289156626506"/>
      <point x="548.6024096385541" y="358.0" type="curve" smooth="yes"/>
      <point x="548.6024096385541" y="403.7710843373494"/>
      <point x="523.5783132530121" y="428.7951807228916"/>
      <point x="476.8072289156626" y="428.7951807228916" type="curve" smooth="yes"/>
      <point x="239.59036144578315" y="428.7951807228916" type="line"/>
      <point x="239.59036144578315" y="563.4096385542168" type="line"/>
      <point x="499.44578313253015" y="563.4096385542168" type="line" smooth="yes"/>
      <point x="545.8554216867469" y="563.4096385542168"/>
      <point x="571.2409638554218" y="588.7951807228916"/>
      <point x="571.2409638554218" y="634.566265060241" type="curve" smooth="yes"/>
      <point x="571.2409638554218" y="679.9759036144578"/>
      <point x="545.8554216867469" y="705.0"/>
      <point x="499.44578313253015" y="705.0" type="curve" smooth="yes"/>
      <point x="159.6867469879518" y="705.0" type="line" smooth="yes"/>
      <point x="97.80722891566265" y="705.0"/>
      <point x="64.2289156626506" y="671.421686746988"/>
      <point x="64.2289156626506" y="609.5421686746988" type="curve" smooth="yes"/>
      <point x="64.2289156626506" y="95.45783132530121" type="line" smooth="yes"/>
      <point x="64.2289156626506" y="33.57831325301205"/>
      <point x="97.80722891566265" y="0.0"/>
    </contour>
  </outline>
</glyph>
<glyph name="F" format="2">
  <advance width="578.6024096385541"/>
  <unicode hex="0046"/>
  <anchor x="303.83132530120486" y="0.0" name="bottom"/>
  <anchor x="308.7469879518072" y="705.0" name="top"/>
  <outline>
    <contour>
      <point x="157.04819277108433" y="-9.27710843373494" type="curve" smooth="yes"/>
      <point x="216.56626506024094" y="-9.27710843373494"/>
      <point x="247.7831325301205" y="24.301204819277107"/>
      <point x="247.7831325301205" y="86.18072289156626" type="curve" smooth="yes"/>
      <point x="247.7831325301205" y="279.65060240963857" type="line"/>
      <point x="471.08433734939763" y="279.65060240963857" type="line" smooth="yes"/>
      <point x="517.4939759036145" y="279.65060240963857"/>
      <point x="542.8795180722891" y="305.0361445783132"/>
      <point x="542.8795180722891" y="350.8072289156627" type="curve" smooth="yes"/>
      <point x="542.8795180722891" y="396.2168674698795"/>
      <point x="517.4939759036145" y="421.2409638554217"/>
      <point x="471.08433734939763" y="421.2409638554217" type="curve" smooth="yes"/>
      <point x="247.7831325301205" y="421.2409638554217" type="line"/>
      <point x="247.7831325301205" y="563.4096385542168" type="line"/>
      <point x="493.3614457831325" y="563.4096385542168" type="line" smooth="yes"/>
      <point x="540.1325301204819" y="563.4096385542168"/>
      <point x="565.1566265060242" y="588.7951807228916"/>
      <point x="565.1566265060242" y="634.566265060241" type="curve" smooth="yes"/>
      <point x="565.1566265060242" y="679.9759036144578"/>
      <point x="540.1325301204819" y="705.0"/>
      <point x="493.3614457831325" y="705.0" type="curve" smooth="yes"/>
      <point x="159.6867469879518" y="705.0" type="line" smooth="yes"/>
      <point x="97.80722891566265" y="705.0"/>
      <point x="64.2289156626506" y="671.421686746988"/>
      <point x="64.2289156626506" y="609.5421686746988" type="curve" smooth="yes"/>
      <point x="64.2289156626506" y="86.18072289156626" type="line" smooth="yes"/>
      <point x="64.2289156626506" y="24.301204819277107"/>
      <point x="97.80722891566265" y="-9.27710843373494"/>
    </contour>
  </outline>
</glyph>
<glyph name="G" format="2">
  <advance width="747.4939759036145"/>
  <unicode hex="0047"/>
  <anchor x="419.49397590361446" y="0.0" name="bottom"/>
  <anchor x="412.49397590361446" y="705.0" name="top"/>
  <outline>
    <contour>
      <point x="424.30120481927713" y="-11.27710843373494" type="curve" smooth="yes"/>
      <point x="497.3012048192771" y="-11.27710843373494"/>
      <point x="572.5542168674699" y="1.1686746987951802"/>
      <point x="636.0240963855422" y="22.53012048192771" type="curve" smooth="yes"/>
      <point x="672.5180722891566" y="34.72289156626506"/>
      <point x="687.9879518072289" y="63.385542168674704"/>
      <point x="687.9879518072289" y="103.87951807228916" type="curve" smooth="yes"/>
      <point x="687.9879518072289" y="325.16867469879514" type="line" smooth="yes"/>
      <point x="687.9879518072289" y="371.5783132530121"/>
      <point x="662.6024096385541" y="396.96385542168673"/>
      <point x="616.1927710843373" y="396.96385542168673" type="curve" smooth="yes"/>
      <point x="468.43373493975906" y="396.96385542168673" type="line" smooth="yes"/>
      <point x="421.6626506024096" y="396.96385542168673"/>
      <point x="396.6385542168675" y="374.2168674698795"/>
      <point x="396.6385542168675" y="332.72289156626505" type="curve" smooth="yes"/>
      <point x="396.6385542168675" y="291.2289156626506"/>
      <point x="421.6626506024096" y="268.12048192771084"/>
      <point x="468.43373493975906" y="268.12048192771084" type="curve" smooth="yes"/>
      <point x="538.2048192771084" y="268.12048192771084" type="line"/>
      <point x="538.2048192771084" y="96.62650602409639" type="line"/>
      <point x="571.5060240963855" y="166.3975903614458" type="line"/>
      <point x="523.3373493975903" y="151.2289156626506"/>
      <point x="475.0" y="142.78313253012047"/>
      <point x="434.7710843373494" y="142.78313253012047" type="curve" smooth="yes"/>
      <point x="304.6746987951807" y="142.78313253012047"/>
      <point x="236.53012048192772" y="213.18072289156626"/>
      <point x="236.53012048192772" y="349.08433734939763" type="curve" smooth="yes"/>
      <point x="236.53012048192772" y="485.5421686746988"/>
      <point x="302.3975903614458" y="558.9397590361446"/>
      <point x="437.34939759036143" y="558.9397590361446" type="curve" smooth="yes"/>
      <point x="489.2168674698795" y="558.9397590361446"/>
      <point x="536.3012048192771" y="548.4939759036145"/>
      <point x="575.8072289156627" y="529.710843373494" type="curve" smooth="yes"/>
      <point x="672.0963855421686" y="486.9638554216868"/>
      <point x="724.566265060241" y="631.4939759036145"/>
      <point x="640.3855421686746" y="671.3253012048193" type="curve" smooth="yes"/>
      <point x="572.7469879518072" y="705.0240963855422"/>
      <point x="502.7710843373494" y="716.277108433735"/>
      <point x="436.07228915662654" y="716.277108433735" type="curve" smooth="yes"/>
      <point x="190.55421686746988" y="716.277108433735"/>
      <point x="45.6987951807229" y="572.722891566265"/>
      <point x="45.6987951807229" y="349.08433734939763" type="curve" smooth="yes"/>
      <point x="45.6987951807229" y="133.83132530120483"/>
      <point x="181.36144578313252" y="-11.27710843373494"/>
    </contour>
  </outline>
</glyph>
<glyph name="H" format="2">
  <advance width="786.4096385542168"/>
  <unicode hex="0048"/>
  <anchor x="393.3855421686747" y="0.0" name="bottom"/>
  <anchor x="393.3855421686747" y="569.9397590361446" name="center"/>
  <anchor x="393.0240963855422" y="705.0" name="top"/>
  <anchor x="19.80722891566265" y="705.0" name="topleft"/>
  <outline>
    <contour>
      <point x="156.32530120481925" y="-9.27710843373494" type="curve" smooth="yes"/>
      <point x="216.2048192771084" y="-9.27710843373494"/>
      <point x="247.7831325301205" y="24.30120481927711"/>
      <point x="247.7831325301205" y="84.81927710843374" type="curve" smooth="yes"/>
      <point x="247.7831325301205" y="281.6506024096385" type="line"/>
      <point x="538.6265060240964" y="281.6506024096385" type="line"/>
      <point x="538.6265060240964" y="84.81927710843374" type="line" smooth="yes"/>
      <point x="538.6265060240964" y="24.30120481927711"/>
      <point x="571.2048192771084" y="-9.27710843373494"/>
      <point x="630.722891566265" y="-9.27710843373494" type="curve" smooth="yes"/>
      <point x="689.6024096385541" y="-9.27710843373494"/>
      <point x="722.1807228915663" y="24.30120481927711"/>
      <point x="722.1807228915663" y="84.81927710843374" type="curve" smooth="yes"/>
      <point x="722.1807228915663" y="620.1807228915663" type="line" smooth="yes"/>
      <point x="722.1807228915663" y="681.0602409638554"/>
      <point x="689.6024096385541" y="714.277108433735"/>
      <point x="630.722891566265" y="714.277108433735" type="curve" smooth="yes"/>
      <point x="571.8433734939758" y="714.277108433735"/>
      <point x="538.6265060240964" y="681.0602409638554"/>
      <point x="538.6265060240964" y="620.1807228915663" type="curve" smooth="yes"/>
      <point x="538.6265060240964" y="432.71084337349396" type="line"/>
      <point x="247.7831325301205" y="432.71084337349396" type="line"/>
      <point x="247.7831325301205" y="620.1807228915663" type="line" smooth="yes"/>
      <point x="247.7831325301205" y="681.0602409638554"/>
      <point x="215.2048192771084" y="714.277108433735"/>
      <point x="156.32530120481925" y="714.277108433735" type="curve" smooth="yes"/>
      <point x="97.44578313253012" y="714.277108433735"/>
      <point x="64.2289156626506" y="681.0602409638554"/>
      <point x="64.2289156626506" y="620.1807228915663" type="curve" smooth="yes"/>
      <point x="64.2289156626506" y="84.81927710843374" type="line" smooth="yes"/>
      <point x="64.2289156626506" y="24.30120481927711"/>
      <point x="97.44578313253012" y="-9.27710843373494"/>
    </contour>
  </outline>
</glyph>
<glyph name="I" format="2">
  <advance width="312.0120481927711"/>
  <unicode hex="0049"/>
  <anchor x="155.6867469879518" y="0.0" name="bottom"/>
  <anchor x="202.90361445783134" y="0.0" name="ogonek"/>
  <anchor x="155.6867469879518" y="705.0" name="top"/>
  <anchor x="19.807228915662648" y="705.0" name="topleft"/>
  <outline>
    <contour>
      <point x="156.32530120481925" y="-9.27710843373494" type="curve" smooth="yes"/>
      <point x="216.2048192771084" y="-9.27710843373494"/>
      <point x="247.7831325301205" y="24.30120481927711"/>
      <point x="247.7831325301205" y="84.81927710843374" type="curve" smooth="yes"/>
      <point x="247.7831325301205" y="620.1807228915663" type="line" smooth="yes"/>
      <point x="247.7831325301205" y="681.0602409638554"/>
      <point x="215.2048192771084" y="714.277108433735"/>
      <point x="156.32530120481925" y="714.277108433735" type="curve" smooth="yes"/>
      <point x="97.44578313253012" y="714.277108433735"/>
      <point x="64.2289156626506" y="681.0602409638554"/>
      <point x="64.2289156626506" y="620.1807228915663" type="curve" smooth="yes"/>
      <point x="64.2289156626506" y="84.81927710843374" type="line" smooth="yes"/>
      <point x="64.2289156626506" y="24.30120481927711"/>
      <point x="97.44578313253012" y="-9.27710843373494"/>
    </contour>
  </outline>
</glyph>
<glyph name="J" format="2">
  <advance width="390.39759036144574"/>
  <unicode hex="004A"/>
  <anchor x="234.43373493975903" y="0.0" name="bottom"/>
  <anchor x="234.07228915662648" y="705.0" name="top"/>
  <outline>
    <contour>
      <point x="67.71084337349397" y="-8.27710843373494" type="curve" smooth="yes"/>
      <point x="103.62650602409639" y="-6.27710843373494" type="line" smooth="yes"/>
      <point x="252.78313253012047" y="2.36144578313253"/>
      <point x="326.5301204819277" y="74.9156626506024"/>
      <point x="326.5301204819277" y="213.04819277108433" type="curve" smooth="yes"/>
      <point x="326.5301204819277" y="621.1807228915662" type="line" smooth="yes"/>
      <point x="326.5301204819277" y="681.0602409638554"/>
      <point x="293.95180722891564" y="714.277108433735"/>
      <point x="235.07228915662648" y="714.277108433735" type="curve" smooth="yes"/>
      <point x="176.19277108433735" y="714.277108433735"/>
      <point x="142.97590361445782" y="681.0602409638554"/>
      <point x="142.97590361445782" y="621.1807228915662" type="curve" smooth="yes"/>
      <point x="142.97590361445782" y="210.13253012048193" type="line" smooth="yes"/>
      <point x="142.97590361445782" y="162.5421686746988"/>
      <point x="121.91566265060241" y="144.2289156626506"/>
      <point x="73.13253012048193" y="140.86746987951807" type="curve" smooth="yes"/>
      <point x="45.04819277108433" y="138.86746987951807" type="line" smooth="yes"/>
      <point x="5.469879518072288" y="136.2289156626506"/>
      <point x="-15.277108433734938" y="106.56626506024095"/>
      <point x="-15.277108433734938" y="70.07228915662651" type="curve" smooth="yes"/>
      <point x="-15.277108433734938" y="23.02409638554217"/>
      <point x="14.385542168674696" y="-10.91566265060241"/>
    </contour>
  </outline>
</glyph>
<glyph name="K" format="2">
  <advance width="712.2530120481928"/>
  <unicode hex="004B"/>
  <anchor x="351.15662650602405" y="0.0" name="bottom"/>
  <anchor x="351.15662650602405" y="705.0" name="top"/>
  <anchor x="19.80722891566265" y="705.0" name="topleft"/>
  <outline>
    <contour>
      <point x="156.32530120481925" y="-9.27710843373494" type="curve" smooth="yes"/>
      <point x="216.2048192771084" y="-9.27710843373494"/>
      <point x="247.7831325301205" y="24.30120481927711"/>
      <point x="247.7831325301205" y="84.18072289156626" type="curve" smooth="yes"/>
      <point x="247.7831325301205" y="318.3373493975904" type="line"/>
      <point x="249.7831325301205" y="318.3373493975904" type="line"/>
      <point x="494.3373493975904" y="45.04819277108433" type="line" smooth="yes"/>
      <point x="525.0843373493976" y="9.192771084337348"/>
      <point x="547.7469879518072" y="-9.27710843373494"/>
      <point x="593.156626506024" y="-9.27710843373494" type="curve" smooth="yes"/>
      <point x="671.144578313253" y="-9.27710843373494"/>
      <point x="698.8072289156627" y="62.51807228915663"/>
      <point x="648.2289156626506" y="121.39759036144578" type="curve" smooth="yes"/>
      <point x="394.31325301204816" y="408.4096385542168" type="line"/>
      <point x="393.95180722891564" y="333.16867469879514" type="line"/>
      <point x="635.5060240963855" y="590.2409638554217" type="line" smooth="yes"/>
      <point x="679.0843373493975" y="636.6506024096386"/>
      <point x="663.6987951807229" y="713.6385542168674"/>
      <point x="582.433734939759" y="713.6385542168674" type="curve" smooth="yes"/>
      <point x="545.2168674698795" y="713.6385542168674"/>
      <point x="518.1927710843374" y="698.1686746987951"/>
      <point x="493.3614457831325" y="670.7831325301205" type="curve" smooth="yes"/>
      <point x="249.7831325301205" y="402.5783132530121" type="line"/>
      <point x="247.7831325301205" y="402.5783132530121" type="line"/>
      <point x="247.7831325301205" y="621.1807228915662" type="line" smooth="yes"/>
      <point x="247.7831325301205" y="681.0602409638554"/>
      <point x="215.2048192771084" y="714.277108433735"/>
      <point x="156.32530120481925" y="714.277108433735" type="curve" smooth="yes"/>
      <point x="97.44578313253012" y="714.277108433735"/>
      <point x="64.2289156626506" y="681.0602409638554"/>
      <point x="64.2289156626506" y="621.1807228915662" type="curve" smooth="yes"/>
      <point x="64.2289156626506" y="84.18072289156626" type="line" smooth="yes"/>
      <point x="64.2289156626506" y="24.30120481927711"/>
      <point x="97.44578313253012" y="-9.27710843373494"/>
    </contour>
  </outline>
</glyph>
<glyph name="L" format="2">
  <advance width="584.9879518072289"/>
  <unicode hex="004C"/>
  <anchor x="313.1927710843374" y="0.0" name="bottom"/>
  <anchor x="202.96385542168676" y="387.0" name="center"/>
  <anchor x="450.5421686746988" y="399.10843373493975" name="dot"/>
  <anchor x="155.6867469879518" y="705.0" name="top"/>
  <anchor x="343.566265060241" y="705.0" name="topright"/>
  <outline>
    <contour>
      <point x="157.32530120481925" y="0.0" type="curve" smooth="yes"/>
      <point x="492.44578313253015" y="0.0" type="line" smooth="yes"/>
      <point x="543.132530120482" y="0.0"/>
      <point x="570.7951807228916" y="27.662650602409638"/>
      <point x="570.7951807228916" y="76.71084337349397" type="curve" smooth="yes"/>
      <point x="570.7951807228916" y="125.39759036144578"/>
      <point x="543.132530120482" y="153.0602409638554"/>
      <point x="492.44578313253015" y="153.0602409638554" type="curve" smooth="yes"/>
      <point x="247.7831325301205" y="153.0602409638554" type="line"/>
      <point x="247.7831325301205" y="612.9879518072289" type="line" smooth="yes"/>
      <point x="247.7831325301205" y="672.8674698795181"/>
      <point x="215.2048192771084" y="706.0843373493975"/>
      <point x="156.32530120481925" y="706.0843373493975" type="curve" smooth="yes"/>
      <point x="97.44578313253012" y="706.0843373493975"/>
      <point x="64.2289156626506" y="672.8674698795181"/>
      <point x="64.2289156626506" y="612.9879518072289" type="curve" smooth="yes"/>
      <point x="64.2289156626506" y="93.4578313253012" type="line" smooth="yes"/>
      <point x="64.2289156626506" y="33.57831325301205"/>
      <point x="97.44578313253012" y="0.0"/>
    </contour>
  </outline>
</glyph>
<glyph name="M" format="2">
  <advance width="883.9638554216867"/>
  <unicode hex="004D"/>
  <anchor x="442.6626506024096" y="0.0" name="bottom"/>
  <anchor x="442.6626506024096" y="705.0" name="top"/>
  <outline>
    <contour>
      <point x="149.13253012048193" y="-9.27710843373494" type="curve" smooth="yes"/>
      <point x="203.09638554216866" y="-9.27710843373494"/>
      <point x="232.03614457831327" y="21.02409638554217"/>
      <point x="232.03614457831327" y="74.98795180722891" type="curve" smooth="yes"/>
      <point x="232.03614457831327" y="419.5783132530121" type="line"/>
      <point x="208.67469879518072" y="419.5783132530121" type="line"/>
      <point x="370.86746987951807" y="139.02409638554218" type="line" smooth="yes"/>
      <point x="387.9759036144578" y="109.36144578313252"/>
      <point x="407.08433734939763" y="95.16867469879519"/>
      <point x="441.3855421686747" y="95.16867469879519" type="curve" smooth="yes"/>
      <point x="475.3253012048193" y="95.16867469879519"/>
      <point x="494.07228915662654" y="109.0"/>
      <point x="511.54216867469876" y="139.02409638554218" type="curve" smooth="yes"/>
      <point x="673.0120481927711" y="419.21686746987956" type="line"/>
      <point x="652.289156626506" y="419.21686746987956" type="line"/>
      <point x="652.289156626506" y="74.98795180722891" type="line" smooth="yes"/>
      <point x="652.289156626506" y="21.02409638554217"/>
      <point x="681.2289156626506" y="-9.27710843373494"/>
      <point x="735.1927710843373" y="-9.27710843373494" type="curve" smooth="yes"/>
      <point x="789.156626506024" y="-9.27710843373494"/>
      <point x="818.0963855421686" y="21.02409638554217"/>
      <point x="818.0963855421686" y="74.98795180722891" type="curve" smooth="yes"/>
      <point x="818.0963855421686" y="630.0120481927711" type="line" smooth="yes"/>
      <point x="818.0963855421686" y="684.3373493975904"/>
      <point x="787.5180722891566" y="714.277108433735"/>
      <point x="734.5542168674699" y="714.277108433735" type="curve" smooth="yes"/>
      <point x="688.1445783132531" y="714.277108433735"/>
      <point x="664.4819277108434" y="697.1686746987951"/>
      <point x="641.4578313253012" y="655.6746987951808" type="curve" smooth="yes"/>
      <point x="427.0240963855422" y="269.5542168674699" type="line"/>
      <point x="461.5783132530121" y="269.5542168674699" type="line"/>
      <point x="247.144578313253" y="655.6746987951808" type="line" smooth="yes"/>
      <point x="224.12048192771084" y="697.1686746987951"/>
      <point x="200.0963855421687" y="714.277108433735"/>
      <point x="153.6867469879518" y="714.277108433735" type="curve" smooth="yes"/>
      <point x="98.44578313253012" y="714.277108433735"/>
      <point x="66.2289156626506" y="684.3373493975904"/>
      <point x="66.2289156626506" y="630.0120481927711" type="curve" smooth="yes"/>
      <point x="66.2289156626506" y="74.98795180722891" type="line" smooth="yes"/>
      <point x="66.2289156626506" y="21.02409638554217"/>
      <point x="95.53012048192771" y="-9.27710843373494"/>
    </contour>
  </outline>
</glyph>
<glyph name="N" format="2">
  <advance width="757.5783132530121"/>
  <unicode hex="004E"/>
  <anchor x="379.10843373493975" y="0.0" name="bottom"/>
  <anchor x="378.4698795180723" y="705.0" name="top"/>
  <outline>
    <contour>
      <point x="149.7710843373494" y="-9.27710843373494" type="curve" smooth="yes"/>
      <point x="205.0120481927711" y="-9.27710843373494"/>
      <point x="234.95180722891564" y="21.662650602409638"/>
      <point x="234.95180722891564" y="77.62650602409639" type="curve" smooth="yes"/>
      <point x="234.95180722891564" y="439.5180722891567" type="line"/>
      <point x="206.75903614457832" y="439.5180722891567" type="line"/>
      <point x="523.6265060240963" y="43.40963855421687" type="line" smooth="yes"/>
      <point x="553.566265060241" y="6.192771084337349"/>
      <point x="573.9518072289156" y="-9.27710843373494"/>
      <point x="619.0" y="-9.27710843373494" type="curve" smooth="yes"/>
      <point x="664.4096385542169" y="-9.27710843373494"/>
      <point x="693.3493975903614" y="23.301204819277107"/>
      <point x="693.3493975903614" y="73.71084337349397" type="curve" smooth="yes"/>
      <point x="693.3493975903614" y="627.7349397590361" type="line" smooth="yes"/>
      <point x="693.3493975903614" y="683.3373493975903"/>
      <point x="663.4096385542169" y="714.277108433735"/>
      <point x="608.1686746987951" y="714.277108433735" type="curve" smooth="yes"/>
      <point x="552.566265060241" y="714.277108433735"/>
      <point x="522.6265060240964" y="683.3373493975903"/>
      <point x="522.6265060240964" y="627.7349397590361" type="curve" smooth="yes"/>
      <point x="522.6265060240964" y="265.8433734939759" type="line"/>
      <point x="551.1807228915662" y="265.8433734939759" type="line"/>
      <point x="233.95180722891567" y="661.9518072289156" type="line" smooth="yes"/>
      <point x="204.0120481927711" y="699.1686746987953"/>
      <point x="185.9879518072289" y="714.277108433735"/>
      <point x="144.49397590361446" y="714.277108433735" type="curve" smooth="yes"/>
      <point x="95.80722891566265" y="714.277108433735"/>
      <point x="64.2289156626506" y="681.6987951807229"/>
      <point x="64.2289156626506" y="623.4578313253012" type="curve" smooth="yes"/>
      <point x="64.2289156626506" y="77.62650602409639" type="line" smooth="yes"/>
      <point x="64.2289156626506" y="21.662650602409638"/>
      <point x="94.16867469879517" y="-9.27710843373494"/>
    </contour>
  </outline>
</glyph>
<glyph name="O" format="2">
  <advance width="807.3493975903615"/>
  <unicode hex="004F"/>
  <anchor x="402.855421686747" y="-11.27710843373494" name="Qtail"/>
  <anchor x="402.855421686747" y="0.0" name="bottom"/>
  <anchor x="403.2168674698795" y="353.0" name="center"/>
  <anchor x="465.4096385542168" y="0.0" name="ogonek"/>
  <anchor x="402.2168674698795" y="705.0" name="top"/>
  <anchor x="26.0" y="705.0" name="topleft"/>
  <anchor x="468.6626506024096" y="705.0" name="topright"/>
  <outline>
    <contour>
      <point x="403.855421686747" y="-11.27710843373494" type="curve" smooth="yes"/>
      <point x="617.7951807228916" y="-11.27710843373494"/>
      <point x="762.0120481927711" y="134.27710843373495"/>
      <point x="762.0120481927711" y="353.3614457831325" type="curve" smooth="yes"/>
      <point x="762.0120481927711" y="572.0843373493976"/>
      <point x="617.7951807228916" y="716.277108433735"/>
      <point x="403.855421686747" y="716.277108433735" type="curve" smooth="yes"/>
      <point x="189.55421686746988" y="716.277108433735"/>
      <point x="45.6987951807229" y="572.0843373493976"/>
      <point x="45.6987951807229" y="353.0" type="curve" smooth="yes"/>
      <point x="45.6987951807229" y="134.91566265060243"/>
      <point x="189.91566265060243" y="-11.27710843373494"/>
    </contour>
    <contour>
      <point x="403.855421686747" y="142.78313253012047" type="curve" smooth="yes"/>
      <point x="299.12048192771084" y="142.78313253012047"/>
      <point x="236.53012048192772" y="220.8192771084337"/>
      <point x="236.53012048192772" y="353.0" type="curve" smooth="yes"/>
      <point x="236.53012048192772" y="485.5421686746988"/>
      <point x="299.12048192771084" y="562.2168674698795"/>
      <point x="403.855421686747" y="562.2168674698795" type="curve" smooth="yes"/>
      <point x="508.95180722891564" y="562.2168674698795"/>
      <point x="571.1807228915662" y="484.9036144578313"/>
      <point x="571.1807228915662" y="353.0" type="curve" smooth="yes"/>
      <point x="571.1807228915662" y="221.4578313253012"/>
      <point x="508.5903614457831" y="142.78313253012047"/>
    </contour>
  </outline>
</glyph>
<glyph name="P" format="2">
  <advance width="675.6265060240964"/>
  <unicode hex="0050"/>
  <anchor x="342.2168674698795" y="0.0" name="bottom"/>
  <anchor x="341.5783132530121" y="705.0" name="top"/>
  <outline>
    <contour>
      <point x="156.32530120481925" y="-9.27710843373494" type="curve" smooth="yes"/>
      <point x="216.2048192771084" y="-9.27710843373494"/>
      <point x="247.7831325301205" y="24.30120481927711"/>
      <point x="247.7831325301205" y="84.18072289156626" type="curve" smooth="yes"/>
      <point x="247.7831325301205" y="242.92771084337346" type="line"/>
      <point x="403.43373493975906" y="242.92771084337346" type="line" smooth="yes"/>
      <point x="562.9036144578314" y="242.92771084337346"/>
      <point x="653.7349397590361" y="330.0361445783132"/>
      <point x="653.7349397590361" y="474.144578313253" type="curve" smooth="yes"/>
      <point x="653.7349397590361" y="618.2530120481928"/>
      <point x="562.9036144578314" y="705.0"/>
      <point x="403.43373493975906" y="705.0" type="curve" smooth="yes"/>
      <point x="157.32530120481925" y="705.0" type="line" smooth="yes"/>
      <point x="97.44578313253012" y="705.0"/>
      <point x="64.2289156626506" y="671.7831325301205"/>
      <point x="64.2289156626506" y="611.9036144578313" type="curve" smooth="yes"/>
      <point x="64.2289156626506" y="84.18072289156626" type="line" smooth="yes"/>
      <point x="64.2289156626506" y="24.30120481927711"/>
      <point x="97.44578313253012" y="-9.27710843373494"/>
    </contour>
    <contour>
      <point x="247.7831325301205" y="384.15662650602405" type="line"/>
      <point x="247.7831325301205" y="563.7710843373494" type="line"/>
      <point x="370.6626506024096" y="563.7710843373494" type="line" smooth="yes"/>
      <point x="440.5903614457832" y="563.7710843373494"/>
      <point x="478.6506024096386" y="534.6265060240964"/>
      <point x="478.6506024096386" y="474.144578313253" type="curve" smooth="yes"/>
      <point x="478.6506024096386" y="413.6626506024096"/>
      <point x="440.5903614457832" y="384.15662650602405"/>
      <point x="370.6626506024096" y="384.15662650602405" type="curve" smooth="yes"/>
    </contour>
  </outline>
</glyph>
<glyph name="R" format="2">
  <advance width="706.433734939759"/>
  <unicode hex="0052"/>
  <anchor x="357.9397590361446" y="0.0" name="bottom"/>
  <anchor x="356.9397590361446" y="705.0" name="top"/>
  <outline>
    <contour>
      <point x="156.32530120481925" y="-9.27710843373494" type="curve" smooth="yes"/>
      <point x="216.2048192771084" y="-9.27710843373494"/>
      <point x="247.7831325301205" y="24.30120481927711"/>
      <point x="247.7831325301205" y="84.18072289156626" type="curve" smooth="yes"/>
      <point x="247.7831325301205" y="262.84337349397595" type="line"/>
      <point x="303.1927710843374" y="262.84337349397595" type="line" smooth="yes"/>
      <point x="334.6746987951807" y="262.84337349397595"/>
      <point x="359.92771084337346" y="253.39759036144576"/>
      <point x="375.6265060240964" y="224.36144578313252" type="curve" smooth="yes"/>
      <point x="467.04819277108436" y="56.87951807228916" type="line" smooth="yes"/>
      <point x="491.71084337349396" y="10.831325301204817"/>
      <point x="522.289156626506" y="-9.27710843373494"/>
      <point x="573.6144578313252" y="-9.27710843373494" type="curve" smooth="yes"/>
      <point x="652.5180722891566" y="-9.27710843373494"/>
      <point x="672.2650602409639" y="50.963855421686745"/>
      <point x="639.6867469879519" y="109.92771084337349" type="curve" smooth="yes"/>
      <point x="590.2289156626506" y="200.39759036144576" type="line" smooth="yes"/>
      <point x="559.867469879518" y="255.48192771084337"/>
      <point x="516.0361445783133" y="282.7590361445783"/>
      <point x="459.48192771084337" y="282.7590361445783" type="curve" smooth="yes"/>
      <point x="411.15662650602405" y="282.7590361445783" type="line"/>
      <point x="403.43373493975906" y="265.20481927710847" type="line"/>
      <point x="563.1807228915662" y="265.20481927710847"/>
      <point x="653.7349397590361" y="348.3132530120482"/>
      <point x="653.7349397590361" y="484.4216867469879" type="curve" smooth="yes"/>
      <point x="653.7349397590361" y="621.8915662650603"/>
      <point x="562.9036144578314" y="705.0"/>
      <point x="403.43373493975906" y="705.0" type="curve" smooth="yes"/>
      <point x="157.32530120481925" y="705.0" type="line" smooth="yes"/>
      <point x="97.44578313253012" y="705.0"/>
      <point x="64.2289156626506" y="671.7831325301205"/>
      <point x="64.2289156626506" y="611.9036144578313" type="curve" smooth="yes"/>
      <point x="64.2289156626506" y="84.18072289156626" type="line" smooth="yes"/>
      <point x="64.2289156626506" y="24.30120481927711"/>
      <point x="97.44578313253012" y="-9.27710843373494"/>
    </contour>
    <contour>
      <point x="247.7831325301205" y="392.96385542168673" type="line"/>
      <point x="247.7831325301205" y="563.7710843373494" type="line"/>
      <point x="369.9397590361446" y="563.7710843373494" type="line" smooth="yes"/>
      <point x="440.2289156626506" y="563.7710843373494"/>
      <point x="478.6506024096386" y="535.9879518072289"/>
      <point x="478.6506024096386" y="478.86746987951807" type="curve" smooth="yes"/>
      <point x="478.6506024096386" y="420.7469879518072"/>
      <point x="440.2289156626506" y="392.96385542168673"/>
      <point x="369.9397590361446" y="392.96385542168673" type="curve" smooth="yes"/>
    </contour>
  </outline>
</glyph>
<glyph name="S" format="2">
  <advance width="651.433734939759"/>
  <unicode hex="0053"/>
  <anchor x="330.6626506024096" y="0.0" name="bottom"/>
  <anchor x="337.7710843373494" y="705.0" name="top"/>
  <outline>
    <contour>
      <point x="326.3855421686747" y="-11.27710843373494" type="curve" smooth="yes"/>
      <point x="507.87951807228916" y="-11.27710843373494"/>
      <point x="624.8192771084338" y="78.83132530120483"/>
      <point x="624.8192771084338" y="216.04819277108433" type="curve" smooth="yes"/>
      <point x="624.8192771084338" y="318.6024096385542"/>
      <point x="561.4578313253012" y="382.34939759036143"/>
      <point x="432.0120481927711" y="410.34939759036143" type="curve" smooth="yes"/>
      <point x="315.9879518072289" y="435.26506024096386" type="line" smooth="yes"/>
      <point x="254.31325301204816" y="448.07228915662654"/>
      <point x="234.25301204819277" y="466.13253012048193"/>
      <point x="234.25301204819277" y="494.9759036144578" type="curve" smooth="yes"/>
      <point x="234.25301204819277" y="536.9036144578314"/>
      <point x="275.2048192771084" y="565.4939759036145"/>
      <point x="349.96385542168673" y="565.4939759036145" type="curve" smooth="yes"/>
      <point x="395.83132530120486" y="565.4939759036145"/>
      <point x="446.10843373493975" y="556.4096385542168"/>
      <point x="485.8915662650602" y="538.6265060240964" type="curve" smooth="yes"/>
      <point x="589.7349397590361" y="496.433734939759"/>
      <point x="628.0963855421687" y="627.9397590361446"/>
      <point x="550.4698795180723" y="670.0481927710844" type="curve" smooth="yes"/>
      <point x="497.3012048192771" y="700.1084337349398"/>
      <point x="421.3855421686747" y="716.277108433735"/>
      <point x="352.2409638554217" y="716.277108433735" type="curve" smooth="yes"/>
      <point x="174.55421686746988" y="716.277108433735"/>
      <point x="54.253012048192765" y="624.8072289156627"/>
      <point x="54.253012048192765" y="486.144578313253" type="curve" smooth="yes"/>
      <point x="54.253012048192765" y="380.2289156626506"/>
      <point x="115.89156626506023" y="314.3975903614458"/>
      <point x="244.1686746987952" y="286.7590361445783" type="curve" smooth="yes"/>
      <point x="360.5542168674699" y="261.84337349397595" type="line" smooth="yes"/>
      <point x="423.3975903614458" y="248.6746987951807"/>
      <point x="444.81927710843377" y="231.33734939759034"/>
      <point x="444.81927710843377" y="201.3012048192771" type="curve" smooth="yes"/>
      <point x="444.81927710843377" y="166.3734939759036"/>
      <point x="413.50602409638554" y="139.50602409638554"/>
      <point x="326.3855421686747" y="139.50602409638554" type="curve" smooth="yes"/>
      <point x="269.71084337349396" y="139.50602409638554"/>
      <point x="200.51807228915663" y="153.2289156626506"/>
      <point x="149.54216867469881" y="178.0120481927711" type="curve" smooth="yes"/>
      <point x="53.25301204819277" y="222.12048192771084"/>
      <point x="0.12048192771084487" y="78.78313253012048"/>
      <point x="89.85542168674698" y="37.2289156626506" type="curve" smooth="yes"/>
      <point x="151.21686746987953" y="6.80722891566265"/>
      <point x="245.04819277108433" y="-11.27710843373494"/>
    </contour>
  </outline>
</glyph>
<glyph name="T" format="2">
  <advance width="643.9879518072289"/>
  <unicode hex="0054"/>
  <anchor x="322.49397590361446" y="0.0" name="bottom"/>
  <anchor x="321.855421686747" y="358.0" name="center"/>
  <anchor x="321.855421686747" y="705.0" name="top"/>
  <outline>
    <contour>
      <point x="322.49397590361446" y="-9.27710843373494" type="curve" smooth="yes"/>
      <point x="382.3734939759036" y="-9.27710843373494"/>
      <point x="413.9518072289157" y="24.30120481927711"/>
      <point x="413.9518072289157" y="84.18072289156626" type="curve" smooth="yes"/>
      <point x="413.9518072289157" y="555.2168674698795" type="line"/>
      <point x="571.277108433735" y="555.2168674698795" type="line" smooth="yes"/>
      <point x="620.3253012048192" y="555.2168674698795"/>
      <point x="647.3493975903615" y="582.2409638554218"/>
      <point x="647.3493975903615" y="630.289156626506" type="curve" smooth="yes"/>
      <point x="647.3493975903615" y="678.3373493975903"/>
      <point x="620.3253012048192" y="705.0"/>
      <point x="571.277108433735" y="705.0" type="curve" smooth="yes"/>
      <point x="73.07228915662651" y="705.0" type="line" smooth="yes"/>
      <point x="24.02409638554217" y="705.0"/>
      <point x="-3.0" y="678.3373493975903"/>
      <point x="-3.0" y="630.289156626506" type="curve" smooth="yes"/>
      <point x="-3.0" y="582.2409638554217"/>
      <point x="24.02409638554217" y="555.2168674698795"/>
      <point x="73.07228915662651" y="555.2168674698795" type="curve" smooth="yes"/>
      <point x="230.39759036144576" y="555.2168674698795" type="line"/>
      <point x="230.39759036144576" y="84.18072289156626" type="line" smooth="yes"/>
      <point x="230.39759036144576" y="24.30120481927711"/>
      <point x="263.6144578313253" y="-9.27710843373494"/>
    </contour>
  </outline>
</glyph>
<glyph name="V" format="2">
  <advance width="742.3734939759037"/>
  <unicode hex="0056"/>
  <anchor x="371.68674698795184" y="0.0" name="bottom"/>
  <anchor x="370.68674698795184" y="705.0" name="top"/>
  <outline>
    <contour>
      <point x="371.68674698795184" y="-9.27710843373494" type="curve" smooth="yes"/>
      <point x="422.09638554216866" y="-9.27710843373494"/>
      <point x="450.39759036144574" y="11.831325301204819"/>
      <point x="471.14457831325296" y="57.963855421686745" type="curve" smooth="yes"/>
      <point x="713.6265060240963" y="591.6024096385541" type="line" smooth="yes"/>
      <point x="745.8433734939758" y="662.3132530120481"/>
      <point x="707.3493975903615" y="714.277108433735"/>
      <point x="646.4698795180723" y="714.277108433735" type="curve" smooth="yes"/>
      <point x="595.144578313253" y="714.277108433735"/>
      <point x="570.7590361445783" y="690.2530120481928"/>
      <point x="551.0120481927711" y="644.2048192771084" type="curve" smooth="yes"/>
      <point x="346.9397590361446" y="170.83132530120483" type="line"/>
      <point x="402.71084337349396" y="170.83132530120483" type="line"/>
      <point x="198.91566265060243" y="643.2048192771084" type="line" smooth="yes"/>
      <point x="179.1686746987952" y="689.6144578313254"/>
      <point x="156.14457831325302" y="714.277108433735"/>
      <point x="101.54216867469879" y="714.277108433735" type="curve" smooth="yes"/>
      <point x="36.74698795180723" y="714.277108433735"/>
      <point x="-3.469879518072289" y="662.6746987951808"/>
      <point x="28.746987951807228" y="591.6024096385541" type="curve" smooth="yes"/>
      <point x="271.2289156626506" y="57.963855421686745" type="line" smooth="yes"/>
      <point x="291.9759036144578" y="11.831325301204819"/>
      <point x="321.6385542168675" y="-9.27710843373494"/>
    </contour>
  </outline>
</glyph>
<glyph name="W" format="2">
  <advance width="1127.686746987952"/>
  <unicode hex="0057"/>
  <anchor x="564.0240963855422" y="0.0" name="bottom"/>
  <anchor x="564.6626506024097" y="705.0" name="top"/>
  <outline>
    <contour>
      <point x="338.4096385542168" y="-9.27710843373494" type="curve" smooth="yes"/>
      <point x="388.4578313253012" y="-9.27710843373494"/>
      <point x="415.7590361445783" y="13.46987951807229"/>
      <point x="433.86746987951807" y="62.24096385542168" type="curve" smooth="yes"/>
      <point x="577.9397590361446" y="458.9879518072289" type="line"/>
      <point x="553.0240963855422" y="458.9879518072289" type="line"/>
      <point x="693.8192771084338" y="63.24096385542168" type="line" smooth="yes"/>
      <point x="711.289156626506" y="13.46987951807229"/>
      <point x="740.2289156626506" y="-9.27710843373494"/>
      <point x="789.6385542168675" y="-9.27710843373494" type="curve" smooth="yes"/>
      <point x="839.6867469879519" y="-9.27710843373494"/>
      <point x="867.9879518072289" y="13.46987951807229"/>
      <point x="885.4578313253012" y="62.24096385542168" type="curve" smooth="yes"/>
      <point x="1081.7710843373493" y="605.710843373494" type="line" smooth="yes"/>
      <point x="1103.7951807228917" y="666.5903614457831"/>
      <point x="1071.8554216867471" y="714.277108433735"/>
      <point x="1009.698795180723" y="714.277108433735" type="curve" smooth="yes"/>
      <point x="960.6506024096385" y="714.277108433735"/>
      <point x="936.2650602409639" y="690.8915662650603"/>
      <point x="919.7951807228916" y="641.8433734939758" type="curve" smooth="yes"/>
      <point x="767.4457831325301" y="195.32530120481925" type="line"/>
      <point x="806.9156626506024" y="195.32530120481925" type="line"/>
      <point x="656.8433734939758" y="641.1204819277108" type="line" smooth="yes"/>
      <point x="640.0120481927711" y="691.5301204819277"/>
      <point x="614.710843373494" y="714.277108433735"/>
      <point x="570.5783132530121" y="714.277108433735" type="curve" smooth="yes"/>
      <point x="526.4457831325301" y="714.277108433735"/>
      <point x="500.421686746988" y="691.5301204819277"/>
      <point x="482.3132530120482" y="642.1204819277109" type="curve" smooth="yes"/>
      <point x="322.4096385542168" y="195.32530120481925" type="line"/>
      <point x="368.79518072289153" y="195.32530120481925" type="line"/>
      <point x="220.08433734939757" y="641.8433734939758" type="line" smooth="yes"/>
      <point x="203.6144578313253" y="691.2530120481928"/>
      <point x="179.2289156626506" y="714.277108433735"/>
      <point x="128.54216867469881" y="714.277108433735" type="curve" smooth="yes"/>
      <point x="56.192771084337345" y="714.277108433735"/>
      <point x="24.6144578313253" y="666.5903614457832"/>
      <point x="46.63855421686747" y="605.710843373494" type="curve" smooth="yes"/>
      <point x="241.59036144578315" y="63.24096385542168" type="line" smooth="yes"/>
      <point x="259.69879518072287" y="13.46987951807229"/>
      <point x="288.3614457831325" y="-9.27710843373494"/>
    </contour>
  </outline>
</glyph>
<glyph name="X" format="2">
  <advance width="698.1807228915663"/>
  <unicode hex="0058"/>
  <anchor x="350.4096385542168" y="0.0" name="bottom"/>
  <anchor x="348.7710843373494" y="705.0" name="top"/>
  <outline>
    <contour>
      <point x="129.09638554216866" y="-9.27710843373494" type="curve" smooth="yes"/>
      <point x="167.59036144578312" y="-9.27710843373494"/>
      <point x="194.25301204819277" y="7.831325301204819"/>
      <point x="224.55421686746985" y="49.963855421686745" type="curve" smooth="yes"/>
      <point x="378.43373493975906" y="262.710843373494" type="line"/>
      <point x="319.7469879518072" y="262.710843373494" type="line"/>
      <point x="473.98795180722885" y="49.963855421686745" type="line" smooth="yes"/>
      <point x="504.28915662650604" y="7.831325301204819"/>
      <point x="530.9518072289156" y="-9.27710843373494"/>
      <point x="569.0843373493975" y="-9.27710843373494" type="curve" smooth="yes"/>
      <point x="640.5180722891566" y="-9.27710843373494"/>
      <point x="680.9277108433735" y="55.87951807228916"/>
      <point x="634.2409638554217" y="117.3975903614458" type="curve" smooth="yes"/>
      <point x="422.2048192771084" y="397.49397590361446" type="line"/>
      <point x="422.2048192771084" y="314.3975903614458" type="line"/>
      <point x="628.710843373494" y="587.2409638554217" type="line" smooth="yes"/>
      <point x="676.1204819277108" y="649.4819277108434"/>
      <point x="634.9879518072289" y="714.277108433735"/>
      <point x="564.277108433735" y="714.277108433735" type="curve" smooth="yes"/>
      <point x="525.4216867469879" y="714.277108433735"/>
      <point x="498.7590361445783" y="697.1686746987953"/>
      <point x="468.8192771084337" y="655.3975903614457" type="curve" smooth="yes"/>
      <point x="319.1927710843374" y="447.6265060240964" type="line"/>
      <point x="378.71084337349396" y="447.6265060240964" type="line"/>
      <point x="230.0" y="655.3975903614457" type="line" smooth="yes"/>
      <point x="200.6987951807229" y="696.5301204819277"/>
      <point x="173.3975903614458" y="714.277108433735"/>
      <point x="134.90361445783134" y="714.277108433735" type="curve" smooth="yes"/>
      <point x="64.19277108433735" y="714.277108433735"/>
      <point x="24.060240963855424" y="648.4819277108434"/>
      <point x="70.46987951807229" y="587.2409638554217" type="curve" smooth="yes"/>
      <point x="276.3373493975904" y="314.3975903614458" type="line"/>
      <point x="276.3373493975904" y="397.49397590361446" type="line"/>
      <point x="63.93975903614458" y="117.3975903614458" type="line" smooth="yes"/>
      <point x="17.253012048192772" y="55.87951807228916"/>
      <point x="58.024096385542165" y="-9.27710843373494"/>
    </contour>
  </outline>
</glyph>
<glyph name="Y" format="2">
  <advance width="644.8192771084338"/>
  <unicode hex="0059"/>
  <anchor x="323.4096385542168" y="0.0" name="bottom"/>
  <anchor x="321.7710843373494" y="705.0" name="top"/>
  <anchor x="16.36144578313253" y="705.0" name="topleft"/>
  <outline>
    <contour>
      <point x="322.4096385542168" y="-9.27710843373494" type="curve" smooth="yes"/>
      <point x="382.289156626506" y="-9.27710843373494"/>
      <point x="413.86746987951807" y="24.30120481927711"/>
      <point x="413.86746987951807" y="85.81927710843374" type="curve" smooth="yes"/>
      <point x="413.86746987951807" y="360.44578313253015" type="line"/>
      <point x="377.0120481927711" y="258.54216867469876" type="line"/>
      <point x="604.5180722891566" y="588.2409638554218" type="line" smooth="yes"/>
      <point x="644.7349397590361" y="647.2048192771084"/>
      <point x="618.0722891566265" y="714.277108433735"/>
      <point x="541.8072289156627" y="714.277108433735" type="curve" smooth="yes"/>
      <point x="501.9518072289157" y="714.277108433735"/>
      <point x="475.0120481927711" y="697.8072289156627"/>
      <point x="446.9879518072289" y="656.0361445783133" type="curve" smooth="yes"/>
      <point x="306.5783132530121" y="449.28915662650604" type="line"/>
      <point x="342.87951807228916" y="449.28915662650604" type="line"/>
      <point x="203.46987951807228" y="655.3975903614457" type="line" smooth="yes"/>
      <point x="175.80722891566262" y="696.8072289156627"/>
      <point x="146.50602409638554" y="714.277108433735"/>
      <point x="108.65060240963855" y="714.277108433735" type="curve" smooth="yes"/>
      <point x="29.10843373493976" y="714.277108433735"/>
      <point x="4.36144578313253" y="638.6506024096385"/>
      <point x="38.024096385542165" y="589.8795180722891" type="curve" smooth="yes"/>
      <point x="267.53012048192767" y="258.54216867469876" type="line"/>
      <point x="230.31325301204822" y="360.44578313253015" type="line"/>
      <point x="230.31325301204822" y="85.81927710843374" type="line" smooth="yes"/>
      <point x="230.31325301204822" y="24.30120481927711"/>
      <point x="263.5301204819277" y="-9.27710843373494"/>
    </contour>
  </outline>
</glyph>
<glyph name="Z" format="2">
  <advance width="624.7951807228916"/>
  <unicode hex="005A"/>
  <anchor x="321.6626506024096" y="0.0" name="bottom"/>
  <anchor x="321.3012048192771" y="705.0" name="top"/>
  <outline>
    <contour>
      <point x="128.9879518072289" y="0.0" type="curve" smooth="yes"/>
      <point x="535.0" y="0.0" type="line" smooth="yes"/>
      <point x="586.0481927710844" y="0.0"/>
      <point x="613.710843373494" y="26.662650602409638"/>
      <point x="613.710843373494" y="75.71084337349397" type="curve" smooth="yes"/>
      <point x="613.710843373494" y="124.75903614457832"/>
      <point x="586.0481927710844" y="151.06024096385542"/>
      <point x="535.0" y="151.06024096385542" type="curve" smooth="yes"/>
      <point x="214.89156626506025" y="151.06024096385542" type="line"/>
      <point x="214.89156626506025" y="98.92771084337349" type="line"/>
      <point x="559.8554216867469" y="532.277108433735" type="line" smooth="yes"/>
      <point x="626.9277108433736" y="614.710843373494"/>
      <point x="598.9879518072289" y="705.0"/>
      <point x="504.8915662650603" y="705.0" type="curve" smooth="yes"/>
      <point x="114.51807228915662" y="705.0" type="line" smooth="yes"/>
      <point x="63.46987951807229" y="705.0"/>
      <point x="35.80722891566265" y="678.3373493975903"/>
      <point x="35.80722891566265" y="629.6506024096385" type="curve" smooth="yes"/>
      <point x="35.80722891566265" y="580.6024096385541"/>
      <point x="63.46987951807229" y="553.9397590361446"/>
      <point x="114.51807228915662" y="553.9397590361446" type="curve" smooth="yes"/>
      <point x="418.9879518072289" y="553.9397590361446" type="line"/>
      <point x="418.9879518072289" y="606.433734939759" type="line"/>
      <point x="74.02409638554217" y="172.72289156626505" type="line" smooth="yes"/>
      <point x="7.313253012048193" y="90.65060240963855"/>
      <point x="34.89156626506024" y="0.0"/>
    </contour>
  </outline>
</glyph>
<glyph name="bracketleft" format="2">
  <advance width="400.6144578313253"/>
  <unicode hex="005B"/>
  <outline>
    <contour>
      <point x="175.6024096385542" y="-180.0" type="curve" smooth="yes"/>
      <point x="321.15662650602405" y="-180.0" type="line" smooth="yes"/>
      <point x="363.289156626506" y="-180.0"/>
      <point x="392.78313253012044" y="-152.33734939759034"/>
      <point x="392.78313253012044" y="-114.4819277108434" type="curve" smooth="yes"/>
      <point x="392.78313253012044" y="-76.62650602409639"/>
      <point x="363.289156626506" y="-48.963855421686745"/>
      <point x="321.15662650602405" y="-48.963855421686745" type="curve" smooth="yes"/>
      <point x="280.1686746987952" y="-48.963855421686745" type="line"/>
      <point x="280.1686746987952" y="573.9638554216867" type="line"/>
      <point x="321.15662650602405" y="573.9638554216867" type="line" smooth="yes"/>
      <point x="363.289156626506" y="573.9638554216867"/>
      <point x="392.78313253012044" y="601.6265060240964"/>
      <point x="392.78313253012044" y="639.4819277108434" type="curve" smooth="yes"/>
      <point x="392.78313253012044" y="677.3373493975903"/>
      <point x="363.289156626506" y="705.0"/>
      <point x="321.15662650602405" y="705.0" type="curve" smooth="yes"/>
      <point x="175.6024096385542" y="705.0" type="line" smooth="yes"/>
      <point x="133.4698795180723" y="705.0"/>
      <point x="102.16867469879517" y="674.0602409638554"/>
      <point x="102.16867469879517" y="631.9277108433735" type="curve" smooth="yes"/>
      <point x="102.16867469879517" y="-106.92771084337349" type="line" smooth="yes"/>
      <point x="102.16867469879517" y="-149.06024096385542"/>
      <point x="133.4698795180723" y="-180.0"/>
    </contour>
  </outline>
</glyph>
<glyph name="backslash" format="2">
  <advance width="349.39759036144574"/>
  <unicode hex="005C"/>
  <outline>
    <contour>
      <point x="220.53012048192772" y="-21.97590361445783" type="line" smooth="yes"/>
      <point x="248.19277108433735" y="-108.6024096385542"/>
      <point x="378.95180722891564" y="-73.02409638554217"/>
      <point x="350.28915662650604" y="17.879518072289155" type="curve" smooth="yes"/>
      <point x="128.86746987951807" y="709.9759036144578" type="line" smooth="yes"/>
      <point x="100.84337349397589" y="796.9638554216867"/>
      <point x="-29.192771084337352" y="761.0240963855422"/>
      <point x="-0.8915662650602414" y="670.4819277108434" type="curve" smooth="yes"/>
    </contour>
  </outline>
</glyph>
<glyph name="bracketright" format="2">
  <advance width="400.6144578313253"/>
  <unicode hex="005D"/>
  <outline>
    <contour>
      <point x="79.45783132530121" y="-180.0" type="curve" smooth="yes"/>
      <point x="225.0120481927711" y="-180.0" type="line" smooth="yes"/>
      <point x="267.144578313253" y="-180.0"/>
      <point x="298.4457831325301" y="-149.06024096385542"/>
      <point x="298.4457831325301" y="-106.92771084337349" type="curve" smooth="yes"/>
      <point x="298.4457831325301" y="631.9277108433735" type="line" smooth="yes"/>
      <point x="298.4457831325301" y="674.0602409638554"/>
      <point x="267.144578313253" y="705.0"/>
      <point x="225.0120481927711" y="705.0" type="curve" smooth="yes"/>
      <point x="79.45783132530121" y="705.0" type="line" smooth="yes"/>
      <point x="37.325301204819276" y="705.0"/>
      <point x="7.831325301204819" y="677.3373493975903"/>
      <point x="7.831325301204819" y="639.4819277108434" type="curve" smooth="yes"/>
      <point x="7.831325301204819" y="601.6265060240964"/>
      <point x="37.325301204819276" y="573.9638554216867"/>
      <point x="79.45783132530121" y="573.9638554216867" type="curve" smooth="yes"/>
      <point x="120.44578313253012" y="573.9638554216867" type="line"/>
      <point x="120.44578313253012" y="-48.963855421686745" type="line"/>
      <point x="79.45783132530121" y="-48.963855421686745" type="line" smooth="yes"/>
      <point x="37.325301204819276" y="-48.963855421686745"/>
      <point x="7.831325301204819" y="-76.62650602409639"/>
      <point x="7.831325301204819" y="-114.4819277108434" type="curve" smooth="yes"/>
      <point x="7.831325301204819" y="-152.33734939759034"/>
      <point x="37.325301204819276" y="-180.0"/>
    </contour>
  </outline>
</glyph>
<glyph name="asciicircum" format="2">
  <advance width="600.0"/>
  <unicode hex="005E"/>
  <outline>
    <contour>
      <point x="124.87951807228916" y="130.72289156626508" type="curve" smooth="yes"/>
      <point x="155.5421686746988" y="130.72289156626508"/>
      <point x="173.9277108433735" y="141.63855421686745"/>
      <point x="189.12048192771084" y="182.7710843373494" type="curve" smooth="yes"/>
      <point x="343.13253012048193" y="584.2530120481928" type="line"/>
      <point x="257.2289156626506" y="584.2530120481928" type="line"/>
      <point x="410.87951807228916" y="182.7710843373494" type="line" smooth="yes"/>
      <point x="426.07228915662654" y="141.63855421686748"/>
      <point x="444.8192771084337" y="130.72289156626508"/>
      <point x="475.1204819277108" y="130.72289156626508" type="curve" smooth="yes"/>
      <point x="530.1686746987951" y="130.72289156626508"/>
      <point x="547.0" y="167.3012048192771"/>
      <point x="529.4457831325302" y="211.5180722891566" type="curve" smooth="yes"/>
      <point x="384.6265060240964" y="578.3975903614457" type="line" smooth="yes"/>
      <point x="368.7951807228916" y="619.1686746987951"/>
      <point x="342.13253012048193" y="637.277108433735"/>
      <point x="300.0" y="637.277108433735" type="curve" smooth="yes"/>
      <point x="258.2289156626506" y="637.277108433735"/>
      <point x="231.2048192771084" y="619.5301204819277"/>
      <point x="215.3734939759036" y="578.3975903614457" type="curve" smooth="yes"/>
      <point x="70.55421686746989" y="211.5180722891566" type="line" smooth="yes"/>
      <point x="53.36144578313253" y="167.66265060240963"/>
      <point x="70.19277108433735" y="130.72289156626508"/>
    </contour>
  </outline>
</glyph>
<glyph name="underscore" format="2">
  <advance width="500.0"/>
  <unicode hex="005F"/>
  <outline>
    <contour>
      <point x="62.85542168674699" y="-101.18072289156626" type="curve" smooth="yes"/>
      <point x="437.50602409638554" y="-101.18072289156626" type="line" smooth="yes"/>
      <point x="467.16867469879514" y="-101.18072289156626"/>
      <point x="489.27710843373495" y="-79.43373493975903"/>
      <point x="489.27710843373495" y="-50.77108433734939" type="curve" smooth="yes"/>
      <point x="489.27710843373495" y="-22.10843373493976"/>
      <point x="467.16867469879514" y="0.0"/>
      <point x="437.50602409638554" y="0.0" type="curve" smooth="yes"/>
      <point x="62.85542168674699" y="0.0" type="line" smooth="yes"/>
      <point x="32.831325301204814" y="0.0"/>
      <point x="10.72289156626506" y="-22.10843373493976"/>
      <point x="10.72289156626506" y="-50.77108433734939" type="curve" smooth="yes"/>
      <point x="10.72289156626506" y="-79.43373493975903"/>
      <point x="32.831325301204814" y="-101.18072289156626"/>
    </contour>
  </outline>
</glyph>
<glyph name="a" format="2">
  <advance width="568.0722891566264"/>
  <unicode hex="0061"/>
  <anchor x="283.3012048192771" y="0.0" name="bottom"/>
  <anchor x="461.49397590361446" y="0.0" name="ogonek"/>
  <anchor x="287.9397590361446" y="484.0" name="top"/>
  <outline>
    <contour>
      <point x="222.80722891566265" y="-11.27710843373494" type="curve" smooth="yes"/>
      <point x="297.3373493975904" y="-11.27710843373494"/>
      <point x="348.2289156626506" y="29.53012048192771"/>
      <point x="359.3975903614458" y="93.14457831325302" type="curve"/>
      <point x="353.3132530120482" y="106.55421686746989" type="line"/>
      <point x="353.3132530120482" y="80.90361445783132" type="line" smooth="yes"/>
      <point x="353.3132530120482" y="22.662650602409638"/>
      <point x="382.6144578313253" y="-9.27710843373494"/>
      <point x="436.5783132530121" y="-9.27710843373494" type="curve" smooth="yes"/>
      <point x="489.54216867469876" y="-9.27710843373494"/>
      <point x="518.843373493976" y="22.662650602409638"/>
      <point x="518.843373493976" y="80.90361445783132" type="curve" smooth="yes"/>
      <point x="518.843373493976" y="283.2289156626506" type="line" smooth="yes"/>
      <point x="518.843373493976" y="434.3614457831325"/>
      <point x="440.6265060240964" y="503.4698795180723"/>
      <point x="277.1927710843374" y="503.4698795180723" type="curve" smooth="yes"/>
      <point x="232.10843373493975" y="503.4698795180723"/>
      <point x="177.3012048192771" y="496.0240963855421"/>
      <point x="114.3855421686747" y="472.93975903614455" type="curve" smooth="yes"/>
      <point x="25.56626506024096" y="440.9156626506024"/>
      <point x="59.59036144578313" y="317.1807228915663"/>
      <point x="147.85542168674698" y="349.09638554216866" type="curve" smooth="yes"/>
      <point x="197.49397590361446" y="367.6265060240964"/>
      <point x="236.10843373493975" y="373.710843373494"/>
      <point x="269.3614457831325" y="373.710843373494" type="curve" smooth="yes"/>
      <point x="329.4216867469879" y="373.710843373494"/>
      <point x="350.6746987951807" y="356.289156626506"/>
      <point x="350.6746987951807" y="307.8072289156627" type="curve" smooth="yes"/>
      <point x="350.6746987951807" y="192.16867469879517" type="line" smooth="yes"/>
      <point x="350.6746987951807" y="140.04819277108433"/>
      <point x="311.89156626506025" y="104.73493975903614"/>
      <point x="263.49397590361446" y="104.73493975903614" type="curve" smooth="yes"/>
      <point x="221.26506024096383" y="104.73493975903614"/>
      <point x="199.48192771084337" y="126.79518072289156"/>
      <point x="199.48192771084337" y="158.02409638554218" type="curve" smooth="yes"/>
      <point x="199.48192771084337" y="193.6987951807229"/>
      <point x="234.4578313253012" y="210.33734939759037"/>
      <point x="312.84337349397595" y="210.33734939759037" type="curve" smooth="yes"/>
      <point x="368.2289156626506" y="210.33734939759037" type="line"/>
      <point x="368.2289156626506" y="294.46987951807233" type="line"/>
      <point x="313.12048192771084" y="294.46987951807233" type="line" smooth="yes"/>
      <point x="107.50602409638554" y="294.46987951807233"/>
      <point x="29.590361445783138" y="257.7469879518072"/>
      <point x="29.590361445783138" y="150.74698795180723" type="curve" smooth="yes"/>
      <point x="29.590361445783138" y="57.63855421686747"/>
      <point x="108.50602409638553" y="-11.27710843373494"/>
    </contour>
  </outline>
</glyph>
<glyph name="c" format="2">
  <advance width="484.13253012048193"/>
  <unicode hex="0063"/>
  <anchor x="290.3855421686747" y="0.0" name="bottom"/>
  <anchor x="290.3855421686747" y="484.0" name="top"/>
  <outline>
    <contour>
      <point x="303.13253012048193" y="-11.27710843373494" type="curve" smooth="yes"/>
      <point x="342.0240963855422" y="-11.27710843373494"/>
      <point x="383.1686746987952" y="-4.7469879518072275"/>
      <point x="428.4457831325301" y="14.590361445783135" type="curve" smooth="yes"/>
      <point x="505.90361445783134" y="44.951807228915655"/>
      <point x="467.1566265060241" y="174.9277108433735"/>
      <point x="389.0843373493976" y="138.18072289156626" type="curve" smooth="yes"/>
      <point x="366.3855421686747" y="126.92771084337349"/>
      <point x="342.7710843373494" y="122.75903614457832"/>
      <point x="321.7951807228916" y="122.75903614457832" type="curve" smooth="yes"/>
      <point x="251.3975903614458" y="122.75903614457832"/>
      <point x="211.33734939759034" y="168.71084337349396"/>
      <point x="211.33734939759034" y="246.63855421686748" type="curve" smooth="yes"/>
      <point x="211.33734939759034" y="324.92771084337346"/>
      <point x="251.3975903614458" y="369.433734939759"/>
      <point x="321.7951807228916" y="369.433734939759" type="curve" smooth="yes"/>
      <point x="342.7710843373494" y="369.433734939759"/>
      <point x="366.7469879518072" y="364.2650602409638"/>
      <point x="389.0843373493976" y="353.6506024096385" type="curve" smooth="yes"/>
      <point x="466.433734939759" y="316.9036144578313"/>
      <point x="508.433734939759" y="446.1566265060241"/>
      <point x="429.8915662650602" y="477.2409638554217" type="curve" smooth="yes"/>
      <point x="384.2530120481928" y="496.93975903614455"/>
      <point x="342.0240963855422" y="503.4698795180723"/>
      <point x="303.13253012048193" y="503.4698795180723" type="curve" smooth="yes"/>
      <point x="136.63855421686748" y="503.4698795180723"/>
      <point x="29.060240963855424" y="406.1927710843374"/>
      <point x="29.060240963855424" y="247.0" type="curve" smooth="yes"/>
      <point x="29.060240963855424" y="87.44578313253012"/>
      <point x="136.63855421686748" y="-11.27710843373494"/>
    </contour>
  </outline>
</glyph>
<glyph name="d" format="2">
  <advance width="620.433734939759"/>
  <unicode hex="0064"/>
  <anchor x="312.2168674698795" y="0.0" name="bottom"/>
  <anchor x="301.7469879518072" y="246.63855421686748" name="center"/>
  <anchor x="430.0240963855422" y="592.4698795180723" name="stroke"/>
  <anchor x="311.855421686747" y="705.0" name="top"/>
  <anchor x="602.8192771084338" y="705.0" name="topright"/>
  <outline>
    <contour>
      <point x="244.0602409638554" y="-11.27710843373494" type="curve" smooth="yes"/>
      <point x="319.6746987951807" y="-11.27710843373494"/>
      <point x="385.3975903614458" y="29.253012048192772"/>
      <point x="404.12048192771084" y="89.3132530120482" type="curve"/>
      <point x="393.12048192771084" y="138.4698795180723" type="line"/>
      <point x="393.12048192771084" y="80.90361445783132" type="line" smooth="yes"/>
      <point x="393.12048192771084" y="22.662650602409638"/>
      <point x="424.0602409638554" y="-9.27710843373494"/>
      <point x="481.3012048192771" y="-9.27710843373494" type="curve" smooth="yes"/>
      <point x="537.9036144578313" y="-9.27710843373494"/>
      <point x="568.843373493976" y="22.662650602409638"/>
      <point x="568.843373493976" y="80.90361445783132" type="curve" smooth="yes"/>
      <point x="568.843373493976" y="624.4578313253012" type="line" smooth="yes"/>
      <point x="568.843373493976" y="682.6987951807229"/>
      <point x="536.9036144578313" y="714.277108433735"/>
      <point x="479.66265060240966" y="714.277108433735" type="curve" smooth="yes"/>
      <point x="422.4216867469879" y="714.277108433735"/>
      <point x="390.84337349397595" y="682.6987951807229"/>
      <point x="390.84337349397595" y="624.4578313253012" type="curve" smooth="yes"/>
      <point x="390.84337349397595" y="409.7951807228916" type="line"/>
      <point x="402.48192771084337" y="409.7951807228916" type="line"/>
      <point x="382.12048192771084" y="464.5783132530121"/>
      <point x="317.3975903614458" y="503.4698795180723"/>
      <point x="244.0602409638554" y="503.4698795180723" type="curve" smooth="yes"/>
      <point x="116.97590361445782" y="503.4698795180723"/>
      <point x="29.060240963855424" y="405.83132530120486"/>
      <point x="29.060240963855424" y="246.27710843373495" type="curve" smooth="yes"/>
      <point x="29.060240963855424" y="86.72289156626506"/>
      <point x="117.97590361445782" y="-11.27710843373494"/>
    </contour>
    <contour>
      <point x="300.7710843373494" y="120.12048192771084" type="curve" smooth="yes"/>
      <point x="246.2048192771084" y="120.12048192771084"/>
      <point x="208.06024096385542" y="157.51807228915663"/>
      <point x="208.06024096385542" y="246.27710843373495" type="curve" smooth="yes"/>
      <point x="208.06024096385542" y="335.0361445783132"/>
      <point x="246.2048192771084" y="372.07228915662654"/>
      <point x="300.7710843373494" y="372.07228915662654" type="curve" smooth="yes"/>
      <point x="354.9759036144579" y="372.07228915662654"/>
      <point x="393.48192771084337" y="335.0361445783132"/>
      <point x="393.48192771084337" y="246.27710843373495" type="curve" smooth="yes"/>
      <point x="393.48192771084337" y="157.51807228915663"/>
      <point x="354.9759036144579" y="120.12048192771084"/>
    </contour>
  </outline>
</glyph>
<glyph name="e" format="2">
  <advance width="555.4096385542169"/>
  <unicode hex="0065"/>
  <anchor x="289.7469879518072" y="0.0" name="bottom"/>
  <anchor x="390.15662650602405" y="0.0" name="ogonek"/>
  <anchor x="289.7469879518072" y="484.0" name="top"/>
  <outline>
    <contour>
      <point x="320.0481927710843" y="-11.27710843373494" type="curve" smooth="yes"/>
      <point x="373.32530120481925" y="-11.27710843373494"/>
      <point x="427.8313253012048" y="-1.1084337349397586"/>
      <point x="473.5542168674699" y="20.867469879518076" type="curve" smooth="yes"/>
      <point x="550.1566265060242" y="55.951807228915655"/>
      <point x="516.7951807228916" y="173.43373493975903"/>
      <point x="429.9156626506024" y="140.81927710843374" type="curve" smooth="yes"/>
      <point x="395.3855421686747" y="126.48192771084337"/>
      <point x="353.49397590361446" y="120.12048192771084"/>
      <point x="324.60240963855426" y="120.12048192771084" type="curve" smooth="yes"/>
      <point x="236.73493975903614" y="120.12048192771084"/>
      <point x="195.59036144578312" y="157.1566265060241"/>
      <point x="195.59036144578312" y="252.4698795180723" type="curve" smooth="yes"/>
      <point x="195.59036144578312" y="260.7469879518072" type="line" smooth="yes"/>
      <point x="195.59036144578312" y="344.3373493975904"/>
      <point x="233.3734939759036" y="387.81927710843377"/>
      <point x="296.3012048192771" y="387.81927710843377" type="curve" smooth="yes"/>
      <point x="352.144578313253" y="387.81927710843377"/>
      <point x="384.2048192771084" y="353.144578313253"/>
      <point x="384.2048192771084" y="281.30120481927713" type="curve"/>
      <point x="399.56626506024094" y="293.7469879518072" type="line"/>
      <point x="177.95180722891567" y="293.7469879518072" type="line"/>
      <point x="177.95180722891567" y="209.6144578313253" type="line"/>
      <point x="484.26506024096386" y="209.6144578313253" type="line" smooth="yes"/>
      <point x="515.9036144578314" y="209.6144578313253"/>
      <point x="530.3493975903615" y="221.97590361445782"/>
      <point x="530.3493975903615" y="248.5301204819277" type="curve" smooth="yes"/>
      <point x="530.3493975903615" y="404.3614457831325"/>
      <point x="436.0481927710843" y="503.4698795180723"/>
      <point x="288.10843373493975" y="503.4698795180723" type="curve" smooth="yes"/>
      <point x="138.0843373493976" y="503.4698795180723"/>
      <point x="29.060240963855424" y="397.55421686746985"/>
      <point x="29.060240963855424" y="246.55421686746988" type="curve" smooth="yes"/>
      <point x="29.060240963855424" y="89.27710843373494"/>
      <point x="139.36144578313255" y="-11.27710843373494"/>
    </contour>
  </outline>
</glyph>
<glyph name="f" format="2">
  <advance width="401.6746987951807"/>
  <unicode hex="0066"/>
  <anchor x="182.710843373494" y="0.0" name="bottom"/>
  <anchor x="182.710843373494" y="705.0" name="top"/>
  <outline>
    <contour>
      <point x="182.710843373494" y="-9.27710843373494" type="curve" smooth="yes"/>
      <point x="240.95180722891567" y="-9.27710843373494"/>
      <point x="271.5301204819277" y="22.662650602409638"/>
      <point x="271.5301204819277" y="80.90361445783132" type="curve" smooth="yes"/>
      <point x="271.5301204819277" y="361.15662650602405" type="line"/>
      <point x="329.07228915662654" y="361.15662650602405" type="line" smooth="yes"/>
      <point x="372.566265060241" y="361.15662650602405"/>
      <point x="396.3132530120482" y="384.54216867469876"/>
      <point x="396.3132530120482" y="426.6746987951807" type="curve" smooth="yes"/>
      <point x="396.3132530120482" y="468.8072289156626"/>
      <point x="372.566265060241" y="492.1927710843374"/>
      <point x="329.07228915662654" y="492.1927710843374" type="curve" smooth="yes"/>
      <point x="250.42168674698794" y="492.1927710843374" type="line"/>
      <point x="271.5301204819277" y="474.2771084337349" type="line"/>
      <point x="271.5301204819277" y="506.8072289156626" type="line" smooth="yes"/>
      <point x="271.5301204819277" y="554.3734939759037"/>
      <point x="294.95180722891564" y="577.433734939759"/>
      <point x="363.28915662650604" y="582.4337349397591" type="curve" smooth="yes"/>
      <point x="377.28915662650604" y="583.433734939759" type="line" smooth="yes"/>
      <point x="442.33734939759034" y="588.0722891566265"/>
      <point x="450.53012048192767" y="720.3855421686748"/>
      <point x="344.2168674698795" y="709.2771084337348" type="curve" smooth="yes"/>
      <point x="314.6867469879518" y="706.277108433735" type="line" smooth="yes"/>
      <point x="167.72289156626505" y="691.0843373493975"/>
      <point x="93.53012048192771" y="620.6144578313252"/>
      <point x="93.53012048192771" y="473.3975903614458" type="curve" smooth="yes"/>
      <point x="93.53012048192771" y="445.144578313253" type="line"/>
      <point x="145.49397590361446" y="492.1927710843374" type="line"/>
      <point x="67.96385542168674" y="492.1927710843374" type="line" smooth="yes"/>
      <point x="24.46987951807229" y="492.1927710843374"/>
      <point x="0.7228915662650603" y="468.8072289156626"/>
      <point x="0.7228915662650603" y="426.6746987951807" type="curve" smooth="yes"/>
      <point x="0.7228915662650603" y="384.54216867469876"/>
      <point x="24.46987951807229" y="361.15662650602405"/>
      <point x="67.96385542168674" y="361.15662650602405" type="curve" smooth="yes"/>
      <point x="93.53012048192771" y="361.15662650602405" type="line"/>
      <point x="93.53012048192771" y="80.90361445783132" type="line" smooth="yes"/>
      <point x="93.53012048192771" y="22.662650602409638"/>
      <point x="125.4698795180723" y="-9.27710843373494"/>
    </contour>
  </outline>
</glyph>
<glyph name="g" format="2">
  <advance width="625.710843373494"/>
  <unicode hex="0067"/>
  <anchor x="311.9397590361446" y="484.0" name="top"/>
  <outline>
    <contour>
      <point x="295.55421686746985" y="-191.27710843373492" type="curve" smooth="yes"/>
      <point x="475.3493975903615" y="-191.27710843373492"/>
      <point x="574.1204819277109" y="-105.53012048192771"/>
      <point x="574.1204819277109" y="65.60240963855422" type="curve" smooth="yes"/>
      <point x="574.1204819277109" y="411.6506024096385" type="line" smooth="yes"/>
      <point x="574.1204819277109" y="469.89156626506025"/>
      <point x="543.1807228915662" y="501.4698795180723"/>
      <point x="486.578313253012" y="501.4698795180723" type="curve" smooth="yes"/>
      <point x="430.3373493975904" y="501.4698795180723"/>
      <point x="398.3975903614458" y="469.89156626506025"/>
      <point x="398.3975903614458" y="411.6506024096385" type="curve" smooth="yes"/>
      <point x="398.3975903614458" y="368.10843373493975" type="line"/>
      <point x="407.7590361445783" y="409.07228915662654" type="line"/>
      <point x="388.12048192771084" y="464.5783132530121"/>
      <point x="322.6746987951807" y="503.4698795180723"/>
      <point x="247.69879518072287" y="503.4698795180723" type="curve" smooth="yes"/>
      <point x="116.97590361445782" y="503.4698795180723"/>
      <point x="29.060240963855424" y="405.83132530120486"/>
      <point x="29.060240963855424" y="257.9156626506024" type="curve" smooth="yes"/>
      <point x="29.060240963855424" y="110.0"/>
      <point x="116.97590361445782" y="12.63855421686747"/>
      <point x="247.69879518072287" y="12.63855421686747" type="curve" smooth="yes"/>
      <point x="320.03614457831327" y="12.63855421686747"/>
      <point x="388.12048192771084" y="51.53012048192771"/>
      <point x="409.3975903614458" y="108.03614457831327" type="curve"/>
      <point x="401.03614457831327" y="108.03614457831327" type="line"/>
      <point x="401.03614457831327" y="45.493975903614455" type="line" smooth="yes"/>
      <point x="401.03614457831327" y="-27.096385542168676"/>
      <point x="360.50602409638554" y="-59.87951807228916"/>
      <point x="278.5301204819277" y="-59.87951807228916" type="curve" smooth="yes"/>
      <point x="245.0" y="-59.87951807228916"/>
      <point x="196.10843373493975" y="-54.518072289156635"/>
      <point x="137.74698795180723" y="-31.265060240963862" type="curve" smooth="yes"/>
      <point x="65.03614457831326" y="-3.7108433734939794"/>
      <point x="15.481927710843372" y="-127.85542168674698"/>
      <point x="109.7710843373494" y="-161.7710843373494" type="curve" smooth="yes"/>
      <point x="157.10843373493978" y="-180.83132530120483"/>
      <point x="222.9156626506024" y="-191.27710843373492"/>
    </contour>
    <contour>
      <point x="303.4096385542168" y="144.03614457831327" type="curve" smooth="yes"/>
      <point x="245.56626506024097" y="144.03614457831327"/>
      <point x="208.06024096385542" y="185.710843373494"/>
      <point x="208.06024096385542" y="257.9156626506024" type="curve" smooth="yes"/>
      <point x="208.06024096385542" y="330.12048192771084"/>
      <point x="245.56626506024097" y="372.07228915662654"/>
      <point x="303.4096385542168" y="372.07228915662654" type="curve" smooth="yes"/>
      <point x="361.2530120481928" y="372.07228915662654"/>
      <point x="398.7590361445783" y="330.12048192771084"/>
      <point x="398.7590361445783" y="257.9156626506024" type="curve" smooth="yes"/>
      <point x="398.7590361445783" y="185.710843373494"/>
      <point x="361.2530120481928" y="144.03614457831327"/>
    </contour>
  </outline>
</glyph>
<glyph name="h" format="2">
  <advance width="606.0722891566265"/>
  <unicode hex="0068"/>
  <anchor x="304.855421686747" y="0.0" name="bottom"/>
  <anchor x="304.855421686747" y="249.27710843373495" name="center"/>
  <anchor x="366.2168674698795" y="350.72289156626505" name="dot"/>
  <anchor x="190.7710843373494" y="592.4698795180723" name="stroke"/>
  <anchor x="304.2168674698795" y="705.0" name="top"/>
  <anchor x="251.9277108433735" y="705.0" name="topright"/>
  <outline>
    <contour>
      <point x="140.40963855421685" y="-9.27710843373494" type="curve" smooth="yes"/>
      <point x="198.65060240963854" y="-9.27710843373494"/>
      <point x="229.59036144578312" y="22.662650602409638"/>
      <point x="229.59036144578312" y="80.90361445783132" type="curve" smooth="yes"/>
      <point x="229.59036144578312" y="273.08433734939763" type="line" smooth="yes"/>
      <point x="229.59036144578312" y="329.92771084337346"/>
      <point x="264.4578313253012" y="367.15662650602405"/>
      <point x="317.6626506024096" y="367.15662650602405" type="curve" smooth="yes"/>
      <point x="357.86746987951807" y="367.15662650602405"/>
      <point x="378.84337349397595" y="343.73493975903614"/>
      <point x="378.84337349397595" y="283.6987951807229" type="curve" smooth="yes"/>
      <point x="378.84337349397595" y="80.90361445783132" type="line" smooth="yes"/>
      <point x="378.84337349397595" y="22.662650602409638"/>
      <point x="410.78313253012044" y="-9.27710843373494"/>
      <point x="468.0240963855422" y="-9.27710843373494" type="curve" smooth="yes"/>
      <point x="525.2650602409639" y="-9.27710843373494"/>
      <point x="556.843373493976" y="22.662650602409638"/>
      <point x="556.843373493976" y="80.90361445783132" type="curve" smooth="yes"/>
      <point x="556.843373493976" y="290.9759036144578" type="line" smooth="yes"/>
      <point x="556.843373493976" y="434.91566265060237"/>
      <point x="500.8433734939759" y="503.4698795180723"/>
      <point x="383.84337349397595" y="503.4698795180723" type="curve" smooth="yes"/>
      <point x="308.6746987951807" y="503.4698795180723"/>
      <point x="245.86746987951807" y="468.0240963855422"/>
      <point x="214.31325301204816" y="406.3253012048193" type="curve"/>
      <point x="229.59036144578312" y="406.3253012048193" type="line"/>
      <point x="229.59036144578312" y="624.4578313253012" type="line" smooth="yes"/>
      <point x="229.59036144578312" y="682.6987951807229"/>
      <point x="197.65060240963854" y="714.277108433735"/>
      <point x="140.40963855421685" y="714.277108433735" type="curve" smooth="yes"/>
      <point x="83.16867469879517" y="714.277108433735"/>
      <point x="51.59036144578313" y="682.6987951807229"/>
      <point x="51.59036144578313" y="624.4578313253012" type="curve" smooth="yes"/>
      <point x="51.59036144578313" y="80.90361445783132" type="line" smooth="yes"/>
      <point x="51.59036144578313" y="22.662650602409638"/>
      <point x="83.16867469879517" y="-9.27710843373494"/>
    </contour>
  </outline>
</glyph>
<glyph name="i" format="2">
  <advance width="281.18072289156623"/>
  <unicode hex="0069"/>
  <anchor x="140.40963855421685" y="0.0" name="bottom"/>
  <anchor x="186.9879518072289" y="0.0" name="ogonek"/>
  <outline>
    <contour>
      <point x="140.40963855421685" y="-8.91566265060241" type="curve" smooth="yes"/>
      <point x="198.65060240963854" y="-8.91566265060241"/>
      <point x="229.59036144578312" y="25.662650602409638"/>
      <point x="229.59036144578312" y="87.81927710843374" type="curve" smooth="yes"/>
      <point x="229.59036144578312" y="404.3734939759036" type="line" smooth="yes"/>
      <point x="229.59036144578312" y="466.89156626506025"/>
      <point x="197.65060240963854" y="501.10843373493975"/>
      <point x="140.40963855421685" y="501.10843373493975" type="curve" smooth="yes"/>
      <point x="83.16867469879517" y="501.10843373493975"/>
      <point x="51.59036144578313" y="466.89156626506025"/>
      <point x="51.59036144578313" y="404.3734939759036" type="curve" smooth="yes"/>
      <point x="51.59036144578313" y="87.81927710843374" type="line" smooth="yes"/>
      <point x="51.59036144578313" y="25.662650602409638"/>
      <point x="83.16867469879517" y="-8.91566265060241"/>
    </contour>
    <contour>
      <point x="140.40963855421685" y="571.7590361445783" type="curve" smooth="yes"/>
      <point x="204.3734939759036" y="571.7590361445783"/>
      <point x="239.3132530120482" y="602.144578313253"/>
      <point x="239.3132530120482" y="657.5542168674699" type="curve" smooth="yes"/>
      <point x="239.3132530120482" y="713.3253012048193"/>
      <point x="204.3734939759036" y="743.3493975903615"/>
      <point x="140.40963855421685" y="743.3493975903615" type="curve" smooth="yes"/>
      <point x="76.80722891566265" y="743.3493975903615"/>
      <point x="41.506024096385545" y="713.3253012048193"/>
      <point x="41.506024096385545" y="657.5542168674699" type="curve" smooth="yes"/>
      <point x="41.506024096385545" y="602.144578313253"/>
      <point x="76.80722891566265" y="571.7590361445783"/>
    </contour>
  </outline>
</glyph>
<glyph name="j" format="2">
  <advance width="287.09638554216866"/>
  <unicode hex="006A"/>
  <outline>
    <contour>
      <point x="22.87951807228916" y="-187.08433734939757" type="curve" smooth="yes"/>
      <point x="168.48192771084337" y="-183.46987951807228"/>
      <point x="234.86746987951807" y="-115.42168674698794"/>
      <point x="234.86746987951807" y="19.963855421686745" type="curve" smooth="yes"/>
      <point x="234.86746987951807" y="411.6506024096385" type="line" smooth="yes"/>
      <point x="234.86746987951807" y="469.89156626506025"/>
      <point x="203.289156626506" y="501.4698795180723"/>
      <point x="146.04819277108433" y="501.4698795180723" type="curve" smooth="yes"/>
      <point x="88.80722891566265" y="501.4698795180723"/>
      <point x="56.867469879518076" y="469.89156626506025"/>
      <point x="56.867469879518076" y="411.6506024096385" type="curve" smooth="yes"/>
      <point x="56.867469879518076" y="2.5783132530120483" type="line" smooth="yes"/>
      <point x="56.867469879518076" y="-39.18072289156627"/>
      <point x="37.89156626506024" y="-58.51807228915662"/>
      <point x="-5.506024096385545" y="-62.2409638554217" type="curve" smooth="yes"/>
      <point x="-74.83132530120481" y="-68.51807228915663"/>
      <point x="-80.49397590361446" y="-189.25301204819277"/>
    </contour>
    <contour>
      <point x="145.04819277108433" y="571.7590361445783" type="curve" smooth="yes"/>
      <point x="209.0120481927711" y="571.7590361445783"/>
      <point x="243.95180722891564" y="602.144578313253"/>
      <point x="243.95180722891564" y="657.5542168674699" type="curve" smooth="yes"/>
      <point x="243.95180722891564" y="713.3253012048193"/>
      <point x="209.01204819277106" y="743.3493975903615"/>
      <point x="145.04819277108433" y="743.3493975903615" type="curve" smooth="yes"/>
      <point x="81.44578313253012" y="743.3493975903615"/>
      <point x="46.14457831325302" y="713.3253012048193"/>
      <point x="46.14457831325302" y="657.5542168674699" type="curve" smooth="yes"/>
      <point x="46.14457831325302" y="602.144578313253"/>
      <point x="81.44578313253012" y="571.7590361445783"/>
    </contour>
  </outline>
</glyph>
<glyph name="k" format="2">
  <advance width="580.0602409638554"/>
  <unicode hex="006B"/>
  <anchor x="289.71084337349396" y="0.0" name="bottom"/>
  <anchor x="304.2168674698795" y="705.0" name="top"/>
  <outline>
    <contour>
      <point x="140.40963855421685" y="-9.27710843373494" type="curve" smooth="yes"/>
      <point x="198.65060240963854" y="-9.27710843373494"/>
      <point x="229.59036144578312" y="22.662650602409638"/>
      <point x="229.59036144578312" y="80.90361445783132" type="curve" smooth="yes"/>
      <point x="229.59036144578312" y="205.2289156626506" type="line"/>
      <point x="231.59036144578312" y="205.2289156626506" type="line"/>
      <point x="357.06024096385545" y="51.325301204819276" type="line" smooth="yes"/>
      <point x="388.5301204819277" y="9.55421686746988"/>
      <point x="414.7469879518072" y="-9.27710843373494"/>
      <point x="468.71084337349396" y="-9.27710843373494" type="curve" smooth="yes"/>
      <point x="535.1445783132531" y="-9.27710843373494"/>
      <point x="574.0" y="46.855421686746986"/>
      <point x="530.9759036144578" y="103.73493975903614" type="curve" smooth="yes"/>
      <point x="383.39759036144574" y="289.9397590361446" type="line"/>
      <point x="383.39759036144574" y="227.72289156626508" type="line"/>
      <point x="515.2530120481928" y="383.6265060240964" type="line" smooth="yes"/>
      <point x="559.1927710843373" y="437.86746987951807"/>
      <point x="532.5301204819277" y="501.4698795180723"/>
      <point x="459.18072289156623" y="501.4698795180723" type="curve" smooth="yes"/>
      <point x="409.49397590361446" y="501.4698795180723"/>
      <point x="386.8313253012048" y="482.6385542168675"/>
      <point x="354.44578313253015" y="442.2289156626506" type="curve" smooth="yes"/>
      <point x="231.59036144578312" y="294.4096385542168" type="line"/>
      <point x="229.59036144578312" y="294.4096385542168" type="line"/>
      <point x="229.59036144578312" y="624.4578313253012" type="line" smooth="yes"/>
      <point x="229.59036144578312" y="682.6987951807229"/>
      <point x="197.65060240963854" y="714.277108433735"/>
      <point x="140.40963855421685" y="714.277108433735" type="curve" smooth="yes"/>
      <point x="83.16867469879517" y="714.277108433735"/>
      <point x="51.59036144578313" y="682.6987951807229"/>
      <point x="51.59036144578313" y="624.4578313253012" type="curve" smooth="yes"/>
      <point x="51.59036144578313" y="80.90361445783132" type="line" smooth="yes"/>
      <point x="51.59036144578313" y="22.662650602409638"/>
      <point x="83.16867469879517" y="-9.27710843373494"/>
    </contour>
  </outline>
</glyph>
<glyph name="l" format="2">
  <advance width="347.73493975903614"/>
  <unicode hex="006C"/>
  <anchor x="199.02409638554215" y="0.0" name="bottom"/>
  <anchor x="150.40963855421685" y="357.0" name="center"/>
  <anchor x="371.8072289156626" y="350.72289156626505" name="dot"/>
  <anchor x="140.40963855421685" y="705.0" name="top"/>
  <anchor x="263.2048192771084" y="705.0" name="topright"/>
  <outline>
    <contour>
      <point x="239.02409638554215" y="-11.27710843373494" type="curve" smooth="yes"/>
      <point x="256.2168674698795" y="-11.27710843373494"/>
      <point x="278.87951807228916" y="-8.361445783132531"/>
      <point x="290.32530120481925" y="-6.36144578313253" type="curve" smooth="yes"/>
      <point x="328.9879518072289" y="0.831325301204819"/>
      <point x="346.73493975903614" y="22.02409638554217"/>
      <point x="346.73493975903614" y="68.79518072289156" type="curve" smooth="yes"/>
      <point x="346.73493975903614" y="122.75903614457832"/>
      <point x="336.62650602409644" y="135.3132530120482"/>
      <point x="312.51807228915663" y="134.59036144578312" type="curve" smooth="yes"/>
      <point x="301.60240963855426" y="134.2289156626506"/>
      <point x="291.32530120481925" y="131.3132530120482"/>
      <point x="281.6024096385542" y="131.3132530120482" type="curve" smooth="yes"/>
      <point x="251.48192771084337" y="131.3132530120482"/>
      <point x="229.59036144578312" y="153.289156626506"/>
      <point x="229.59036144578312" y="201.51807228915663" type="curve" smooth="yes"/>
      <point x="229.59036144578312" y="624.4578313253012" type="line" smooth="yes"/>
      <point x="229.59036144578312" y="682.6987951807229"/>
      <point x="197.65060240963854" y="714.277108433735"/>
      <point x="140.40963855421685" y="714.277108433735" type="curve" smooth="yes"/>
      <point x="83.16867469879517" y="714.277108433735"/>
      <point x="51.59036144578313" y="682.6987951807229"/>
      <point x="51.59036144578313" y="624.4578313253012" type="curve" smooth="yes"/>
      <point x="51.59036144578313" y="196.1566265060241" type="line" smooth="yes"/>
      <point x="51.59036144578313" y="57.192771084337345"/>
      <point x="110.144578313253" y="-11.27710843373494"/>
    </contour>
  </outline>
</glyph>
<glyph name="m" format="2">
  <advance width="901.9036144578314"/>
  <unicode hex="006D"/>
  <anchor x="452.13253012048193" y="0.0" name="bottom"/>
  <anchor x="452.13253012048193" y="484.0" name="top"/>
  <outline>
    <contour>
      <point x="142.40963855421685" y="-9.27710843373494" type="curve" smooth="yes"/>
      <point x="200.65060240963854" y="-9.27710843373494"/>
      <point x="231.59036144578312" y="22.662650602409638"/>
      <point x="231.59036144578312" y="80.90361445783132" type="curve" smooth="yes"/>
      <point x="231.59036144578312" y="266.5301204819277" type="line" smooth="yes"/>
      <point x="231.59036144578312" y="331.56626506024094"/>
      <point x="258.4578313253012" y="367.15662650602405"/>
      <point x="307.2168674698795" y="367.15662650602405" type="curve" smooth="yes"/>
      <point x="346.9759036144578" y="367.15662650602405"/>
      <point x="362.9518072289157" y="343.73493975903614"/>
      <point x="362.9518072289157" y="285.9759036144578" type="curve" smooth="yes"/>
      <point x="362.9518072289157" y="80.90361445783132" type="line" smooth="yes"/>
      <point x="362.9518072289157" y="22.662650602409638"/>
      <point x="394.89156626506025" y="-9.27710843373494"/>
      <point x="452.13253012048193" y="-9.27710843373494" type="curve" smooth="yes"/>
      <point x="509.3734939759036" y="-9.27710843373494"/>
      <point x="540.9518072289156" y="22.662650602409638"/>
      <point x="540.9518072289156" y="80.90361445783132" type="curve" smooth="yes"/>
      <point x="540.9518072289156" y="266.5301204819277" type="line" smooth="yes"/>
      <point x="540.9518072289156" y="331.56626506024094"/>
      <point x="568.1807228915662" y="367.15662650602405"/>
      <point x="616.578313253012" y="367.15662650602405" type="curve" smooth="yes"/>
      <point x="656.6987951807229" y="367.15662650602405"/>
      <point x="672.6746987951807" y="343.73493975903614"/>
      <point x="672.6746987951807" y="285.9759036144578" type="curve" smooth="yes"/>
      <point x="672.6746987951807" y="80.90361445783132" type="line" smooth="yes"/>
      <point x="672.6746987951807" y="22.662650602409638"/>
      <point x="704.2530120481928" y="-9.27710843373494"/>
      <point x="761.4939759036145" y="-9.27710843373494" type="curve" smooth="yes"/>
      <point x="818.7349397590361" y="-9.27710843373494"/>
      <point x="850.6746987951807" y="22.662650602409638"/>
      <point x="850.6746987951807" y="80.90361445783132" type="curve" smooth="yes"/>
      <point x="850.6746987951807" y="290.9759036144578" type="line" smooth="yes"/>
      <point x="850.6746987951807" y="435.91566265060237"/>
      <point x="796.6746987951807" y="503.4698795180723"/>
      <point x="682.4819277108434" y="503.4698795180723" type="curve" smooth="yes"/>
      <point x="606.9518072289156" y="503.4698795180723"/>
      <point x="541.9518072289156" y="463.3012048192771"/>
      <point x="511.12048192771084" y="397.7710843373494" type="curve"/>
      <point x="525.1204819277109" y="397.7710843373494" type="line"/>
      <point x="501.9277108433735" y="469.0240963855422"/>
      <point x="448.6506024096385" y="503.4698795180723"/>
      <point x="377.0361445783132" y="503.4698795180723" type="curve" smooth="yes"/>
      <point x="300.95180722891564" y="503.4698795180723"/>
      <point x="243.59036144578312" y="464.3855421686747"/>
      <point x="216.31325301204816" y="406.3253012048193" type="curve"/>
      <point x="227.31325301204816" y="357.16867469879514" type="line"/>
      <point x="227.31325301204816" y="411.6506024096385" type="line" smooth="yes"/>
      <point x="227.31325301204816" y="469.89156626506025"/>
      <point x="196.3734939759036" y="501.4698795180723"/>
      <point x="140.7710843373494" y="501.4698795180723" type="curve" smooth="yes"/>
      <point x="84.53012048192771" y="501.4698795180723"/>
      <point x="53.59036144578313" y="469.89156626506025"/>
      <point x="53.59036144578313" y="411.6506024096385" type="curve" smooth="yes"/>
      <point x="53.59036144578313" y="80.90361445783132" type="line" smooth="yes"/>
      <point x="53.59036144578313" y="22.662650602409638"/>
      <point x="85.16867469879517" y="-9.27710843373494"/>
    </contour>
  </outline>
</glyph>
<glyph name="n" format="2">
  <advance width="606.0722891566265"/>
  <unicode hex="006E"/>
  <anchor x="304.855421686747" y="0.0" name="bottom"/>
  <anchor x="304.855421686747" y="484.0" name="top"/>
  <outline>
    <contour>
      <point x="140.40963855421685" y="-9.27710843373494" type="curve" smooth="yes"/>
      <point x="198.65060240963854" y="-9.27710843373494"/>
      <point x="229.59036144578312" y="22.662650602409638"/>
      <point x="229.59036144578312" y="80.90361445783132" type="curve" smooth="yes"/>
      <point x="229.59036144578312" y="273.08433734939763" type="line" smooth="yes"/>
      <point x="229.59036144578312" y="329.92771084337346"/>
      <point x="264.4578313253012" y="367.15662650602405"/>
      <point x="317.6626506024096" y="367.15662650602405" type="curve" smooth="yes"/>
      <point x="357.86746987951807" y="367.15662650602405"/>
      <point x="378.84337349397595" y="343.73493975903614"/>
      <point x="378.84337349397595" y="283.6987951807229" type="curve" smooth="yes"/>
      <point x="378.84337349397595" y="80.90361445783132" type="line" smooth="yes"/>
      <point x="378.84337349397595" y="22.662650602409638"/>
      <point x="410.78313253012044" y="-9.27710843373494"/>
      <point x="468.0240963855422" y="-9.27710843373494" type="curve" smooth="yes"/>
      <point x="525.2650602409639" y="-9.27710843373494"/>
      <point x="556.843373493976" y="22.662650602409638"/>
      <point x="556.843373493976" y="80.90361445783132" type="curve" smooth="yes"/>
      <point x="556.843373493976" y="290.9759036144578" type="line" smooth="yes"/>
      <point x="556.843373493976" y="435.27710843373495"/>
      <point x="500.8433734939759" y="503.4698795180723"/>
      <point x="383.84337349397595" y="503.4698795180723" type="curve" smooth="yes"/>
      <point x="308.6746987951807" y="503.4698795180723"/>
      <point x="245.86746987951807" y="468.0240963855422"/>
      <point x="214.31325301204816" y="406.3253012048193" type="curve"/>
      <point x="225.31325301204816" y="365.3614457831325" type="line"/>
      <point x="225.31325301204816" y="411.6506024096385" type="line" smooth="yes"/>
      <point x="225.31325301204816" y="469.89156626506025"/>
      <point x="194.3734939759036" y="501.4698795180723"/>
      <point x="138.7710843373494" y="501.4698795180723" type="curve" smooth="yes"/>
      <point x="82.53012048192771" y="501.4698795180723"/>
      <point x="51.59036144578313" y="469.89156626506025"/>
      <point x="51.59036144578313" y="411.6506024096385" type="curve" smooth="yes"/>
      <point x="51.59036144578313" y="80.90361445783132" type="line" smooth="yes"/>
      <point x="51.59036144578313" y="22.662650602409638"/>
      <point x="83.16867469879517" y="-9.27710843373494"/>
    </contour>
  </outline>
</glyph>
<glyph name="o" format="2">
  <advance width="601.5421686746988"/>
  <unicode hex="006F"/>
  <anchor x="300.7710843373494" y="0.0" name="bottom"/>
  <anchor x="300.7710843373494" y="246.27710843373495" name="center"/>
  <anchor x="359.7710843373494" y="0.0" name="ogonek"/>
  <anchor x="300.7710843373494" y="484.0" name="top"/>
  <anchor x="368.07228915662654" y="484.0" name="topright"/>
  <outline>
    <contour>
      <point x="300.7710843373494" y="-11.27710843373494" type="curve" smooth="yes"/>
      <point x="464.5421686746988" y="-11.27710843373494"/>
      <point x="572.4819277108434" y="86.72289156626506"/>
      <point x="572.4819277108434" y="246.27710843373495" type="curve" smooth="yes"/>
      <point x="572.4819277108434" y="405.4698795180723"/>
      <point x="464.5421686746988" y="503.4698795180723"/>
      <point x="300.7710843373494" y="503.4698795180723" type="curve" smooth="yes"/>
      <point x="136.63855421686748" y="503.4698795180723"/>
      <point x="29.060240963855424" y="405.4698795180723"/>
      <point x="29.060240963855424" y="246.27710843373495" type="curve" smooth="yes"/>
      <point x="29.060240963855424" y="86.72289156626506"/>
      <point x="136.63855421686748" y="-11.27710843373494"/>
    </contour>
    <contour>
      <point x="300.7710843373494" y="120.12048192771084" type="curve" smooth="yes"/>
      <point x="246.2048192771084" y="120.12048192771084"/>
      <point x="208.06024096385542" y="157.51807228915663"/>
      <point x="208.06024096385542" y="246.27710843373495" type="curve" smooth="yes"/>
      <point x="208.06024096385542" y="335.0361445783132"/>
      <point x="246.2048192771084" y="372.07228915662654"/>
      <point x="300.7710843373494" y="372.07228915662654" type="curve" smooth="yes"/>
      <point x="354.9759036144579" y="372.07228915662654"/>
      <point x="393.48192771084337" y="335.0361445783132"/>
      <point x="393.48192771084337" y="246.27710843373495" type="curve" smooth="yes"/>
      <point x="393.48192771084337" y="157.51807228915663"/>
      <point x="354.9759036144579" y="120.12048192771084"/>
    </contour>
  </outline>
</glyph>
<glyph name="p" format="2">
  <advance width="620.433734939759"/>
  <unicode hex="0070"/>
  <anchor x="309.2168674698795" y="0.0" name="bottom"/>
  <anchor x="309.2168674698795" y="484.0" name="top"/>
  <outline>
    <contour>
      <point x="140.40963855421685" y="-189.27710843373492" type="curve" smooth="yes"/>
      <point x="197.65060240963854" y="-189.27710843373492"/>
      <point x="229.59036144578312" y="-157.69879518072287"/>
      <point x="229.59036144578312" y="-99.45783132530121" type="curve" smooth="yes"/>
      <point x="229.59036144578312" y="82.75903614457832" type="line"/>
      <point x="217.59036144578315" y="82.75903614457832" type="line"/>
      <point x="237.95180722891564" y="27.6144578313253"/>
      <point x="303.03614457831327" y="-11.27710843373494"/>
      <point x="376.3734939759036" y="-11.27710843373494" type="curve" smooth="yes"/>
      <point x="503.4578313253012" y="-11.27710843373494"/>
      <point x="591.3734939759036" y="86.72289156626506"/>
      <point x="591.3734939759036" y="246.27710843373495" type="curve" smooth="yes"/>
      <point x="591.3734939759036" y="405.83132530120486"/>
      <point x="502.4578313253012" y="503.4698795180723"/>
      <point x="376.3734939759036" y="503.4698795180723" type="curve" smooth="yes"/>
      <point x="300.39759036144574" y="503.4698795180723"/>
      <point x="234.67469879518072" y="462.9397590361446"/>
      <point x="215.95180722891564" y="403.2409638554217" type="curve"/>
      <point x="226.95180722891564" y="354.08433734939763" type="line"/>
      <point x="226.95180722891564" y="411.6506024096385" type="line" smooth="yes"/>
      <point x="226.95180722891564" y="469.89156626506025"/>
      <point x="196.0120481927711" y="501.4698795180723"/>
      <point x="138.7710843373494" y="501.4698795180723" type="curve" smooth="yes"/>
      <point x="82.53012048192771" y="501.4698795180723"/>
      <point x="51.59036144578313" y="469.89156626506025"/>
      <point x="51.59036144578313" y="411.6506024096385" type="curve" smooth="yes"/>
      <point x="51.59036144578313" y="-99.45783132530121" type="line" smooth="yes"/>
      <point x="51.59036144578313" y="-157.69879518072287"/>
      <point x="83.16867469879517" y="-189.27710843373492"/>
    </contour>
    <contour>
      <point x="319.6626506024096" y="120.12048192771084" type="curve" smooth="yes"/>
      <point x="265.09638554216866" y="120.12048192771084"/>
      <point x="226.95180722891567" y="157.51807228915663"/>
      <point x="226.95180722891567" y="246.27710843373495" type="curve" smooth="yes"/>
      <point x="226.95180722891567" y="335.0361445783132"/>
      <point x="265.09638554216866" y="372.07228915662654"/>
      <point x="319.6626506024096" y="372.07228915662654" type="curve" smooth="yes"/>
      <point x="373.86746987951807" y="372.07228915662654"/>
      <point x="412.3734939759036" y="335.0361445783132"/>
      <point x="412.3734939759036" y="246.27710843373495" type="curve" smooth="yes"/>
      <point x="412.3734939759036" y="157.51807228915663"/>
      <point x="373.86746987951807" y="120.12048192771084"/>
    </contour>
  </outline>
</glyph>
<glyph name="q" format="2">
  <advance width="620.433734939759"/>
  <unicode hex="0071"/>
  <anchor x="313.13253012048193" y="0.0" name="bottom"/>
  <anchor x="313.13253012048193" y="484.0" name="top"/>
  <outline>
    <contour>
      <point x="479.66265060240966" y="-189.27710843373492" type="curve" smooth="yes"/>
      <point x="536.9036144578313" y="-189.27710843373492"/>
      <point x="568.843373493976" y="-157.69879518072287"/>
      <point x="568.843373493976" y="-99.45783132530121" type="curve" smooth="yes"/>
      <point x="568.843373493976" y="411.6506024096385" type="line" smooth="yes"/>
      <point x="568.843373493976" y="469.89156626506025"/>
      <point x="537.9036144578313" y="501.4698795180723"/>
      <point x="481.3012048192771" y="501.4698795180723" type="curve" smooth="yes"/>
      <point x="424.0602409638554" y="501.4698795180723"/>
      <point x="393.12048192771084" y="469.89156626506025"/>
      <point x="393.12048192771084" y="411.6506024096385" type="curve" smooth="yes"/>
      <point x="393.12048192771084" y="354.08433734939763" type="line"/>
      <point x="404.12048192771084" y="403.2409638554217" type="line"/>
      <point x="385.3975903614458" y="462.9397590361446"/>
      <point x="319.6746987951807" y="503.4698795180723"/>
      <point x="244.0602409638554" y="503.4698795180723" type="curve" smooth="yes"/>
      <point x="117.97590361445782" y="503.4698795180723"/>
      <point x="29.060240963855424" y="405.83132530120486"/>
      <point x="29.060240963855424" y="246.27710843373495" type="curve" smooth="yes"/>
      <point x="29.060240963855424" y="86.72289156626506"/>
      <point x="116.97590361445782" y="-11.27710843373494"/>
      <point x="244.0602409638554" y="-11.27710843373494" type="curve" smooth="yes"/>
      <point x="317.3975903614458" y="-11.27710843373494"/>
      <point x="382.12048192771084" y="27.6144578313253"/>
      <point x="402.48192771084337" y="82.75903614457832" type="curve"/>
      <point x="390.84337349397595" y="82.75903614457832" type="line"/>
      <point x="390.84337349397595" y="-99.45783132530121" type="line" smooth="yes"/>
      <point x="390.84337349397595" y="-157.69879518072287"/>
      <point x="422.4216867469879" y="-189.27710843373492"/>
    </contour>
    <contour>
      <point x="300.7710843373494" y="120.12048192771084" type="curve" smooth="yes"/>
      <point x="246.2048192771084" y="120.12048192771084"/>
      <point x="208.06024096385542" y="157.51807228915663"/>
      <point x="208.06024096385542" y="246.27710843373495" type="curve" smooth="yes"/>
      <point x="208.06024096385542" y="335.0361445783132"/>
      <point x="246.2048192771084" y="372.07228915662654"/>
      <point x="300.7710843373494" y="372.07228915662654" type="curve" smooth="yes"/>
      <point x="354.9759036144579" y="372.07228915662654"/>
      <point x="393.48192771084337" y="335.0361445783132"/>
      <point x="393.48192771084337" y="246.27710843373495" type="curve" smooth="yes"/>
      <point x="393.48192771084337" y="157.51807228915663"/>
      <point x="354.9759036144579" y="120.12048192771084"/>
    </contour>
  </outline>
</glyph>
<glyph name="r" format="2">
  <advance width="433.50602409638554"/>
  <unicode hex="0072"/>
  <anchor x="142.04819277108433" y="0.0" name="bottom"/>
  <anchor x="241.04819277108433" y="484.0" name="top"/>
  <outline>
    <contour>
      <point x="143.04819277108433" y="-9.27710843373494" type="curve" smooth="yes"/>
      <point x="201.289156626506" y="-9.27710843373494"/>
      <point x="232.86746987951807" y="22.662650602409638"/>
      <point x="232.86746987951807" y="80.90361445783132" type="curve" smooth="yes"/>
      <point x="232.86746987951807" y="245.12048192771084" type="line" smooth="yes"/>
      <point x="232.86746987951807" y="308.9879518072289"/>
      <point x="263.6506024096385" y="340.13253012048193"/>
      <point x="334.15662650602405" y="346.855421686747" type="curve" smooth="yes"/>
      <point x="357.43373493975906" y="348.855421686747" type="line" smooth="yes"/>
      <point x="412.5903614457832" y="354.13253012048193"/>
      <point x="429.6746987951807" y="382.7951807228916"/>
      <point x="428.5903614457832" y="431.48192771084337" type="curve" smooth="yes"/>
      <point x="427.50602409638554" y="486.2771084337349"/>
      <point x="408.5903614457832" y="504.5542168674699"/>
      <point x="370.3734939759036" y="503.46987951807233" type="curve" smooth="yes"/>
      <point x="287.03614457831327" y="500.5783132530121"/>
      <point x="227.56626506024097" y="451.0"/>
      <point x="215.31325301204816" y="371.0" type="curve"/>
      <point x="225.31325301204816" y="371.0" type="line"/>
      <point x="225.31325301204816" y="411.6506024096385" type="line" smooth="yes"/>
      <point x="225.31325301204816" y="469.89156626506025"/>
      <point x="194.3734939759036" y="501.4698795180723"/>
      <point x="138.7710843373494" y="501.4698795180723" type="curve" smooth="yes"/>
      <point x="82.53012048192771" y="501.4698795180723"/>
      <point x="51.59036144578313" y="469.89156626506025"/>
      <point x="51.59036144578313" y="411.6506024096385" type="curve" smooth="yes"/>
      <point x="51.59036144578313" y="80.90361445783132" type="line" smooth="yes"/>
      <point x="51.59036144578313" y="22.662650602409638"/>
      <point x="83.16867469879517" y="-9.27710843373494"/>
    </contour>
  </outline>
</glyph>
<glyph name="s" format="2">
  <advance width="496.3012048192771"/>
  <unicode hex="0073"/>
  <anchor x="249.10843373493975" y="0.0" name="bottom"/>
  <anchor x="257.4698795180723" y="484.0" name="top"/>
  <outline>
    <contour>
      <point x="248.4698795180723" y="-11.27710843373494" type="curve" smooth="yes"/>
      <point x="384.68674698795184" y="-11.27710843373494"/>
      <point x="475.34939759036143" y="50.55421686746988"/>
      <point x="475.34939759036143" y="158.77108433734938" type="curve" smooth="yes"/>
      <point x="475.34939759036143" y="234.6024096385542"/>
      <point x="427.43373493975906" y="279.1566265060241"/>
      <point x="342.07228915662654" y="293.2409638554217" type="curve" smooth="yes"/>
      <point x="231.21686746987953" y="311.6024096385542" type="line" smooth="yes"/>
      <point x="206.26506024096383" y="316.04819277108436"/>
      <point x="194.0120481927711" y="328.0240963855422"/>
      <point x="194.0120481927711" y="344.5301204819277" type="curve" smooth="yes"/>
      <point x="194.0120481927711" y="366.84337349397595"/>
      <point x="214.1566265060241" y="383.54216867469876"/>
      <point x="268.93975903614455" y="383.54216867469876" type="curve" smooth="yes"/>
      <point x="297.8313253012048" y="383.54216867469876"/>
      <point x="331.3614457831325" y="376.4578313253012"/>
      <point x="375.27710843373495" y="359.28915662650604" type="curve" smooth="yes"/>
      <point x="452.9879518072289" y="329.3734939759036"/>
      <point x="491.5421686746988" y="442.855421686747"/>
      <point x="420.4698795180723" y="473.4096385542169" type="curve" smooth="yes"/>
      <point x="373.1084337349398" y="494.66265060240966"/>
      <point x="326.3012048192771" y="503.4698795180723"/>
      <point x="266.0240963855422" y="503.4698795180723" type="curve" smooth="yes"/>
      <point x="131.53012048192772" y="503.4698795180723"/>
      <point x="36.951807228915655" y="438.0"/>
      <point x="36.951807228915655" y="335.3373493975904" type="curve" smooth="yes"/>
      <point x="36.951807228915655" y="259.86746987951807"/>
      <point x="84.14457831325302" y="212.95180722891567"/>
      <point x="167.14457831325302" y="198.86746987951807" type="curve" smooth="yes"/>
      <point x="278.0" y="180.50602409638554" type="line" smooth="yes"/>
      <point x="303.03614457831327" y="176.33734939759037"/>
      <point x="318.289156626506" y="166.72289156626508"/>
      <point x="318.289156626506" y="146.93975903614458" type="curve" smooth="yes"/>
      <point x="318.289156626506" y="124.34939759036145"/>
      <point x="298.144578313253" y="108.65060240963855"/>
      <point x="248.8313253012048" y="108.65060240963855" type="curve" smooth="yes"/>
      <point x="207.66265060240966" y="108.65060240963855"/>
      <point x="164.21686746987953" y="116.37349397590361"/>
      <point x="109.3012048192771" y="136.90361445783134" type="curve" smooth="yes"/>
      <point x="33.86746987951807" y="163.5421686746988"/>
      <point x="-7.156626506024097" y="51.78313253012048"/>
      <point x="75.93975903614458" y="18.50602409638554" type="curve" smooth="yes"/>
      <point x="125.3012048192771" y="-2.831325301204818"/>
      <point x="187.9156626506024" y="-11.27710843373494"/>
    </contour>
  </outline>
</glyph>
<glyph name="t" format="2">
  <advance width="425.50602409638554"/>
  <unicode hex="0074"/>
  <anchor x="247.24096385542168" y="0.0" name="bottom"/>
  <anchor x="197.87951807228916" y="253.33734939759037" name="center"/>
  <anchor x="179.07228915662648" y="635.0" name="top"/>
  <anchor x="306.92771084337346" y="705.0" name="topright"/>
  <outline>
    <contour>
      <point x="310.07228915662654" y="-11.27710843373494" type="curve" smooth="yes"/>
      <point x="329.7951807228916" y="-11.27710843373494"/>
      <point x="367.9036144578313" y="-6.27710843373494"/>
      <point x="386.81927710843377" y="1.0" type="curve" smooth="yes"/>
      <point x="418.12048192771084" y="13.46987951807229"/>
      <point x="428.3132530120482" y="41.21686746987952"/>
      <point x="428.3132530120482" y="80.98795180722891" type="curve" smooth="yes"/>
      <point x="428.3132530120482" y="129.67469879518072"/>
      <point x="413.12048192771084" y="139.3132530120482"/>
      <point x="392.0120481927711" y="138.3132530120482" type="curve" smooth="yes"/>
      <point x="376.73493975903614" y="137.95180722891567"/>
      <point x="359.09638554216866" y="131.95180722891564"/>
      <point x="340.9277108433735" y="131.95180722891564" type="curve" smooth="yes"/>
      <point x="290.06024096385545" y="131.95180722891564"/>
      <point x="267.8915662650602" y="155.0120481927711"/>
      <point x="267.8915662650602" y="203.6867469879518" type="curve" smooth="yes"/>
      <point x="267.8915662650602" y="361.15662650602405" type="line"/>
      <point x="349.6265060240964" y="361.15662650602405" type="line" smooth="yes"/>
      <point x="393.12048192771084" y="361.15662650602405"/>
      <point x="417.50602409638554" y="384.54216867469876"/>
      <point x="417.50602409638554" y="426.6746987951807" type="curve" smooth="yes"/>
      <point x="417.50602409638554" y="468.8072289156626"/>
      <point x="393.12048192771084" y="492.1927710843374"/>
      <point x="349.6265060240964" y="492.1927710843374" type="curve" smooth="yes"/>
      <point x="267.8915662650602" y="492.1927710843374" type="line"/>
      <point x="267.8915662650602" y="554.4578313253012" type="line" smooth="yes"/>
      <point x="267.8915662650602" y="612.6987951807229"/>
      <point x="236.31325301204816" y="644.277108433735"/>
      <point x="179.07228915662648" y="644.277108433735" type="curve" smooth="yes"/>
      <point x="121.83132530120481" y="644.277108433735"/>
      <point x="89.89156626506023" y="612.6987951807229"/>
      <point x="89.89156626506023" y="554.4578313253012" type="curve" smooth="yes"/>
      <point x="89.89156626506023" y="492.1927710843374" type="line"/>
      <point x="56.40963855421687" y="492.1927710843374" type="line" smooth="yes"/>
      <point x="12.915662650602409" y="492.1927710843374"/>
      <point x="-11.46987951807229" y="468.8072289156626"/>
      <point x="-11.46987951807229" y="426.6746987951807" type="curve" smooth="yes"/>
      <point x="-11.46987951807229" y="384.54216867469876"/>
      <point x="12.915662650602409" y="361.15662650602405"/>
      <point x="56.40963855421687" y="361.15662650602405" type="curve" smooth="yes"/>
      <point x="89.89156626506023" y="361.15662650602405" type="line"/>
      <point x="89.89156626506023" y="197.96385542168676" type="line" smooth="yes"/>
      <point x="89.89156626506023" y="57.915662650602414"/>
      <point x="160.55421686746988" y="-11.27710843373494"/>
    </contour>
  </outline>
</glyph>
<glyph name="v" format="2">
  <advance width="541.6867469879519"/>
  <unicode hex="0076"/>
  <anchor x="273.3012048192771" y="0.0" name="bottom"/>
  <anchor x="273.3012048192771" y="484.0" name="top"/>
  <outline>
    <contour>
      <point x="270.0240963855422" y="-9.27710843373494" type="curve" smooth="yes"/>
      <point x="317.7951807228916" y="-9.27710843373494"/>
      <point x="349.4578313253012" y="12.831325301204819"/>
      <point x="370.2048192771084" y="60.325301204819276" type="curve" smooth="yes"/>
      <point x="516.2409638554217" y="388.18072289156623" type="line" smooth="yes"/>
      <point x="542.9036144578314" y="447.78313253012044"/>
      <point x="513.9638554216867" y="501.4698795180723"/>
      <point x="455.0" y="501.4698795180723" type="curve" smooth="yes"/>
      <point x="408.2289156626506" y="501.4698795180723"/>
      <point x="385.20481927710847" y="485.0"/>
      <point x="363.8192771084337" y="431.3975903614458" type="curve" smooth="yes"/>
      <point x="258.0240963855422" y="170.02409638554215" type="line"/>
      <point x="291.855421686747" y="170.02409638554215" type="line"/>
      <point x="191.33734939759034" y="429.7590361445783" type="line" smooth="yes"/>
      <point x="169.95180722891564" y="485.6385542168675"/>
      <point x="145.9277108433735" y="501.4698795180723"/>
      <point x="103.79518072289156" y="501.4698795180723" type="curve" smooth="yes"/>
      <point x="27.084337349397593" y="501.4698795180723"/>
      <point x="1.4216867469879553" y="447.7831325301205"/>
      <point x="27.44578313253012" y="387.8192771084337" type="curve" smooth="yes"/>
      <point x="169.8433734939759" y="60.963855421686745" type="line" smooth="yes"/>
      <point x="190.95180722891567" y="13.46987951807229"/>
      <point x="223.25301204819277" y="-9.27710843373494"/>
    </contour>
  </outline>
</glyph>
<glyph name="w" format="2">
  <advance width="868.3253012048193"/>
  <unicode hex="0077"/>
  <anchor x="434.6626506024096" y="0.0" name="bottom"/>
  <anchor x="434.6626506024096" y="484.0" name="top"/>
  <outline>
    <contour>
      <point x="266.13253012048193" y="-9.27710843373494" type="curve" smooth="yes"/>
      <point x="312.26506024096386" y="-9.27710843373494"/>
      <point x="344.28915662650604" y="13.46987951807229"/>
      <point x="363.0361445783132" y="61.602409638554214" type="curve" smooth="yes"/>
      <point x="467.4096385542168" y="335.44578313253015" type="line"/>
      <point x="394.44578313253015" y="335.44578313253015" type="line"/>
      <point x="504.37349397590367" y="59.963855421686745" type="line" smooth="yes"/>
      <point x="523.1204819277108" y="12.831325301204817"/>
      <point x="556.421686746988" y="-9.27710843373494"/>
      <point x="602.5542168674699" y="-9.27710843373494" type="curve" smooth="yes"/>
      <point x="648.3253012048193" y="-9.27710843373494"/>
      <point x="681.6265060240963" y="12.831325301204817"/>
      <point x="701.3734939759037" y="59.963855421686745" type="curve" smooth="yes"/>
      <point x="836.433734939759" y="387.18072289156623" type="line" smooth="yes"/>
      <point x="861.7349397590363" y="446.7831325301205"/>
      <point x="841.3493975903614" y="501.4698795180723"/>
      <point x="774.1927710843373" y="501.4698795180723" type="curve" smooth="yes"/>
      <point x="740.5301204819277" y="501.4698795180723"/>
      <point x="709.3132530120481" y="486.0"/>
      <point x="690.566265060241" y="435.9518072289157" type="curve" smooth="yes"/>
      <point x="594.1084337349397" y="178.49397590361446" type="line"/>
      <point x="611.9156626506025" y="178.49397590361446" type="line"/>
      <point x="510.6265060240964" y="448.6144578313253" type="line" smooth="yes"/>
      <point x="497.43373493975906" y="483.6385542168675"/>
      <point x="476.2409638554217" y="501.4698795180723"/>
      <point x="438.30120481927713" y="501.4698795180723" type="curve" smooth="yes"/>
      <point x="401.0" y="501.4698795180723"/>
      <point x="379.53012048192767" y="484.6385542168675"/>
      <point x="365.9759036144578" y="448.6144578313253" type="curve" smooth="yes"/>
      <point x="264.6024096385542" y="178.49397590361446" type="line"/>
      <point x="286.32530120481925" y="178.49397590361446" type="line"/>
      <point x="189.59036144578312" y="430.3975903614458" type="line" smooth="yes"/>
      <point x="167.9277108433735" y="486.0"/>
      <point x="143.90361445783134" y="501.4698795180723"/>
      <point x="103.40963855421687" y="501.4698795180723" type="curve" smooth="yes"/>
      <point x="30.421686746987955" y="501.4698795180723"/>
      <point x="4.951807228915666" y="448.86746987951807"/>
      <point x="30.614457831325304" y="387.8192771084337" type="curve" smooth="yes"/>
      <point x="167.3132530120482" y="59.325301204819276" type="line" smooth="yes"/>
      <point x="187.06024096385542" y="12.469879518072288"/>
      <point x="219.36144578313252" y="-9.27710843373494"/>
    </contour>
  </outline>
</glyph>
<glyph name="x" format="2">
  <advance width="572.1807228915662"/>
  <unicode hex="0078"/>
  <anchor x="286.7710843373494" y="0.0" name="bottom"/>
  <anchor x="286.7710843373494" y="484.0" name="top"/>
  <outline>
    <contour>
      <point x="120.71084337349397" y="-8.192771084337348" type="curve" smooth="yes"/>
      <point x="163.8433734939759" y="-8.192771084337348"/>
      <point x="187.2289156626506" y="6.0"/>
      <point x="212.25301204819277" y="36.93975903614458" type="curve" smooth="yes"/>
      <point x="316.9879518072289" y="169.65060240963854" type="line"/>
      <point x="255.83132530120483" y="169.65060240963854" type="line"/>
      <point x="360.28915662650604" y="36.93975903614458" type="line" smooth="yes"/>
      <point x="385.3132530120482" y="5.0"/>
      <point x="410.69879518072287" y="-8.192771084337348"/>
      <point x="451.8313253012048" y="-8.192771084337348" type="curve" smooth="yes"/>
      <point x="518.9036144578313" y="-8.192771084337348"/>
      <point x="552.2048192771084" y="54.963855421686745"/>
      <point x="503.7951807228916" y="113.28915662650601" type="curve" smooth="yes"/>
      <point x="354.566265060241" y="293.4096385542168" type="line"/>
      <point x="354.566265060241" y="213.78313253012047" type="line"/>
      <point x="490.87951807228916" y="379.6265060240964" type="line" smooth="yes"/>
      <point x="539.0120481927711" y="438.31325301204816"/>
      <point x="507.6265060240964" y="501.4698795180723"/>
      <point x="440.91566265060237" y="501.4698795180723" type="curve" smooth="yes"/>
      <point x="399.4216867469879" y="501.4698795180723"/>
      <point x="373.7590361445783" y="488.27710843373495"/>
      <point x="349.3734939759036" y="456.3373493975904" type="curve" smooth="yes"/>
      <point x="255.8313253012048" y="335.54216867469876" type="line"/>
      <point x="317.71084337349396" y="335.54216867469876" type="line"/>
      <point x="224.5301204819277" y="456.3373493975904" type="line" smooth="yes"/>
      <point x="200.14457831325302" y="488.27710843373495"/>
      <point x="175.75903614457832" y="501.4698795180723"/>
      <point x="132.6265060240964" y="501.4698795180723" type="curve" smooth="yes"/>
      <point x="65.91566265060241" y="501.4698795180723"/>
      <point x="34.16867469879518" y="438.6746987951807"/>
      <point x="82.3012048192771" y="379.9879518072289" type="curve" smooth="yes"/>
      <point x="218.33734939759034" y="214.06024096385542" type="line"/>
      <point x="218.33734939759034" y="292.855421686747" type="line"/>
      <point x="70.3855421686747" y="113.28915662650601" type="line" smooth="yes"/>
      <point x="22.614457831325304" y="54.602409638554214"/>
      <point x="54.0" y="-8.192771084337348"/>
    </contour>
  </outline>
</glyph>
